ISO-10303-21;
HEADER;
FILE_DESCRIPTION (( 'STEP AP214' ),
    '1' );
FILE_NAME ('Axle 160,67.STEP',
    '2024-02-06T19:34:37',
    ( '' ),
    ( '' ),
    'SwSTEP 2.0',
    'SolidWorks 2023',
    '' );
FILE_SCHEMA (( 'AUTOMOTIVE_DESIGN' ));
ENDSEC;

DATA;
#1 = FILL_AREA_STYLE_COLOUR ( '', #93 ) ;
#2 = PRODUCT ( 'Axle 160,67', 'Axle 160,67', '', ( #89 ) ) ;
#3 = DIRECTION ( 'NONE',  ( 0.000000000000000000, 0.000000000000000000, 1.000000000000000000 ) ) ;
#4 = EDGE_CURVE ( 'NONE', #44, #106, #24, .T. ) ;
#5 = DIRECTION ( 'NONE',  ( 0.000000000000000000, 0.000000000000000000, 1.000000000000000000 ) ) ;
#6 =( NAMED_UNIT ( * ) SI_UNIT ( $, .STERADIAN. ) SOLID_ANGLE_UNIT ( ) );
#7 = DIRECTION ( 'NONE',  ( -0.000000000000000000, -0.000000000000000000, -1.000000000000000000 ) ) ;
#8 = AXIS2_PLACEMENT_3D ( 'NONE', #118, #3, #39 ) ;
#9 = EDGE_CURVE ( 'NONE', #88, #104, #96, .T. ) ;
#10 = AXIS2_PLACEMENT_3D ( 'NONE', #99, #7, #92 ) ;
#11 =( LENGTH_UNIT ( ) NAMED_UNIT ( * ) SI_UNIT ( .MILLI., .METRE. ) );
#12 = STYLED_ITEM ( 'NONE', ( #117 ), #64 ) ;
#13 = EDGE_LOOP ( 'NONE', ( #124, #97 ) ) ;
#14 = CARTESIAN_POINT ( 'NONE',  ( 0.000000000000000000, 0.000000000000000000, 80.33499999999999375 ) ) ;
#15 = ORIENTED_EDGE ( 'NONE', *, *, #57, .F. ) ;
#16 = VECTOR ( 'NONE', #23, 1000.000000000000000 ) ;
#17 = ADVANCED_FACE ( 'NONE', ( #21 ), #38, .T. ) ;
#18 =( LENGTH_UNIT ( ) NAMED_UNIT ( * ) SI_UNIT ( .MILLI., .METRE. ) );
#19 = DIRECTION ( 'NONE',  ( 1.000000000000000000, 0.000000000000000000, -0.000000000000000000 ) ) ;
#20 = UNCERTAINTY_MEASURE_WITH_UNIT (LENGTH_MEASURE( 1.000000000000000082E-05 ), #11, 'distance_accuracy_value', 'NONE');
#21 = FACE_OUTER_BOUND ( 'NONE', #77, .T. ) ;
#22 = AXIS2_PLACEMENT_3D ( 'NONE', #121, #113, #26 ) ;
#23 = DIRECTION ( 'NONE',  ( -0.000000000000000000, -0.000000000000000000, -1.000000000000000000 ) ) ;
#24 = LINE ( 'NONE', #31, #16 ) ;
#25 = ORIENTED_EDGE ( 'NONE', *, *, #83, .F. ) ;
#26 = DIRECTION ( 'NONE',  ( 1.000000000000000000, 0.000000000000000000, -0.000000000000000000 ) ) ;
#27 = DIRECTION ( 'NONE',  ( 1.000000000000000000, 0.000000000000000000, 0.000000000000000000 ) ) ;
#28 = ADVANCED_BREP_SHAPE_REPRESENTATION ( 'Axle 160,67', ( #64, #102 ), #78 ) ;
#29 = PRODUCT_DEFINITION ( 'UNKNOWN', '', #51, #49 ) ;
#30 = SURFACE_STYLE_FILL_AREA ( #115 ) ;
#31 = CARTESIAN_POINT ( 'NONE',  ( -4.000000000000000000, 0.000000000000000000, 80.33499999999999375 ) ) ;
#32 = ORIENTED_EDGE ( 'NONE', *, *, #9, .T. ) ;
#33 = FACE_OUTER_BOUND ( 'NONE', #87, .T. ) ;
#34 =( NAMED_UNIT ( * ) SI_UNIT ( $, .STERADIAN. ) SOLID_ANGLE_UNIT ( ) );
#35 = CARTESIAN_POINT ( 'NONE',  ( 0.000000000000000000, 0.000000000000000000, -80.33499999999999375 ) ) ;
#36 = ORIENTED_EDGE ( 'NONE', *, *, #116, .T. ) ;
#37 = SURFACE_STYLE_USAGE ( .BOTH. , #66 ) ;
#38 = CYLINDRICAL_SURFACE ( 'NONE', #114, 4.000000000000000000 ) ;
#39 = DIRECTION ( 'NONE',  ( 1.000000000000000000, 0.000000000000000000, 0.000000000000000000 ) ) ;
#40 = DIRECTION ( 'NONE',  ( 0.000000000000000000, 0.000000000000000000, 1.000000000000000000 ) ) ;
#41 = CIRCLE ( 'NONE', #8, 4.000000000000000000 ) ;
#42 = CIRCLE ( 'NONE', #123, 4.000000000000000000 ) ;
#43 = AXIS2_PLACEMENT_3D ( 'NONE', #73, #40, #110 ) ;
#44 = VERTEX_POINT ( 'NONE', #119 ) ;
#45 = DIRECTION ( 'NONE',  ( -0.000000000000000000, -0.000000000000000000, -1.000000000000000000 ) ) ;
#46 = CARTESIAN_POINT ( 'NONE',  ( 4.000000000000000000, 4.898587196589412829E-16, 80.33499999999999375 ) ) ;
#47 = DIRECTION ( 'NONE',  ( 0.000000000000000000, 0.000000000000000000, 1.000000000000000000 ) ) ;
#48 = CARTESIAN_POINT ( 'NONE',  ( -4.000000000000000000, 0.000000000000000000, -80.33499999999999375 ) ) ;
#49 = PRODUCT_DEFINITION_CONTEXT ( 'detailed design', #109, 'design' ) ;
#50 = PRESENTATION_LAYER_ASSIGNMENT (  '', '', ( #12 ) ) ;
#51 = PRODUCT_DEFINITION_FORMATION_WITH_SPECIFIED_SOURCE ( 'ANY', '', #2, .NOT_KNOWN. ) ;
#52 = ORIENTED_EDGE ( 'NONE', *, *, #4, .F. ) ;
#53 =( NAMED_UNIT ( * ) PLANE_ANGLE_UNIT ( ) SI_UNIT ( $, .RADIAN. ) );
#54 = VECTOR ( 'NONE', #125, 1000.000000000000000 ) ;
#55 = CIRCLE ( 'NONE', #43, 4.000000000000000000 ) ;
#56 = ORIENTED_EDGE ( 'NONE', *, *, #4, .T. ) ;
#57 = EDGE_CURVE ( 'NONE', #44, #88, #41, .T. ) ;
#58 = APPLICATION_CONTEXT ( 'automotive_design' ) ;
#59 = DIRECTION ( 'NONE',  ( -1.000000000000000000, 0.000000000000000000, 0.000000000000000000 ) ) ;
#60 = DIRECTION ( 'NONE',  ( 1.000000000000000000, 0.000000000000000000, 0.000000000000000000 ) ) ;
#61 = FACE_OUTER_BOUND ( 'NONE', #68, .T. ) ;
#62 = APPLICATION_PROTOCOL_DEFINITION ( 'draft international standard', 'automotive_design', 1998, #109 ) ;
#63 = APPLICATION_PROTOCOL_DEFINITION ( 'draft international standard', 'automotive_design', 1998, #58 ) ;
#64 = MANIFOLD_SOLID_BREP ( 'Achse', #65 ) ;
#65 = CLOSED_SHELL ( 'NONE', ( #17, #107, #76, #72 ) ) ;
#66 = SURFACE_SIDE_STYLE ('',( #30 ) ) ;
#67 = ORIENTED_EDGE ( 'NONE', *, *, #116, .F. ) ;
#68 = EDGE_LOOP ( 'NONE', ( #103, #15, #56, #108 ) ) ;
#69 = ORIENTED_EDGE ( 'NONE', *, *, #79, .F. ) ;
#70 = PRODUCT_DEFINITION_SHAPE ( 'NONE', 'NONE',  #29 ) ;
#71 = DIRECTION ( 'NONE',  ( 0.000000000000000000, 0.000000000000000000, 1.000000000000000000 ) ) ;
#72 = ADVANCED_FACE ( 'NONE', ( #33 ), #95, .F. ) ;
#73 = CARTESIAN_POINT ( 'NONE',  ( 0.000000000000000000, 0.000000000000000000, -80.33499999999999375 ) ) ;
#74 = CARTESIAN_POINT ( 'NONE',  ( 4.000000000000000000, 4.898587196589412829E-16, 80.33499999999999375 ) ) ;
#75 = CARTESIAN_POINT ( 'NONE',  ( 0.000000000000000000, 0.000000000000000000, -80.33499999999999375 ) ) ;
#76 = ADVANCED_FACE ( 'NONE', ( #100 ), #80, .T. ) ;
#77 = EDGE_LOOP ( 'NONE', ( #25, #32, #36, #52 ) ) ;
#78 =( GEOMETRIC_REPRESENTATION_CONTEXT ( 3 ) GLOBAL_UNCERTAINTY_ASSIGNED_CONTEXT ( ( #94 ) ) GLOBAL_UNIT_ASSIGNED_CONTEXT ( ( #18, #91, #6 ) ) REPRESENTATION_CONTEXT ( 'NONE', 'WORKASPACE' ) );
#79 = EDGE_CURVE ( 'NONE', #106, #104, #55, .T. ) ;
#80 = PLANE ( 'NONE',  #22 ) ;
#81 = MECHANICAL_DESIGN_GEOMETRIC_PRESENTATION_REPRESENTATION (  '', ( #12 ), #90 ) ;
#82 = CARTESIAN_POINT ( 'NONE',  ( 0.000000000000000000, 0.000000000000000000, 80.33499999999999375 ) ) ;
#83 = EDGE_CURVE ( 'NONE', #88, #44, #42, .T. ) ;
#84 = CARTESIAN_POINT ( 'NONE',  ( 0.000000000000000000, 0.000000000000000000, 0.000000000000000000 ) ) ;
#85 = PRODUCT_RELATED_PRODUCT_CATEGORY ( 'part', '', ( #2 ) ) ;
#86 = AXIS2_PLACEMENT_3D ( 'NONE', #35, #5, #60 ) ;
#87 = EDGE_LOOP ( 'NONE', ( #69, #67 ) ) ;
#88 = VERTEX_POINT ( 'NONE', #74 ) ;
#89 = PRODUCT_CONTEXT ( 'NONE', #58, 'mechanical' ) ;
#90 =( GEOMETRIC_REPRESENTATION_CONTEXT ( 3 ) GLOBAL_UNCERTAINTY_ASSIGNED_CONTEXT ( ( #20 ) ) GLOBAL_UNIT_ASSIGNED_CONTEXT ( ( #11, #53, #34 ) ) REPRESENTATION_CONTEXT ( 'NONE', 'WORKASPACE' ) );
#91 =( NAMED_UNIT ( * ) PLANE_ANGLE_UNIT ( ) SI_UNIT ( $, .RADIAN. ) );
#92 = DIRECTION ( 'NONE',  ( -1.000000000000000000, 0.000000000000000000, 0.000000000000000000 ) ) ;
#93 = COLOUR_RGB ( '',0.7921568627450980005, 0.8196078431372548767, 0.9333333333333333481 ) ;
#94 = UNCERTAINTY_MEASURE_WITH_UNIT (LENGTH_MEASURE( 1.000000000000000082E-05 ), #18, 'distance_accuracy_value', 'NONE');
#95 = PLANE ( 'NONE',  #105 ) ;
#96 = LINE ( 'NONE', #46, #54 ) ;
#97 = ORIENTED_EDGE ( 'NONE', *, *, #83, .T. ) ;
#98 = CYLINDRICAL_SURFACE ( 'NONE', #10, 4.000000000000000000 ) ;
#99 = CARTESIAN_POINT ( 'NONE',  ( 0.000000000000000000, 0.000000000000000000, 80.33499999999999375 ) ) ;
#100 = FACE_OUTER_BOUND ( 'NONE', #13, .T. ) ;
#101 = SHAPE_DEFINITION_REPRESENTATION ( #70, #28 ) ;
#102 = AXIS2_PLACEMENT_3D ( 'NONE', #84, #111, #27 ) ;
#103 = ORIENTED_EDGE ( 'NONE', *, *, #9, .F. ) ;
#104 = VERTEX_POINT ( 'NONE', #112 ) ;
#105 = AXIS2_PLACEMENT_3D ( 'NONE', #75, #71, #19 ) ;
#106 = VERTEX_POINT ( 'NONE', #48 ) ;
#107 = ADVANCED_FACE ( 'NONE', ( #61 ), #98, .T. ) ;
#108 = ORIENTED_EDGE ( 'NONE', *, *, #79, .T. ) ;
#109 = APPLICATION_CONTEXT ( 'automotive_design' ) ;
#110 = DIRECTION ( 'NONE',  ( 1.000000000000000000, 0.000000000000000000, 0.000000000000000000 ) ) ;
#111 = DIRECTION ( 'NONE',  ( 0.000000000000000000, 0.000000000000000000, 1.000000000000000000 ) ) ;
#112 = CARTESIAN_POINT ( 'NONE',  ( 4.000000000000000000, 4.898587196589412829E-16, -80.33499999999999375 ) ) ;
#113 = DIRECTION ( 'NONE',  ( 0.000000000000000000, 0.000000000000000000, 1.000000000000000000 ) ) ;
#114 = AXIS2_PLACEMENT_3D ( 'NONE', #14, #45, #59 ) ;
#115 = FILL_AREA_STYLE ('',( #1 ) ) ;
#116 = EDGE_CURVE ( 'NONE', #104, #106, #122, .T. ) ;
#117 = PRESENTATION_STYLE_ASSIGNMENT (( #37 ) ) ;
#118 = CARTESIAN_POINT ( 'NONE',  ( 0.000000000000000000, 0.000000000000000000, 80.33499999999999375 ) ) ;
#119 = CARTESIAN_POINT ( 'NONE',  ( -4.000000000000000000, 0.000000000000000000, 80.33499999999999375 ) ) ;
#120 = DIRECTION ( 'NONE',  ( 1.000000000000000000, 0.000000000000000000, 0.000000000000000000 ) ) ;
#121 = CARTESIAN_POINT ( 'NONE',  ( 0.000000000000000000, 0.000000000000000000, 80.33499999999999375 ) ) ;
#122 = CIRCLE ( 'NONE', #86, 4.000000000000000000 ) ;
#123 = AXIS2_PLACEMENT_3D ( 'NONE', #82, #47, #120 ) ;
#124 = ORIENTED_EDGE ( 'NONE', *, *, #57, .T. ) ;
#125 = DIRECTION ( 'NONE',  ( -0.000000000000000000, -0.000000000000000000, -1.000000000000000000 ) ) ;
ENDSEC;
END-ISO-10303-21;
