ISO-10303-21;
HEADER;
FILE_DESCRIPTION (( 'STEP AP214' ),
    '1' );
FILE_NAME ('Roller.STEP',
    '2024-02-06T19:35:11',
    ( '' ),
    ( '' ),
    'SwSTEP 2.0',
    'SolidWorks 2023',
    '' );
FILE_SCHEMA (( 'AUTOMOTIVE_DESIGN' ));
ENDSEC;

DATA;
#1 = ORIENTED_EDGE ( 'NONE', *, *, #775, .F. ) ;
#2 = AXIS2_PLACEMENT_3D ( 'NONE', #198, #470, #561 ) ;
#3 = DIRECTION ( 'NONE',  ( 0.000000000000000000, 0.000000000000000000, 1.000000000000000000 ) ) ;
#4 = ADVANCED_FACE ( 'NONE', ( #1007 ), #370, .T. ) ;
#5 = DIRECTION ( 'NONE',  ( 0.000000000000000000, 0.000000000000000000, -1.000000000000000000 ) ) ;
#6 = EDGE_CURVE ( 'NONE', #364, #1173, #646, .T. ) ;
#7 = DIRECTION ( 'NONE',  ( 8.659560562355112817E-17, -0.7071067811865328068, 0.7071067811865622277 ) ) ;
#8 = DIRECTION ( 'NONE',  ( 0.000000000000000000, 0.000000000000000000, 1.000000000000000000 ) ) ;
#9 = PRODUCT_RELATED_PRODUCT_CATEGORY ( 'part', '', ( #997 ) ) ;
#10 = ORIENTED_EDGE ( 'NONE', *, *, #453, .F. ) ;
#11 = CARTESIAN_POINT ( 'NONE',  ( 0.000000000000000000, -30.00000000000000000, -11.05000000000000071 ) ) ;
#12 = DIRECTION ( 'NONE',  ( 0.000000000000000000, -1.000000000000000000, 0.000000000000000000 ) ) ;
#13 = DIRECTION ( 'NONE',  ( 0.000000000000000000, -1.000000000000000000, 0.000000000000000000 ) ) ;
#14 = CARTESIAN_POINT ( 'NONE',  ( 0.000000000000000000, -34.75000000000000711, 0.000000000000000000 ) ) ;
#15 = EDGE_CURVE ( 'NONE', #1035, #551, #407, .T. ) ;
#16 = ORIENTED_EDGE ( 'NONE', *, *, #900, .T. ) ;
#17 = FACE_OUTER_BOUND ( 'NONE', #710, .T. ) ;
#18 = CYLINDRICAL_SURFACE ( 'NONE', #316, 11.05000000000000071 ) ;
#19 = APPLICATION_CONTEXT ( 'automotive_design' ) ;
#20 = DIRECTION ( 'NONE',  ( 8.659560562354752899E-17, 0.7071067811865622277, -0.7071067811865328068 ) ) ;
#21 = LINE ( 'NONE', #583, #139 ) ;
#22 = AXIS2_PLACEMENT_3D ( 'NONE', #674, #680, #491 ) ;
#23 =( NAMED_UNIT ( * ) PLANE_ANGLE_UNIT ( ) SI_UNIT ( $, .RADIAN. ) );
#24 = FACE_OUTER_BOUND ( 'NONE', #549, .T. ) ;
#25 = AXIS2_PLACEMENT_3D ( 'NONE', #206, #212, #494 ) ;
#26 = CARTESIAN_POINT ( 'NONE',  ( 0.000000000000000000, -27.74999999999998934, 0.000000000000000000 ) ) ;
#27 = DIRECTION ( 'NONE',  ( -0.000000000000000000, -1.000000000000000000, -0.000000000000000000 ) ) ;
#28 = ADVANCED_FACE ( 'NONE', ( #743 ), #185, .T. ) ;
#29 =( GEOMETRIC_REPRESENTATION_CONTEXT ( 3 ) GLOBAL_UNCERTAINTY_ASSIGNED_CONTEXT ( ( #163 ) ) GLOBAL_UNIT_ASSIGNED_CONTEXT ( ( #1168, #23, #125 ) ) REPRESENTATION_CONTEXT ( 'NONE', 'WORKASPACE' ) );
#30 = LINE ( 'NONE', #576, #296 ) ;
#31 = FACE_OUTER_BOUND ( 'NONE', #544, .T. ) ;
#32 = DIRECTION ( 'NONE',  ( 0.000000000000000000, 0.000000000000000000, 1.000000000000000000 ) ) ;
#33 = AXIS2_PLACEMENT_3D ( 'NONE', #245, #330, #604 ) ;
#34 = CARTESIAN_POINT ( 'NONE',  ( 0.000000000000000000, -27.74999999999998934, 0.000000000000000000 ) ) ;
#35 = FACE_OUTER_BOUND ( 'NONE', #632, .T. ) ;
#36 = DIRECTION ( 'NONE',  ( 0.000000000000000000, 0.000000000000000000, 1.000000000000000000 ) ) ;
#37 = VERTEX_POINT ( 'NONE', #1014 ) ;
#38 = ORIENTED_EDGE ( 'NONE', *, *, #966, .T. ) ;
#39 = DIRECTION ( 'NONE',  ( 0.000000000000000000, 0.000000000000000000, 1.000000000000000000 ) ) ;
#40 = EDGE_CURVE ( 'NONE', #500, #336, #942, .T. ) ;
#41 = AXIS2_PLACEMENT_3D ( 'NONE', #614, #784, #1046 ) ;
#42 = CARTESIAN_POINT ( 'NONE',  ( 0.000000000000000000, 34.99999999999999289, 0.000000000000000000 ) ) ;
#43 = EDGE_CURVE ( 'NONE', #356, #37, #116, .T. ) ;
#44 = STYLED_ITEM ( 'NONE', ( #834 ), #825 ) ;
#45 = VERTEX_POINT ( 'NONE', #505 ) ;
#46 = ORIENTED_EDGE ( 'NONE', *, *, #630, .T. ) ;
#47 = DIRECTION ( 'NONE',  ( 0.000000000000000000, 0.000000000000000000, 1.000000000000000000 ) ) ;
#48 = ORIENTED_EDGE ( 'NONE', *, *, #792, .T. ) ;
#49 = EDGE_CURVE ( 'NONE', #717, #45, #735, .T. ) ;
#50 = VECTOR ( 'NONE', #805, 1000.000000000000114 ) ;
#51 = DIRECTION ( 'NONE',  ( 0.000000000000000000, 0.000000000000000000, -1.000000000000000000 ) ) ;
#52 = CARTESIAN_POINT ( 'NONE',  ( 1.990051048614449313E-15, 50.32184154300224321, -16.25000000000000000 ) ) ;
#53 = ORIENTED_EDGE ( 'NONE', *, *, #1133, .T. ) ;
#54 = DIRECTION ( 'NONE',  ( 0.000000000000000000, 0.000000000000000000, -1.000000000000000000 ) ) ;
#55 = CARTESIAN_POINT ( 'NONE',  ( 0.000000000000000000, 37.00000000000000000, 0.000000000000000000 ) ) ;
#56 = ORIENTED_EDGE ( 'NONE', *, *, #426, .F. ) ;
#57 = PRESENTATION_LAYER_ASSIGNMENT (  '', '', ( #44 ) ) ;
#58 = VECTOR ( 'NONE', #593, 1000.000000000000000 ) ;
#59 = ORIENTED_EDGE ( 'NONE', *, *, #257, .F. ) ;
#60 = DIRECTION ( 'NONE',  ( -0.000000000000000000, -1.000000000000000000, -0.000000000000000000 ) ) ;
#61 = CARTESIAN_POINT ( 'NONE',  ( 0.000000000000000000, 37.00000000000000000, -13.25000000000000178 ) ) ;
#62 = ORIENTED_EDGE ( 'NONE', *, *, #457, .F. ) ;
#63 = VECTOR ( 'NONE', #1144, 1000.000000000000000 ) ;
#64 = ORIENTED_EDGE ( 'NONE', *, *, #368, .F. ) ;
#65 = DIRECTION ( 'NONE',  ( 0.000000000000000000, 0.000000000000000000, -1.000000000000000000 ) ) ;
#66 = DIRECTION ( 'NONE',  ( -0.000000000000000000, 1.000000000000000000, -0.000000000000000000 ) ) ;
#67 = AXIS2_PLACEMENT_3D ( 'NONE', #820, #746, #373 ) ;
#68 = ORIENTED_EDGE ( 'NONE', *, *, #209, .F. ) ;
#69 = EDGE_CURVE ( 'NONE', #861, #1179, #509, .T. ) ;
#70 = CONICAL_SURFACE ( 'NONE', #22, 15.99999999999999289, 0.7853981633974482790 ) ;
#71 = EDGE_LOOP ( 'NONE', ( #62, #696, #640, #882 ) ) ;
#72 = CARTESIAN_POINT ( 'NONE',  ( 0.000000000000000000, 34.99999999999999289, 16.25000000000000000 ) ) ;
#73 = DIRECTION ( 'NONE',  ( -0.000000000000000000, -1.000000000000000000, -0.000000000000000000 ) ) ;
#74 = DIRECTION ( 'NONE',  ( -0.000000000000000000, 1.000000000000000000, -0.000000000000000000 ) ) ;
#75 = ORIENTED_EDGE ( 'NONE', *, *, #688, .T. ) ;
#76 = AXIS2_PLACEMENT_3D ( 'NONE', #941, #677, #842 ) ;
#77 = EDGE_CURVE ( 'NONE', #783, #382, #21, .T. ) ;
#78 = AXIS2_PLACEMENT_3D ( 'NONE', #548, #905, #479 ) ;
#79 = ORIENTED_EDGE ( 'NONE', *, *, #478, .T. ) ;
#80 = CARTESIAN_POINT ( 'NONE',  ( 0.000000000000000000, -37.00000000000000000, 16.00000000000000711 ) ) ;
#81 = DIRECTION ( 'NONE',  ( -0.000000000000000000, 1.000000000000000000, -0.000000000000000000 ) ) ;
#82 = ORIENTED_EDGE ( 'NONE', *, *, #1056, .F. ) ;
#83 = CIRCLE ( 'NONE', #719, 11.05000000000000071 ) ;
#84 = EDGE_CURVE ( 'NONE', #1137, #273, #1125, .T. ) ;
#85 = ORIENTED_EDGE ( 'NONE', *, *, #457, .T. ) ;
#86 = FACE_OUTER_BOUND ( 'NONE', #1002, .T. ) ;
#87 = DIRECTION ( 'NONE',  ( 0.000000000000000000, 0.000000000000000000, -1.000000000000000000 ) ) ;
#88 = DIRECTION ( 'NONE',  ( 0.000000000000000000, 1.000000000000000000, 0.000000000000000000 ) ) ;
#89 = EDGE_LOOP ( 'NONE', ( #1148, #460, #335, #693 ) ) ;
#90 = EDGE_LOOP ( 'NONE', ( #835, #611, #284, #68 ) ) ;
#91 = CARTESIAN_POINT ( 'NONE',  ( 0.000000000000000000, -27.74999999999998934, -13.25000000000000178 ) ) ;
#92 = DIRECTION ( 'NONE',  ( 0.000000000000000000, -1.000000000000000000, 0.000000000000000000 ) ) ;
#93 = CARTESIAN_POINT ( 'NONE',  ( 0.000000000000000000, 50.32184154300224321, 16.25000000000000000 ) ) ;
#94 = DIRECTION ( 'NONE',  ( 0.000000000000000000, 0.000000000000000000, 1.000000000000000000 ) ) ;
#95 = CIRCLE ( 'NONE', #200, 13.49999999999999822 ) ;
#96 = VERTEX_POINT ( 'NONE', #393 ) ;
#97 = AXIS2_PLACEMENT_3D ( 'NONE', #850, #216, #485 ) ;
#98 = DIRECTION ( 'NONE',  ( 0.000000000000000000, 0.000000000000000000, 1.000000000000000000 ) ) ;
#99 = FACE_OUTER_BOUND ( 'NONE', #350, .T. ) ;
#100 = FACE_OUTER_BOUND ( 'NONE', #967, .T. ) ;
#101 = DIRECTION ( 'NONE',  ( 0.000000000000000000, -1.000000000000000000, 0.000000000000000000 ) ) ;
#102 = EDGE_CURVE ( 'NONE', #1102, #162, #354, .T. ) ;
#103 = ORIENTED_EDGE ( 'NONE', *, *, #586, .F. ) ;
#104 = CARTESIAN_POINT ( 'NONE',  ( 1.990051048614449313E-15, 35.25000000000000711, -16.25000000000000000 ) ) ;
#105 = DIRECTION ( 'NONE',  ( 0.000000000000000000, 0.000000000000000000, -1.000000000000000000 ) ) ;
#106 = DIRECTION ( 'NONE',  ( 0.000000000000000000, 0.000000000000000000, -1.000000000000000000 ) ) ;
#107 = DIRECTION ( 'NONE',  ( 0.000000000000000000, 0.000000000000000000, 1.000000000000000000 ) ) ;
#108 = VECTOR ( 'NONE', #1055, 1000.000000000000000 ) ;
#109 = ADVANCED_FACE ( 'NONE', ( #400, #411 ), #766, .T. ) ;
#110 = ORIENTED_EDGE ( 'NONE', *, *, #1140, .F. ) ;
#111 = CARTESIAN_POINT ( 'NONE',  ( 0.000000000000000000, -36.75000000000000711, 0.000000000000000000 ) ) ;
#112 = ADVANCED_FACE ( 'NONE', ( #217, #320 ), #930, .T. ) ;
#113 = VECTOR ( 'NONE', #1111, 1000.000000000000000 ) ;
#114 = EDGE_CURVE ( 'NONE', #925, #745, #847, .T. ) ;
#115 = LINE ( 'NONE', #313, #113 ) ;
#116 = CIRCLE ( 'NONE', #547, 13.25000000000000178 ) ;
#117 = LINE ( 'NONE', #765, #810 ) ;
#118 = DIRECTION ( 'NONE',  ( -0.000000000000000000, 1.000000000000000000, 0.000000000000000000 ) ) ;
#119 = DIRECTION ( 'NONE',  ( -0.000000000000000000, -1.000000000000000000, -0.000000000000000000 ) ) ;
#120 = CONICAL_SURFACE ( 'NONE', #1071, 13.25000000000000178, 0.7853981633974691512 ) ;
#121 = FILL_AREA_STYLE_COLOUR ( '', #866 ) ;
#122 = CARTESIAN_POINT ( 'NONE',  ( 0.000000000000000000, 37.00000000000000000, 0.000000000000000000 ) ) ;
#123 = AXIS2_PLACEMENT_3D ( 'NONE', #798, #353, #964 ) ;
#124 = EDGE_CURVE ( 'NONE', #773, #1091, #1087, .T. ) ;
#125 =( NAMED_UNIT ( * ) SI_UNIT ( $, .STERADIAN. ) SOLID_ANGLE_UNIT ( ) );
#126 = EDGE_CURVE ( 'NONE', #745, #913, #846, .T. ) ;
#127 = CIRCLE ( 'NONE', #893, 16.00000000000000711 ) ;
#128 = ORIENTED_EDGE ( 'NONE', *, *, #84, .F. ) ;
#129 = DIRECTION ( 'NONE',  ( -0.000000000000000000, 1.000000000000000000, -0.000000000000000000 ) ) ;
#130 = PLANE ( 'NONE',  #285 ) ;
#131 = DIRECTION ( 'NONE',  ( 0.000000000000000000, 0.000000000000000000, 1.000000000000000000 ) ) ;
#132 = CONICAL_SURFACE ( 'NONE', #67, 16.25000000000000000, 0.7853981633974482790 ) ;
#133 = EDGE_CURVE ( 'NONE', #557, #1142, #1063, .T. ) ;
#134 = AXIS2_PLACEMENT_3D ( 'NONE', #779, #232, #1130 ) ;
#135 = ORIENTED_EDGE ( 'NONE', *, *, #256, .F. ) ;
#136 = EDGE_CURVE ( 'NONE', #962, #861, #1032, .T. ) ;
#137 = ORIENTED_EDGE ( 'NONE', *, *, #1085, .F. ) ;
#138 = DIRECTION ( 'NONE',  ( 0.000000000000000000, 0.000000000000000000, -1.000000000000000000 ) ) ;
#139 = VECTOR ( 'NONE', #1038, 999.9999999999998863 ) ;
#140 = FACE_OUTER_BOUND ( 'NONE', #715, .T. ) ;
#141 = CONICAL_SURFACE ( 'NONE', #78, 13.49999999999998401, 0.7853981633974275178 ) ;
#142 = ADVANCED_FACE ( 'NONE', ( #946 ), #229, .T. ) ;
#143 = ORIENTED_EDGE ( 'NONE', *, *, #340, .T. ) ;
#144 = ORIENTED_EDGE ( 'NONE', *, *, #346, .T. ) ;
#145 = DIRECTION ( 'NONE',  ( 0.000000000000000000, -0.7071067811865573427, -0.7071067811865378028 ) ) ;
#146 = LINE ( 'NONE', #61, #933 ) ;
#147 = CIRCLE ( 'NONE', #852, 7.000000000000000888 ) ;
#148 = ORIENTED_EDGE ( 'NONE', *, *, #84, .T. ) ;
#149 = CONICAL_SURFACE ( 'NONE', #818, 15.99999999999999289, 0.7853981633974482790 ) ;
#150 = EDGE_LOOP ( 'NONE', ( #79, #662, #626, #242 ) ) ;
#151 = DIRECTION ( 'NONE',  ( -0.000000000000000000, 1.000000000000000000, -0.000000000000000000 ) ) ;
#152 = CARTESIAN_POINT ( 'NONE',  ( 0.000000000000000000, 30.00000000000000000, 0.000000000000000000 ) ) ;
#153 = AXIS2_PLACEMENT_3D ( 'NONE', #713, #455, #657 ) ;
#154 = VERTEX_POINT ( 'NONE', #498 ) ;
#155 = DIRECTION ( 'NONE',  ( 8.659560562354932858E-17, -0.7071067811865474617, 0.7071067811865474617 ) ) ;
#156 = FACE_OUTER_BOUND ( 'NONE', #231, .T. ) ;
#157 = ORIENTED_EDGE ( 'NONE', *, *, #357, .F. ) ;
#158 = ORIENTED_EDGE ( 'NONE', *, *, #413, .T. ) ;
#159 = DIRECTION ( 'NONE',  ( 0.000000000000000000, 0.000000000000000000, -1.000000000000000000 ) ) ;
#160 = CARTESIAN_POINT ( 'NONE',  ( 1.622657008870243277E-15, -27.74999999999998934, 13.25000000000000178 ) ) ;
#161 = EDGE_CURVE ( 'NONE', #273, #1137, #590, .T. ) ;
#162 = VERTEX_POINT ( 'NONE', #405 ) ;
#163 = UNCERTAINTY_MEASURE_WITH_UNIT (LENGTH_MEASURE( 1.000000000000000082E-05 ), #1168, 'distance_accuracy_value', 'NONE');
#164 = EDGE_CURVE ( 'NONE', #45, #717, #95, .T. ) ;
#165 = ADVANCED_BREP_SHAPE_REPRESENTATION ( 'Roller', ( #825, #552 ), #29 ) ;
#166 = ORIENTED_EDGE ( 'NONE', *, *, #688, .F. ) ;
#167 = ADVANCED_FACE ( 'NONE', ( #771 ), #1126, .T. ) ;
#168 = CARTESIAN_POINT ( 'NONE',  ( 0.000000000000000000, -30.00000000000000000, 0.000000000000000000 ) ) ;
#169 = ADVANCED_FACE ( 'NONE', ( #1114 ), #774, .T. ) ;
#170 = CARTESIAN_POINT ( 'NONE',  ( 8.572527594031474176E-16, 30.00000000000000000, -7.000000000000000888 ) ) ;
#171 = LINE ( 'NONE', #262, #961 ) ;
#172 = ORIENTED_EDGE ( 'NONE', *, *, #15, .T. ) ;
#173 = ADVANCED_FACE ( 'NONE', ( #708 ), #441, .F. ) ;
#174 = VECTOR ( 'NONE', #73, 1000.000000000000000 ) ;
#175 = VERTEX_POINT ( 'NONE', #160 ) ;
#176 = DIRECTION ( 'NONE',  ( -0.000000000000000000, 1.000000000000000000, -0.000000000000000000 ) ) ;
#177 = DIRECTION ( 'NONE',  ( 0.000000000000000000, 0.000000000000000000, -1.000000000000000000 ) ) ;
#178 = CARTESIAN_POINT ( 'NONE',  ( 0.000000000000000000, -34.99999999999999289, 16.25000000000000000 ) ) ;
#179 = ORIENTED_EDGE ( 'NONE', *, *, #1169, .T. ) ;
#180 = AXIS2_PLACEMENT_3D ( 'NONE', #730, #1084, #94 ) ;
#181 = ORIENTED_EDGE ( 'NONE', *, *, #136, .F. ) ;
#182 = DIRECTION ( 'NONE',  ( -0.000000000000000000, 1.000000000000000000, -0.000000000000000000 ) ) ;
#183 = FACE_OUTER_BOUND ( 'NONE', #1174, .T. ) ;
#184 = CARTESIAN_POINT ( 'NONE',  ( 0.000000000000000000, -37.00000000000000711, 0.000000000000000000 ) ) ;
#185 = CYLINDRICAL_SURFACE ( 'NONE', #697, 13.25000000000000178 ) ;
#186 = AXIS2_PLACEMENT_3D ( 'NONE', #333, #1045, #51 ) ;
#187 = ORIENTED_EDGE ( 'NONE', *, *, #1118, .T. ) ;
#188 = EDGE_CURVE ( 'NONE', #332, #913, #960, .T. ) ;
#189 = DIRECTION ( 'NONE',  ( 0.000000000000000000, 0.000000000000000000, -1.000000000000000000 ) ) ;
#190 = FACE_OUTER_BOUND ( 'NONE', #452, .T. ) ;
#191 = FACE_OUTER_BOUND ( 'NONE', #201, .T. ) ;
#192 = CARTESIAN_POINT ( 'NONE',  ( 0.000000000000000000, 37.00000000000000000, 0.000000000000000000 ) ) ;
#193 = CONICAL_SURFACE ( 'NONE', #292, 15.99999999999999289, 0.7853981633974346233 ) ;
#194 = ORIENTED_EDGE ( 'NONE', *, *, #605, .F. ) ;
#195 = AXIS2_PLACEMENT_3D ( 'NONE', #567, #920, #832 ) ;
#196 = DIRECTION ( 'NONE',  ( 0.000000000000000000, 0.000000000000000000, -1.000000000000000000 ) ) ;
#197 = CARTESIAN_POINT ( 'NONE',  ( 1.653273178848924106E-15, -29.99999999999999289, -13.49999999999997691 ) ) ;
#198 = CARTESIAN_POINT ( 'NONE',  ( 0.000000000000000000, -29.99999999999999289, 0.000000000000000000 ) ) ;
#199 = EDGE_LOOP ( 'NONE', ( #1021, #187, #831, #1059 ) ) ;
#200 = AXIS2_PLACEMENT_3D ( 'NONE', #599, #952, #107 ) ;
#201 = EDGE_LOOP ( 'NONE', ( #372, #137, #602, #246 ) ) ;
#202 = AXIS2_PLACEMENT_3D ( 'NONE', #1097, #74, #381 ) ;
#203 = LINE ( 'NONE', #384, #563 ) ;
#204 = DIRECTION ( 'NONE',  ( -0.000000000000000000, 1.000000000000000000, -0.000000000000000000 ) ) ;
#205 = DIRECTION ( 'NONE',  ( -0.000000000000000000, 1.000000000000000000, -0.000000000000000000 ) ) ;
#206 = CARTESIAN_POINT ( 'NONE',  ( 0.000000000000000000, -30.00000000000000000, 0.000000000000000000 ) ) ;
#207 = ADVANCED_FACE ( 'NONE', ( #156 ), #499, .T. ) ;
#208 = VERTEX_POINT ( 'NONE', #790 ) ;
#209 = EDGE_CURVE ( 'NONE', #783, #356, #146, .T. ) ;
#210 = CIRCLE ( 'NONE', #186, 13.25000000000000178 ) ;
#211 = FACE_OUTER_BOUND ( 'NONE', #150, .T. ) ;
#212 = DIRECTION ( 'NONE',  ( 0.000000000000000000, -1.000000000000000000, 0.000000000000000000 ) ) ;
#213 = CONICAL_SURFACE ( 'NONE', #764, 13.49999999999998401, 0.7853981633974275178 ) ;
#214 = EDGE_CURVE ( 'NONE', #336, #500, #462, .T. ) ;
#215 = DIRECTION ( 'NONE',  ( -0.000000000000000000, 1.000000000000000000, -0.000000000000000000 ) ) ;
#216 = DIRECTION ( 'NONE',  ( 0.000000000000000000, -1.000000000000000000, 0.000000000000000000 ) ) ;
#217 = FACE_OUTER_BOUND ( 'NONE', #1022, .T. ) ;
#218 = VECTOR ( 'NONE', #1115, 1000.000000000000114 ) ;
#219 = EDGE_CURVE ( 'NONE', #666, #439, #312, .T. ) ;
#220 = DIRECTION ( 'NONE',  ( 0.000000000000000000, -1.000000000000000000, 0.000000000000000000 ) ) ;
#221 = VECTOR ( 'NONE', #7, 1000.000000000000000 ) ;
#222 = DIRECTION ( 'NONE',  ( 0.000000000000000000, -1.000000000000000000, 0.000000000000000000 ) ) ;
#223 = DIRECTION ( 'NONE',  ( -0.000000000000000000, 1.000000000000000000, -0.000000000000000000 ) ) ;
#224 = EDGE_CURVE ( 'NONE', #703, #430, #1151, .T. ) ;
#225 = ORIENTED_EDGE ( 'NONE', *, *, #77, .F. ) ;
#226 = FACE_OUTER_BOUND ( 'NONE', #993, .T. ) ;
#227 = EDGE_CURVE ( 'NONE', #819, #236, #417, .T. ) ;
#228 = CARTESIAN_POINT ( 'NONE',  ( 1.353234713057825478E-15, -30.00000000000000000, 11.05000000000000071 ) ) ;
#229 = CYLINDRICAL_SURFACE ( 'NONE', #572, 13.25000000000000178 ) ;
#230 = EDGE_LOOP ( 'NONE', ( #526, #412 ) ) ;
#231 = EDGE_LOOP ( 'NONE', ( #406, #867, #535, #1066 ) ) ;
#232 = DIRECTION ( 'NONE',  ( -0.000000000000000000, 1.000000000000000000, -0.000000000000000000 ) ) ;
#233 = EDGE_CURVE ( 'NONE', #1102, #1142, #1150, .T. ) ;
#234 = CARTESIAN_POINT ( 'NONE',  ( 0.000000000000000000, -37.00000000000000711, 0.000000000000000000 ) ) ;
#235 = AXIS2_PLACEMENT_3D ( 'NONE', #684, #949, #853 ) ;
#236 = VERTEX_POINT ( 'NONE', #421 ) ;
#237 = ORIENTED_EDGE ( 'NONE', *, *, #69, .T. ) ;
#238 = DIRECTION ( 'NONE',  ( 0.000000000000000000, -1.000000000000000000, 0.000000000000000000 ) ) ;
#239 = AXIS2_PLACEMENT_3D ( 'NONE', #315, #936, #489 ) ;
#240 = DIRECTION ( 'NONE',  ( 0.000000000000000000, 0.000000000000000000, 1.000000000000000000 ) ) ;
#241 = AXIS2_PLACEMENT_3D ( 'NONE', #1090, #88, #1076 ) ;
#242 = ORIENTED_EDGE ( 'NONE', *, *, #689, .F. ) ;
#243 = VERTEX_POINT ( 'NONE', #415 ) ;
#244 = CARTESIAN_POINT ( 'NONE',  ( 0.000000000000000000, 30.00000000000000000, 0.000000000000000000 ) ) ;
#245 = CARTESIAN_POINT ( 'NONE',  ( 0.000000000000000000, -29.75000000000001421, 0.000000000000000000 ) ) ;
#246 = ORIENTED_EDGE ( 'NONE', *, *, #224, .T. ) ;
#247 = VERTEX_POINT ( 'NONE', #1141 ) ;
#248 = DIRECTION ( 'NONE',  ( 0.000000000000000000, 0.000000000000000000, 1.000000000000000000 ) ) ;
#249 = LINE ( 'NONE', #624, #50 ) ;
#250 = AXIS2_PLACEMENT_3D ( 'NONE', #482, #1018, #636 ) ;
#251 = ORIENTED_EDGE ( 'NONE', *, *, #1030, .F. ) ;
#252 = CARTESIAN_POINT ( 'NONE',  ( 0.000000000000000000, 35.25000000000000711, 0.000000000000000000 ) ) ;
#253 = FACE_OUTER_BOUND ( 'NONE', #1062, .T. ) ;
#254 = AXIS2_PLACEMENT_3D ( 'NONE', #856, #397, #780 ) ;
#255 = ORIENTED_EDGE ( 'NONE', *, *, #586, .T. ) ;
#256 = EDGE_CURVE ( 'NONE', #439, #666, #582, .T. ) ;
#257 = EDGE_CURVE ( 'NONE', #336, #654, #249, .T. ) ;
#258 = ORIENTED_EDGE ( 'NONE', *, *, #219, .T. ) ;
#259 = DIRECTION ( 'NONE',  ( 0.000000000000000000, 0.000000000000000000, 1.000000000000000000 ) ) ;
#260 = LINE ( 'NONE', #1005, #522 ) ;
#261 = ADVANCED_FACE ( 'NONE', ( #253 ), #524, .F. ) ;
#262 = CARTESIAN_POINT ( 'NONE',  ( 0.000000000000000000, 37.00000000000000000, -13.25000000000000178 ) ) ;
#263 = ORIENTED_EDGE ( 'NONE', *, *, #931, .T. ) ;
#264 = PRODUCT_DEFINITION_CONTEXT ( 'detailed design', #757, 'design' ) ;
#265 = ORIENTED_EDGE ( 'NONE', *, *, #15, .F. ) ;
#266 = CYLINDRICAL_SURFACE ( 'NONE', #767, 16.25000000000000000 ) ;
#267 = VECTOR ( 'NONE', #1074, 1000.000000000000114 ) ;
#268 = DIRECTION ( 'NONE',  ( -0.000000000000000000, 1.000000000000000000, -0.000000000000000000 ) ) ;
#269 = EDGE_CURVE ( 'NONE', #175, #1072, #724, .T. ) ;
#270 = CARTESIAN_POINT ( 'NONE',  ( 0.000000000000000000, 30.00000000000000000, 0.000000000000000000 ) ) ;
#271 = ORIENTED_EDGE ( 'NONE', *, *, #69, .F. ) ;
#272 = AXIS2_PLACEMENT_3D ( 'NONE', #1040, #512, #39 ) ;
#273 = VERTEX_POINT ( 'NONE', #429 ) ;
#274 = CARTESIAN_POINT ( 'NONE',  ( 0.000000000000000000, -29.99999999999999289, 0.000000000000000000 ) ) ;
#275 = FACE_OUTER_BOUND ( 'NONE', #199, .T. ) ;
#276 = DIRECTION ( 'NONE',  ( -0.000000000000000000, 1.000000000000000000, -0.000000000000000000 ) ) ;
#277 = CARTESIAN_POINT ( 'NONE',  ( 0.000000000000000000, -27.99999999999999645, 0.000000000000000000 ) ) ;
#278 =( GEOMETRIC_REPRESENTATION_CONTEXT ( 3 ) GLOBAL_UNCERTAINTY_ASSIGNED_CONTEXT ( ( #642 ) ) GLOBAL_UNIT_ASSIGNED_CONTEXT ( ( #951, #1037, #1116 ) ) REPRESENTATION_CONTEXT ( 'NONE', 'WORKASPACE' ) );
#279 = AXIS2_PLACEMENT_3D ( 'NONE', #571, #924, #480 ) ;
#280 = ORIENTED_EDGE ( 'NONE', *, *, #298, .F. ) ;
#281 = PLANE ( 'NONE',  #804 ) ;
#282 = DIRECTION ( 'NONE',  ( 0.000000000000000000, 0.000000000000000000, 1.000000000000000000 ) ) ;
#283 = LINE ( 'NONE', #1083, #221 ) ;
#284 = ORIENTED_EDGE ( 'NONE', *, *, #426, .T. ) ;
#285 = AXIS2_PLACEMENT_3D ( 'NONE', #404, #770, #319 ) ;
#286 = ORIENTED_EDGE ( 'NONE', *, *, #161, .T. ) ;
#287 = DIRECTION ( 'NONE',  ( -0.000000000000000000, 1.000000000000000000, -0.000000000000000000 ) ) ;
#288 = CARTESIAN_POINT ( 'NONE',  ( 0.000000000000000000, -50.32184154300224321, 0.000000000000000000 ) ) ;
#289 = DIRECTION ( 'NONE',  ( -0.000000000000000000, 1.000000000000000000, -0.000000000000000000 ) ) ;
#290 = VECTOR ( 'NONE', #1068, 1000.000000000000114 ) ;
#291 = ORIENTED_EDGE ( 'NONE', *, *, #124, .F. ) ;
#292 = AXIS2_PLACEMENT_3D ( 'NONE', #558, #718, #189 ) ;
#293 = ORIENTED_EDGE ( 'NONE', *, *, #77, .T. ) ;
#294 = AXIS2_PLACEMENT_3D ( 'NONE', #908, #995, #3 ) ;
#295 = CARTESIAN_POINT ( 'NONE',  ( 0.000000000000000000, 34.75000000000000000, -13.25000000000000178 ) ) ;
#296 = VECTOR ( 'NONE', #1120, 1000.000000000000000 ) ;
#297 = CARTESIAN_POINT ( 'NONE',  ( 0.000000000000000000, -27.99999999999999645, 0.000000000000000000 ) ) ;
#298 = EDGE_CURVE ( 'NONE', #154, #364, #702, .T. ) ;
#299 = PLANE ( 'NONE',  #903 ) ;
#300 = DIRECTION ( 'NONE',  ( 0.000000000000000000, 0.000000000000000000, 1.000000000000000000 ) ) ;
#301 = ORIENTED_EDGE ( 'NONE', *, *, #973, .F. ) ;
#302 = AXIS2_PLACEMENT_3D ( 'NONE', #270, #812, #830 ) ;
#303 = EDGE_CURVE ( 'NONE', #154, #1146, #1119, .T. ) ;
#304 = FACE_OUTER_BOUND ( 'NONE', #71, .T. ) ;
#305 = EDGE_CURVE ( 'NONE', #750, #247, #616, .T. ) ;
#306 = SURFACE_SIDE_STYLE ('',( #681 ) ) ;
#307 = DIRECTION ( 'NONE',  ( 0.000000000000000000, 0.000000000000000000, -1.000000000000000000 ) ) ;
#308 = CIRCLE ( 'NONE', #628, 11.05000000000000071 ) ;
#309 = CARTESIAN_POINT ( 'NONE',  ( 0.000000000000000000, -34.99999999999999289, -15.99999999999999289 ) ) ;
#310 = DIRECTION ( 'NONE',  ( -0.000000000000000000, 1.000000000000000000, -0.000000000000000000 ) ) ;
#311 = CARTESIAN_POINT ( 'NONE',  ( 0.000000000000000000, 34.99999999999999289, 0.000000000000000000 ) ) ;
#312 = CIRCLE ( 'NONE', #1077, 16.00000000000000711 ) ;
#313 = CARTESIAN_POINT ( 'NONE',  ( -1.990051048614449313E-15, -50.32184154300224321, -16.25000000000000000 ) ) ;
#314 = CARTESIAN_POINT ( 'NONE',  ( 1.653273178848924895E-15, 34.99999999999999289, -13.49999999999998401 ) ) ;
#315 = CARTESIAN_POINT ( 'NONE',  ( 0.000000000000000000, 30.00000000000000000, 0.000000000000000000 ) ) ;
#316 = AXIS2_PLACEMENT_3D ( 'NONE', #1036, #119, #935 ) ;
#317 = CYLINDRICAL_SURFACE ( 'NONE', #235, 13.25000000000000178 ) ;
#318 = CIRCLE ( 'NONE', #410, 16.25000000000000000 ) ;
#319 = DIRECTION ( 'NONE',  ( 0.000000000000000000, -0.000000000000000000, 1.000000000000000000 ) ) ;
#320 = FACE_BOUND ( 'NONE', #953, .T. ) ;
#321 = VERTEX_POINT ( 'NONE', #957 ) ;
#322 = ADVANCED_FACE ( 'NONE', ( #140 ), #800, .T. ) ;
#323 = ORIENTED_EDGE ( 'NONE', *, *, #124, .T. ) ;
#324 = CARTESIAN_POINT ( 'NONE',  ( 0.000000000000000000, -29.75000000000001421, 0.000000000000000000 ) ) ;
#325 = DIRECTION ( 'NONE',  ( 0.000000000000000000, 0.000000000000000000, -1.000000000000000000 ) ) ;
#326 = ORIENTED_EDGE ( 'NONE', *, *, #329, .T. ) ;
#327 = VECTOR ( 'NONE', #1145, 1000.000000000000000 ) ;
#328 = ORIENTED_EDGE ( 'NONE', *, *, #928, .F. ) ;
#329 = EDGE_CURVE ( 'NONE', #649, #1142, #651, .T. ) ;
#330 = DIRECTION ( 'NONE',  ( -0.000000000000000000, 1.000000000000000000, -0.000000000000000000 ) ) ;
#331 = EDGE_LOOP ( 'NONE', ( #378, #442, #878, #10 ) ) ;
#332 = VERTEX_POINT ( 'NONE', #815 ) ;
#333 = CARTESIAN_POINT ( 'NONE',  ( 0.000000000000000000, 34.75000000000000000, 0.000000000000000000 ) ) ;
#334 = CARTESIAN_POINT ( 'NONE',  ( 0.000000000000000000, -37.00000000000000000, 0.000000000000000000 ) ) ;
#335 = ORIENTED_EDGE ( 'NONE', *, *, #752, .T. ) ;
#336 = VERTEX_POINT ( 'NONE', #833 ) ;
#337 = CYLINDRICAL_SURFACE ( 'NONE', #761, 16.25000000000000000 ) ;
#338 = CARTESIAN_POINT ( 'NONE',  ( 0.000000000000000000, -27.74999999999998934, 0.000000000000000000 ) ) ;
#339 = VECTOR ( 'NONE', #1054, 1000.000000000000000 ) ;
#340 = EDGE_CURVE ( 'NONE', #666, #236, #1096, .T. ) ;
#341 = ORIENTED_EDGE ( 'NONE', *, *, #298, .T. ) ;
#342 = ORIENTED_EDGE ( 'NONE', *, *, #673, .F. ) ;
#343 = FACE_OUTER_BOUND ( 'NONE', #1057, .T. ) ;
#344 = VECTOR ( 'NONE', #475, 1000.000000000000000 ) ;
#345 = CARTESIAN_POINT ( 'NONE',  ( 0.000000000000000000, -27.99999999999999645, 0.000000000000000000 ) ) ;
#346 = EDGE_CURVE ( 'NONE', #1137, #162, #260, .T. ) ;
#347 = ADVANCED_FACE ( 'NONE', ( #190 ), #213, .T. ) ;
#348 = EDGE_LOOP ( 'NONE', ( #467, #824 ) ) ;
#349 = ADVANCED_FACE ( 'NONE', ( #275 ), #912, .T. ) ;
#350 = EDGE_LOOP ( 'NONE', ( #59, #972, #864, #698 ) ) ;
#351 = EDGE_CURVE ( 'NONE', #96, #382, #1101, .T. ) ;
#352 = CARTESIAN_POINT ( 'NONE',  ( 1.622657008870243277E-15, 34.75000000000000000, 13.25000000000000178 ) ) ;
#353 = DIRECTION ( 'NONE',  ( -0.000000000000000000, 1.000000000000000000, -0.000000000000000000 ) ) ;
#354 = CIRCLE ( 'NONE', #76, 16.25000000000000000 ) ;
#355 = DIRECTION ( 'NONE',  ( 0.000000000000000000, -0.7071067811865474617, -0.7071067811865474617 ) ) ;
#356 = VERTEX_POINT ( 'NONE', #463 ) ;
#357 = EDGE_CURVE ( 'NONE', #1142, #557, #1172, .T. ) ;
#358 = ORIENTED_EDGE ( 'NONE', *, *, #233, .T. ) ;
#359 = CARTESIAN_POINT ( 'NONE',  ( 0.000000000000000000, -37.00000000000000000, 0.000000000000000000 ) ) ;
#360 = DIRECTION ( 'NONE',  ( 0.000000000000000000, -1.000000000000000000, 0.000000000000000000 ) ) ;
#361 = CARTESIAN_POINT ( 'NONE',  ( 0.000000000000000000, -36.75000000000000711, 0.000000000000000000 ) ) ;
#362 = EDGE_LOOP ( 'NONE', ( #608, #1 ) ) ;
#363 = AXIS2_PLACEMENT_3D ( 'NONE', #244, #888, #977 ) ;
#364 = VERTEX_POINT ( 'NONE', #915 ) ;
#365 = DIRECTION ( 'NONE',  ( 0.000000000000000000, 1.000000000000000000, 0.000000000000000000 ) ) ;
#366 = AXIS2_PLACEMENT_3D ( 'NONE', #380, #741, #554 ) ;
#367 = DIRECTION ( 'NONE',  ( -0.000000000000000000, 1.000000000000000000, -0.000000000000000000 ) ) ;
#368 = EDGE_CURVE ( 'NONE', #1179, #861, #985, .T. ) ;
#369 = DIRECTION ( 'NONE',  ( 0.000000000000000000, 0.7071067811865425767, 0.7071067811865525687 ) ) ;
#370 = CYLINDRICAL_SURFACE ( 'NONE', #1112, 13.25000000000000178 ) ;
#371 = CONICAL_SURFACE ( 'NONE', #826, 13.49999999999997691, 0.7853981633974552734 ) ;
#372 = ORIENTED_EDGE ( 'NONE', *, *, #1100, .F. ) ;
#373 = DIRECTION ( 'NONE',  ( 0.000000000000000000, 0.000000000000000000, 1.000000000000000000 ) ) ;
#374 = DIRECTION ( 'NONE',  ( 0.000000000000000000, 0.000000000000000000, 1.000000000000000000 ) ) ;
#375 = CARTESIAN_POINT ( 'NONE',  ( 0.000000000000000000, 30.00000000000000000, 7.000000000000000888 ) ) ;
#376 = EDGE_LOOP ( 'NONE', ( #342, #128, #144, #802 ) ) ;
#377 = AXIS2_PLACEMENT_3D ( 'NONE', #399, #222, #1124 ) ;
#378 = ORIENTED_EDGE ( 'NONE', *, *, #938, .F. ) ;
#379 = DIRECTION ( 'NONE',  ( 0.000000000000000000, 0.000000000000000000, 1.000000000000000000 ) ) ;
#380 = CARTESIAN_POINT ( 'NONE',  ( 0.000000000000000000, 34.99999999999999289, 0.000000000000000000 ) ) ;
#381 = DIRECTION ( 'NONE',  ( 0.000000000000000000, 0.000000000000000000, 1.000000000000000000 ) ) ;
#382 = VERTEX_POINT ( 'NONE', #197 ) ;
#383 = EDGE_LOOP ( 'NONE', ( #901, #293, #414, #737 ) ) ;
#384 = CARTESIAN_POINT ( 'NONE',  ( 8.572527594031474176E-16, -37.00000000000000711, -7.000000000000000888 ) ) ;
#385 = FACE_OUTER_BOUND ( 'NONE', #615, .T. ) ;
#386 = LINE ( 'NONE', #748, #947 ) ;
#387 = DIRECTION ( 'NONE',  ( -0.000000000000000000, 1.000000000000000000, -0.000000000000000000 ) ) ;
#388 = ADVANCED_FACE ( 'NONE', ( #183 ), #983, .T. ) ;
#389 = CIRCLE ( 'NONE', #705, 13.49999999999997691 ) ;
#390 = ORIENTED_EDGE ( 'NONE', *, *, #928, .T. ) ;
#391 = DIRECTION ( 'NONE',  ( 0.000000000000000000, 0.000000000000000000, -1.000000000000000000 ) ) ;
#392 = FACE_OUTER_BOUND ( 'NONE', #1110, .T. ) ;
#393 = CARTESIAN_POINT ( 'NONE',  ( 0.000000000000000000, -29.99999999999999289, 13.49999999999997691 ) ) ;
#394 = CONICAL_SURFACE ( 'NONE', #793, 16.00000000000000711, 0.7853981633974482790 ) ;
#395 = LINE ( 'NONE', #1106, #218 ) ;
#396 = FACE_OUTER_BOUND ( 'NONE', #534, .T. ) ;
#397 = DIRECTION ( 'NONE',  ( 0.000000000000000000, -1.000000000000000000, 0.000000000000000000 ) ) ;
#398 = DIRECTION ( 'NONE',  ( 0.000000000000000000, 0.000000000000000000, 1.000000000000000000 ) ) ;
#399 = CARTESIAN_POINT ( 'NONE',  ( 0.000000000000000000, -35.25000000000000000, 0.000000000000000000 ) ) ;
#400 = FACE_BOUND ( 'NONE', #445, .T. ) ;
#401 = ADVANCED_FACE ( 'NONE', ( #99 ), #149, .T. ) ;
#402 = AXIS2_PLACEMENT_3D ( 'NONE', #560, #12, #87 ) ;
#403 = CARTESIAN_POINT ( 'NONE',  ( 0.000000000000000000, -29.99999999999999289, 0.000000000000000000 ) ) ;
#404 = CARTESIAN_POINT ( 'NONE',  ( 0.000000000000000000, 30.00000000000000000, 0.000000000000000000 ) ) ;
#405 = CARTESIAN_POINT ( 'NONE',  ( 0.000000000000000000, 35.25000000000000711, 16.25000000000000000 ) ) ;
#406 = ORIENTED_EDGE ( 'NONE', *, *, #161, .F. ) ;
#407 = CIRCLE ( 'NONE', #667, 13.50000000000001243 ) ;
#408 = EDGE_LOOP ( 'NONE', ( #75, #606, #1093, #723 ) ) ;
#409 = LINE ( 'NONE', #1178, #422 ) ;
#410 = AXIS2_PLACEMENT_3D ( 'NONE', #361, #276, #647 ) ;
#411 = FACE_OUTER_BOUND ( 'NONE', #1009, .T. ) ;
#412 = ORIENTED_EDGE ( 'NONE', *, *, #214, .T. ) ;
#413 = EDGE_CURVE ( 'NONE', #750, #1173, #829, .T. ) ;
#414 = ORIENTED_EDGE ( 'NONE', *, *, #351, .F. ) ;
#415 = CARTESIAN_POINT ( 'NONE',  ( 1.353234713057825478E-15, -37.00000000000000000, 11.05000000000000071 ) ) ;
#416 = ORIENTED_EDGE ( 'NONE', *, *, #340, .F. ) ;
#417 = CIRCLE ( 'NONE', #123, 16.25000000000000000 ) ;
#418 = ORIENTED_EDGE ( 'NONE', *, *, #630, .F. ) ;
#419 = CARTESIAN_POINT ( 'NONE',  ( 0.000000000000000000, -30.00000000000000000, 7.000000000000000888 ) ) ;
#420 = EDGE_CURVE ( 'NONE', #321, #465, #679, .T. ) ;
#421 = CARTESIAN_POINT ( 'NONE',  ( -1.990051048614449313E-15, -36.75000000000000711, -16.25000000000000000 ) ) ;
#422 = VECTOR ( 'NONE', #369, 999.9999999999998863 ) ;
#423 = ORIENTED_EDGE ( 'NONE', *, *, #716, .F. ) ;
#424 = EDGE_LOOP ( 'NONE', ( #749, #1135, #781, #1078 ) ) ;
#425 = LINE ( 'NONE', #797, #63 ) ;
#426 = EDGE_CURVE ( 'NONE', #37, #356, #1029, .T. ) ;
#427 = CIRCLE ( 'NONE', #377, 16.25000000000000000 ) ;
#428 = AXIS2_PLACEMENT_3D ( 'NONE', #1122, #118, #1117 ) ;
#429 = CARTESIAN_POINT ( 'NONE',  ( 1.974742963625106631E-15, 34.99999999999999289, -15.99999999999998579 ) ) ;
#430 = VERTEX_POINT ( 'NONE', #170 ) ;
#431 = ORIENTED_EDGE ( 'NONE', *, *, #476, .F. ) ;
#432 = CARTESIAN_POINT ( 'NONE',  ( 0.000000000000000000, -37.00000000000000000, 0.000000000000000000 ) ) ;
#433 = EDGE_CURVE ( 'NONE', #1091, #886, #896, .T. ) ;
#434 = DIRECTION ( 'NONE',  ( -0.000000000000000000, -1.000000000000000000, -0.000000000000000000 ) ) ;
#435 = CIRCLE ( 'NONE', #1147, 16.25000000000000000 ) ;
#436 = VERTEX_POINT ( 'NONE', #447 ) ;
#437 = ADVANCED_FACE ( 'NONE', ( #477 ), #727, .F. ) ;
#438 = AXIS2_PLACEMENT_3D ( 'NONE', #645, #367, #282 ) ;
#439 = VERTEX_POINT ( 'NONE', #80 ) ;
#440 = CARTESIAN_POINT ( 'NONE',  ( 0.000000000000000000, -34.75000000000000711, -13.25000000000000178 ) ) ;
#441 = CYLINDRICAL_SURFACE ( 'NONE', #448, 7.000000000000000888 ) ;
#442 = ORIENTED_EDGE ( 'NONE', *, *, #126, .T. ) ;
#443 = AXIS2_PLACEMENT_3D ( 'NONE', #811, #1164, #720 ) ;
#444 = ADVANCED_FACE ( 'NONE', ( #637 ), #954, .T. ) ;
#445 = EDGE_LOOP ( 'NONE', ( #53, #172 ) ) ;
#446 = DIRECTION ( 'NONE',  ( 0.000000000000000000, -1.000000000000000000, 0.000000000000000000 ) ) ;
#447 = CARTESIAN_POINT ( 'NONE',  ( 1.622657008870243277E-15, -30.24999999999996447, 13.25000000000000178 ) ) ;
#448 = AXIS2_PLACEMENT_3D ( 'NONE', #234, #514, #868 ) ;
#449 = FACE_BOUND ( 'NONE', #362, .T. ) ;
#450 = ORIENTED_EDGE ( 'NONE', *, *, #357, .T. ) ;
#451 = CONICAL_SURFACE ( 'NONE', #2, 13.49999999999997691, 0.7853981633974552734 ) ;
#452 = EDGE_LOOP ( 'NONE', ( #813, #328, #1039, #64 ) ) ;
#453 = EDGE_CURVE ( 'NONE', #925, #332, #939, .T. ) ;
#454 = CARTESIAN_POINT ( 'NONE',  ( 0.000000000000000000, -29.99999999999999289, 13.25000000000000178 ) ) ;
#455 = DIRECTION ( 'NONE',  ( -0.000000000000000000, 1.000000000000000000, -0.000000000000000000 ) ) ;
#456 = DIRECTION ( 'NONE',  ( 0.000000000000000000, 1.000000000000000000, 0.000000000000000000 ) ) ;
#457 = EDGE_CURVE ( 'NONE', #465, #750, #591, .T. ) ;
#458 = ORIENTED_EDGE ( 'NONE', *, *, #579, .F. ) ;
#459 = AXIS2_PLACEMENT_3D ( 'NONE', #1149, #238, #54 ) ;
#460 = ORIENTED_EDGE ( 'NONE', *, *, #102, .T. ) ;
#461 = FACE_BOUND ( 'NONE', #1053, .T. ) ;
#462 = CIRCLE ( 'NONE', #484, 15.99999999999999289 ) ;
#463 = CARTESIAN_POINT ( 'NONE',  ( 0.000000000000000000, -34.75000000000000711, -13.25000000000000178 ) ) ;
#464 = CARTESIAN_POINT ( 'NONE',  ( 0.000000000000000000, 37.00000000000000000, -16.00000000000000711 ) ) ;
#465 = VERTEX_POINT ( 'NONE', #747 ) ;
#466 = VECTOR ( 'NONE', #585, 1000.000000000000000 ) ;
#467 = ORIENTED_EDGE ( 'NONE', *, *, #420, .T. ) ;
#468 = CARTESIAN_POINT ( 'NONE',  ( 0.000000000000000000, 34.99999999999999289, 15.99999999999998579 ) ) ;
#469 = DIRECTION ( 'NONE',  ( 0.000000000000000000, 0.000000000000000000, 1.000000000000000000 ) ) ;
#470 = DIRECTION ( 'NONE',  ( -0.000000000000000000, 1.000000000000000000, -0.000000000000000000 ) ) ;
#471 = EDGE_LOOP ( 'NONE', ( #431, #85, #194, #525 ) ) ;
#472 = PRODUCT_DEFINITION ( 'UNKNOWN', '', #1092, #264 ) ;
#473 = CIRCLE ( 'NONE', #1159, 13.25000000000000178 ) ;
#474 = EDGE_LOOP ( 'NONE', ( #225, #521, #958, #1044 ) ) ;
#475 = DIRECTION ( 'NONE',  ( 8.659560562354994488E-17, -0.7071067811865426878, 0.7071067811865524577 ) ) ;
#476 = EDGE_CURVE ( 'NONE', #465, #321, #843, .T. ) ;
#477 = FACE_OUTER_BOUND ( 'NONE', #331, .T. ) ;
#478 = EDGE_CURVE ( 'NONE', #1153, #962, #694, .T. ) ;
#479 = DIRECTION ( 'NONE',  ( 0.000000000000000000, 0.000000000000000000, 1.000000000000000000 ) ) ;
#480 = DIRECTION ( 'NONE',  ( 0.000000000000000000, 0.000000000000000000, 1.000000000000000000 ) ) ;
#481 = CIRCLE ( 'NONE', #1058, 16.25000000000000000 ) ;
#482 = CARTESIAN_POINT ( 'NONE',  ( 0.000000000000000000, 50.32184154300224321, 0.000000000000000000 ) ) ;
#483 = DIRECTION ( 'NONE',  ( 0.000000000000000000, -1.000000000000000000, 0.000000000000000000 ) ) ;
#484 = AXIS2_PLACEMENT_3D ( 'NONE', #795, #874, #533 ) ;
#485 = DIRECTION ( 'NONE',  ( 0.000000000000000000, 0.000000000000000000, -1.000000000000000000 ) ) ;
#486 = DIRECTION ( 'NONE',  ( 0.000000000000000000, -1.000000000000000000, 0.000000000000000000 ) ) ;
#487 = AXIS2_PLACEMENT_3D ( 'NONE', #1023, #483, #751 ) ;
#488 = DIRECTION ( 'NONE',  ( -0.000000000000000000, -1.000000000000000000, -0.000000000000000000 ) ) ;
#489 = DIRECTION ( 'NONE',  ( 0.000000000000000000, 0.000000000000000000, 1.000000000000000000 ) ) ;
#490 = AXIS2_PLACEMENT_3D ( 'NONE', #578, #672, #36 ) ;
#491 = DIRECTION ( 'NONE',  ( 0.000000000000000000, 0.000000000000000000, -1.000000000000000000 ) ) ;
#492 = EDGE_CURVE ( 'NONE', #1000, #236, #115, .T. ) ;
#493 = DIRECTION ( 'NONE',  ( 0.000000000000000000, -0.000000000000000000, 1.000000000000000000 ) ) ;
#494 = DIRECTION ( 'NONE',  ( 0.000000000000000000, 0.000000000000000000, 1.000000000000000000 ) ) ;
#495 = CIRCLE ( 'NONE', #459, 13.25000000000000178 ) ;
#496 = CARTESIAN_POINT ( 'NONE',  ( 1.353234713057825478E-15, -30.00000000000000000, 11.05000000000000071 ) ) ;
#497 = LINE ( 'NONE', #314, #975 ) ;
#498 = CARTESIAN_POINT ( 'NONE',  ( 1.974742963625106631E-15, -27.99999999999999645, 15.99999999999999289 ) ) ;
#499 = CONICAL_SURFACE ( 'NONE', #950, 16.25000000000000000, 0.7853981633974482790 ) ;
#500 = VERTEX_POINT ( 'NONE', #309 ) ;
#501 = ORIENTED_EDGE ( 'NONE', *, *, #931, .F. ) ;
#502 = CONICAL_SURFACE ( 'NONE', #294, 16.25000000000000000, 0.7853981633974760346 ) ;
#503 = LINE ( 'NONE', #496, #789 ) ;
#504 = CIRCLE ( 'NONE', #990, 15.99999999999999289 ) ;
#505 = CARTESIAN_POINT ( 'NONE',  ( 0.000000000000000000, -34.99999999999999289, -13.49999999999999822 ) ) ;
#506 = ORIENTED_EDGE ( 'NONE', *, *, #1163, .T. ) ;
#507 = ADVANCED_FACE ( 'NONE', ( #1123 ), #371, .T. ) ;
#508 = DIRECTION ( 'NONE',  ( 0.000000000000000000, 0.000000000000000000, 1.000000000000000000 ) ) ;
#509 = CIRCLE ( 'NONE', #1048, 13.49999999999998401 ) ;
#510 = ADVANCED_FACE ( 'NONE', ( #768 ), #70, .T. ) ;
#511 = ORIENTED_EDGE ( 'NONE', *, *, #678, .F. ) ;
#512 = DIRECTION ( 'NONE',  ( 0.000000000000000000, -1.000000000000000000, 0.000000000000000000 ) ) ;
#513 = CIRCLE ( 'NONE', #883, 11.05000000000000071 ) ;
#514 = DIRECTION ( 'NONE',  ( -0.000000000000000000, 1.000000000000000000, -0.000000000000000000 ) ) ;
#515 = ORIENTED_EDGE ( 'NONE', *, *, #114, .T. ) ;
#516 = ADVANCED_FACE ( 'NONE', ( #304 ), #1043, .T. ) ;
#517 = ORIENTED_EDGE ( 'NONE', *, *, #639, .F. ) ;
#518 = VECTOR ( 'NONE', #155, 1000.000000000000114 ) ;
#519 = PLANE ( 'NONE',  #594 ) ;
#520 = DIRECTION ( 'NONE',  ( 0.000000000000000000, 1.000000000000000000, 0.000000000000000000 ) ) ;
#521 = ORIENTED_EDGE ( 'NONE', *, *, #1169, .F. ) ;
#522 = VECTOR ( 'NONE', #539, 1000.000000000000114 ) ;
#523 = CARTESIAN_POINT ( 'NONE',  ( -1.990051048614449313E-15, -35.25000000000000000, -16.25000000000000000 ) ) ;
#524 = CYLINDRICAL_SURFACE ( 'NONE', #634, 11.05000000000000071 ) ;
#525 = ORIENTED_EDGE ( 'NONE', *, *, #536, .F. ) ;
#526 = ORIENTED_EDGE ( 'NONE', *, *, #40, .T. ) ;
#527 = FACE_OUTER_BOUND ( 'NONE', #408, .T. ) ;
#528 = CIRCLE ( 'NONE', #1064, 16.00000000000000711 ) ;
#529 = DIRECTION ( 'NONE',  ( 0.000000000000000000, 0.000000000000000000, 1.000000000000000000 ) ) ;
#530 = ORIENTED_EDGE ( 'NONE', *, *, #840, .F. ) ;
#531 = ORIENTED_EDGE ( 'NONE', *, *, #305, .T. ) ;
#532 = CARTESIAN_POINT ( 'NONE',  ( 0.000000000000000000, 50.32184154300224321, 0.000000000000000000 ) ) ;
#533 = DIRECTION ( 'NONE',  ( 0.000000000000000000, 0.000000000000000000, 1.000000000000000000 ) ) ;
#534 = EDGE_LOOP ( 'NONE', ( #280, #103, #562, #932 ) ) ;
#535 = ORIENTED_EDGE ( 'NONE', *, *, #900, .F. ) ;
#536 = EDGE_CURVE ( 'NONE', #321, #247, #30, .T. ) ;
#537 = DIRECTION ( 'NONE',  ( 0.000000000000000000, 0.000000000000000000, -1.000000000000000000 ) ) ;
#538 = CIRCLE ( 'NONE', #195, 13.25000000000000178 ) ;
#539 = DIRECTION ( 'NONE',  ( 0.000000000000000000, 0.7071067811865474617, 0.7071067811865474617 ) ) ;
#540 = PLANE ( 'NONE',  #241 ) ;
#541 = ORIENTED_EDGE ( 'NONE', *, *, #188, .T. ) ;
#542 = VECTOR ( 'NONE', #204, 1000.000000000000000 ) ;
#543 = ADVANCED_FACE ( 'NONE', ( #385 ), #859, .T. ) ;
#544 = EDGE_LOOP ( 'NONE', ( #1109, #258 ) ) ;
#545 = CARTESIAN_POINT ( 'NONE',  ( 1.990051048614449313E-15, -28.25000000000001066, -16.25000000000000000 ) ) ;
#546 = CARTESIAN_POINT ( 'NONE',  ( 0.000000000000000000, 37.00000000000000000, -16.00000000000000711 ) ) ;
#547 = AXIS2_PLACEMENT_3D ( 'NONE', #14, #387, #300 ) ;
#548 = CARTESIAN_POINT ( 'NONE',  ( 0.000000000000000000, 34.99999999999999289, 0.000000000000000000 ) ) ;
#549 = EDGE_LOOP ( 'NONE', ( #1086, #323, #731, #617 ) ) ;
#550 = ADVANCED_FACE ( 'NONE', ( #211 ), #317, .T. ) ;
#551 = VERTEX_POINT ( 'NONE', #581 ) ;
#552 = AXIS2_PLACEMENT_3D ( 'NONE', #844, #508, #1034 ) ;
#553 = CARTESIAN_POINT ( 'NONE',  ( 0.000000000000000000, 50.32184154300224321, 0.000000000000000000 ) ) ;
#554 = DIRECTION ( 'NONE',  ( 0.000000000000000000, 0.000000000000000000, -1.000000000000000000 ) ) ;
#555 = DIRECTION ( 'NONE',  ( 0.000000000000000000, 0.000000000000000000, 1.000000000000000000 ) ) ;
#556 = CARTESIAN_POINT ( 'NONE',  ( 0.000000000000000000, 37.00000000000000000, 0.000000000000000000 ) ) ;
#557 = VERTEX_POINT ( 'NONE', #943 ) ;
#558 = CARTESIAN_POINT ( 'NONE',  ( 0.000000000000000000, -27.99999999999999645, 0.000000000000000000 ) ) ;
#559 = AXIS2_PLACEMENT_3D ( 'NONE', #345, #610, #529 ) ;
#560 = CARTESIAN_POINT ( 'NONE',  ( 0.000000000000000000, -27.74999999999998934, 0.000000000000000000 ) ) ;
#561 = DIRECTION ( 'NONE',  ( 0.000000000000000000, 0.000000000000000000, 1.000000000000000000 ) ) ;
#562 = ORIENTED_EDGE ( 'NONE', *, *, #996, .T. ) ;
#563 = VECTOR ( 'NONE', #182, 1000.000000000000000 ) ;
#564 = ADVANCED_FACE ( 'NONE', ( #24 ), #18, .F. ) ;
#565 = ADVANCED_FACE ( 'NONE', ( #226 ), #897, .T. ) ;
#566 = ORIENTED_EDGE ( 'NONE', *, *, #303, .F. ) ;
#567 = CARTESIAN_POINT ( 'NONE',  ( 0.000000000000000000, -30.24999999999996447, 0.000000000000000000 ) ) ;
#568 = CARTESIAN_POINT ( 'NONE',  ( 0.000000000000000000, -30.00000000000000000, -11.05000000000000071 ) ) ;
#569 = EDGE_CURVE ( 'NONE', #773, #243, #503, .T. ) ;
#570 = DIRECTION ( 'NONE',  ( 0.000000000000000000, 1.000000000000000000, 0.000000000000000000 ) ) ;
#571 = CARTESIAN_POINT ( 'NONE',  ( 0.000000000000000000, -34.99999999999999289, 0.000000000000000000 ) ) ;
#572 = AXIS2_PLACEMENT_3D ( 'NONE', #122, #27, #307 ) ;
#573 = VECTOR ( 'NONE', #984, 1000.000000000000000 ) ;
#574 = ORIENTED_EDGE ( 'NONE', *, *, #49, .F. ) ;
#575 = DIRECTION ( 'NONE',  ( 0.000000000000000000, -0.000000000000000000, -1.000000000000000000 ) ) ;
#576 = CARTESIAN_POINT ( 'NONE',  ( 0.000000000000000000, -29.75000000000001421, 16.25000000000000000 ) ) ;
#577 = FACE_OUTER_BOUND ( 'NONE', #600, .T. ) ;
#578 = CARTESIAN_POINT ( 'NONE',  ( 0.000000000000000000, 36.75000000000000711, 0.000000000000000000 ) ) ;
#579 = EDGE_CURVE ( 'NONE', #439, #819, #395, .T. ) ;
#580 = ORIENTED_EDGE ( 'NONE', *, *, #840, .T. ) ;
#581 = CARTESIAN_POINT ( 'NONE',  ( 0.000000000000000000, -27.99999999999999645, -13.50000000000001243 ) ) ;
#582 = CIRCLE ( 'NONE', #656, 16.00000000000000711 ) ;
#583 = CARTESIAN_POINT ( 'NONE',  ( 1.653273178848924106E-15, -29.99999999999999289, -13.49999999999997691 ) ) ;
#584 = AXIS2_PLACEMENT_3D ( 'NONE', #111, #129, #398 ) ;
#585 = DIRECTION ( 'NONE',  ( 8.659560562355173214E-17, 0.7071067811865279218, -0.7071067811865671127 ) ) ;
#586 = EDGE_CURVE ( 'NONE', #1146, #154, #504, .T. ) ;
#587 = CARTESIAN_POINT ( 'NONE',  ( 0.000000000000000000, 34.99999999999999289, 13.49999999999998401 ) ) ;
#588 = DIRECTION ( 'NONE',  ( -0.000000000000000000, 1.000000000000000000, -0.000000000000000000 ) ) ;
#589 = CIRCLE ( 'NONE', #202, 11.05000000000000071 ) ;
#590 = CIRCLE ( 'NONE', #254, 15.99999999999998579 ) ;
#591 = LINE ( 'NONE', #839, #466 ) ;
#592 = CARTESIAN_POINT ( 'NONE',  ( 0.000000000000000000, -34.75000000000000711, 0.000000000000000000 ) ) ;
#593 = DIRECTION ( 'NONE',  ( 0.000000000000000000, 0.7071067811865622277, 0.7071067811865328068 ) ) ;
#594 = AXIS2_PLACEMENT_3D ( 'NONE', #72, #873, #968 ) ;
#595 = APPLICATION_PROTOCOL_DEFINITION ( 'draft international standard', 'automotive_design', 1998, #757 ) ;
#596 = EDGE_LOOP ( 'NONE', ( #687, #517 ) ) ;
#597 = DIRECTION ( 'NONE',  ( 0.000000000000000000, 0.000000000000000000, 1.000000000000000000 ) ) ;
#598 = CARTESIAN_POINT ( 'NONE',  ( 0.000000000000000000, 37.00000000000000000, 0.000000000000000000 ) ) ;
#599 = CARTESIAN_POINT ( 'NONE',  ( 0.000000000000000000, -34.99999999999999289, 0.000000000000000000 ) ) ;
#600 = EDGE_LOOP ( 'NONE', ( #511, #1132, #263, #574 ) ) ;
#601 = ADVANCED_FACE ( 'NONE', ( #956 ), #691, .T. ) ;
#602 = ORIENTED_EDGE ( 'NONE', *, *, #772, .T. ) ;
#603 = DIRECTION ( 'NONE',  ( -0.000000000000000000, 1.000000000000000000, -0.000000000000000000 ) ) ;
#604 = DIRECTION ( 'NONE',  ( 0.000000000000000000, 0.000000000000000000, -1.000000000000000000 ) ) ;
#605 = EDGE_CURVE ( 'NONE', #247, #750, #661, .T. ) ;
#606 = ORIENTED_EDGE ( 'NONE', *, *, #569, .T. ) ;
#607 = AXIS2_PLACEMENT_3D ( 'NONE', #55, #979, #47 ) ;
#608 = ORIENTED_EDGE ( 'NONE', *, *, #188, .F. ) ;
#609 = LINE ( 'NONE', #970, #1095 ) ;
#610 = DIRECTION ( 'NONE',  ( -0.000000000000000000, 1.000000000000000000, -0.000000000000000000 ) ) ;
#611 = ORIENTED_EDGE ( 'NONE', *, *, #1161, .T. ) ;
#612 = EDGE_LOOP ( 'NONE', ( #955, #725 ) ) ;
#613 = FACE_BOUND ( 'NONE', #887, .T. ) ;
#614 = CARTESIAN_POINT ( 'NONE',  ( 0.000000000000000000, 37.00000000000000000, 0.000000000000000000 ) ) ;
#615 = EDGE_LOOP ( 'NONE', ( #56, #620, #778, #501 ) ) ;
#616 = CIRCLE ( 'NONE', #33, 16.25000000000000000 ) ;
#617 = ORIENTED_EDGE ( 'NONE', *, *, #892, .F. ) ;
#618 = CARTESIAN_POINT ( 'NONE',  ( 1.959434878635766315E-15, 37.00000000000000000, 16.00000000000000711 ) ) ;
#619 = DIRECTION ( 'NONE',  ( 0.000000000000000000, 0.000000000000000000, 1.000000000000000000 ) ) ;
#620 = ORIENTED_EDGE ( 'NONE', *, *, #678, .T. ) ;
#621 = ORIENTED_EDGE ( 'NONE', *, *, #133, .F. ) ;
#622 = VECTOR ( 'NONE', #851, 1000.000000000000000 ) ;
#623 = LINE ( 'NONE', #440, #870 ) ;
#624 = CARTESIAN_POINT ( 'NONE',  ( 1.959434878635764343E-15, -34.99999999999999289, 15.99999999999999289 ) ) ;
#625 = ORIENTED_EDGE ( 'NONE', *, *, #716, .T. ) ;
#626 = ORIENTED_EDGE ( 'NONE', *, *, #269, .T. ) ;
#627 = CARTESIAN_POINT ( 'NONE',  ( 0.000000000000000000, -35.25000000000000000, 0.000000000000000000 ) ) ;
#628 = AXIS2_PLACEMENT_3D ( 'NONE', #359, #895, #963 ) ;
#629 = CARTESIAN_POINT ( 'NONE',  ( 0.000000000000000000, -29.99999999999999289, 0.000000000000000000 ) ) ;
#630 = EDGE_CURVE ( 'NONE', #1173, #364, #806, .T. ) ;
#631 = DIRECTION ( 'NONE',  ( 0.000000000000000000, 0.000000000000000000, 1.000000000000000000 ) ) ;
#632 = EDGE_LOOP ( 'NONE', ( #515, #799 ) ) ;
#633 = EDGE_CURVE ( 'NONE', #436, #96, #409, .T. ) ;
#634 = AXIS2_PLACEMENT_3D ( 'NONE', #971, #890, #881 ) ;
#635 = ORIENTED_EDGE ( 'NONE', *, *, #492, .T. ) ;
#636 = DIRECTION ( 'NONE',  ( 0.000000000000000000, 0.000000000000000000, 1.000000000000000000 ) ) ;
#637 = FACE_OUTER_BOUND ( 'NONE', #817, .T. ) ;
#638 = DIRECTION ( 'NONE',  ( 8.659560562354932858E-17, 0.7071067811865474617, -0.7071067811865474617 ) ) ;
#639 = EDGE_CURVE ( 'NONE', #430, #703, #734, .T. ) ;
#640 = ORIENTED_EDGE ( 'NONE', *, *, #536, .T. ) ;
#641 = AXIS2_PLACEMENT_3D ( 'NONE', #670, #1026, #849 ) ;
#642 = UNCERTAINTY_MEASURE_WITH_UNIT (LENGTH_MEASURE( 1.000000000000000082E-05 ), #951, 'distance_accuracy_value', 'NONE');
#643 = ORIENTED_EDGE ( 'NONE', *, *, #776, .T. ) ;
#644 = DIRECTION ( 'NONE',  ( 0.000000000000000000, 0.000000000000000000, 1.000000000000000000 ) ) ;
#645 = CARTESIAN_POINT ( 'NONE',  ( 0.000000000000000000, -36.75000000000000711, 0.000000000000000000 ) ) ;
#646 = CIRCLE ( 'NONE', #180, 16.25000000000000000 ) ;
#647 = DIRECTION ( 'NONE',  ( 0.000000000000000000, 0.000000000000000000, 1.000000000000000000 ) ) ;
#648 = DIRECTION ( 'NONE',  ( -0.000000000000000000, -1.000000000000000000, -0.000000000000000000 ) ) ;
#649 = VERTEX_POINT ( 'NONE', #464 ) ;
#650 = CARTESIAN_POINT ( 'NONE',  ( 0.000000000000000000, -27.99999999999999645, -15.99999999999999289 ) ) ;
#651 = LINE ( 'NONE', #546, #290 ) ;
#652 = DIRECTION ( 'NONE',  ( -0.000000000000000000, -1.000000000000000000, -0.000000000000000000 ) ) ;
#653 = ORIENTED_EDGE ( 'NONE', *, *, #1161, .F. ) ;
#654 = VERTEX_POINT ( 'NONE', #1165 ) ;
#655 = FACE_OUTER_BOUND ( 'NONE', #348, .T. ) ;
#656 = AXIS2_PLACEMENT_3D ( 'NONE', #334, #695, #1061 ) ;
#657 = DIRECTION ( 'NONE',  ( 0.000000000000000000, 0.000000000000000000, 1.000000000000000000 ) ) ;
#658 = CIRCLE ( 'NONE', #1103, 13.50000000000001243 ) ;
#659 = FACE_BOUND ( 'NONE', #992, .T. ) ;
#660 = DIRECTION ( 'NONE',  ( 0.000000000000000000, 0.000000000000000000, -1.000000000000000000 ) ) ;
#661 = CIRCLE ( 'NONE', #937, 16.25000000000000000 ) ;
#662 = ORIENTED_EDGE ( 'NONE', *, *, #973, .T. ) ;
#663 = CARTESIAN_POINT ( 'NONE',  ( 1.974742963625107814E-15, 37.00000000000000000, 16.00000000000000711 ) ) ;
#664 = DIRECTION ( 'NONE',  ( -0.000000000000000000, 1.000000000000000000, -0.000000000000000000 ) ) ;
#665 = CARTESIAN_POINT ( 'NONE',  ( 0.000000000000000000, -36.75000000000000711, 16.25000000000000000 ) ) ;
#666 = VERTEX_POINT ( 'NONE', #991 ) ;
#667 = AXIS2_PLACEMENT_3D ( 'NONE', #277, #101, #8 ) ;
#668 = AXIS2_PLACEMENT_3D ( 'NONE', #178, #570, #923 ) ;
#669 = ORIENTED_EDGE ( 'NONE', *, *, #721, .F. ) ;
#670 = CARTESIAN_POINT ( 'NONE',  ( 0.000000000000000000, -29.75000000000001421, 0.000000000000000000 ) ) ;
#671 = SURFACE_STYLE_USAGE ( .BOTH. , #306 ) ;
#672 = DIRECTION ( 'NONE',  ( 0.000000000000000000, -1.000000000000000000, 0.000000000000000000 ) ) ;
#673 = EDGE_CURVE ( 'NONE', #273, #1102, #898, .T. ) ;
#674 = CARTESIAN_POINT ( 'NONE',  ( 0.000000000000000000, -34.99999999999999289, 0.000000000000000000 ) ) ;
#675 = VECTOR ( 'NONE', #268, 1000.000000000000000 ) ;
#676 = FACE_BOUND ( 'NONE', #612, .T. ) ;
#677 = DIRECTION ( 'NONE',  ( -0.000000000000000000, 1.000000000000000000, -0.000000000000000000 ) ) ;
#678 = EDGE_CURVE ( 'NONE', #37, #717, #283, .T. ) ;
#679 = CIRCLE ( 'NONE', #1177, 16.00000000000000711 ) ;
#680 = DIRECTION ( 'NONE',  ( 0.000000000000000000, -1.000000000000000000, 0.000000000000000000 ) ) ;
#681 = SURFACE_STYLE_FILL_AREA ( #754 ) ;
#682 = CARTESIAN_POINT ( 'NONE',  ( 0.000000000000000000, -30.00000000000000000, 0.000000000000000000 ) ) ;
#683 = VECTOR ( 'NONE', #289, 1000.000000000000000 ) ;
#684 = CARTESIAN_POINT ( 'NONE',  ( 0.000000000000000000, 37.00000000000000000, 0.000000000000000000 ) ) ;
#685 = CARTESIAN_POINT ( 'NONE',  ( 0.000000000000000000, -37.00000000000000000, -11.05000000000000071 ) ) ;
#686 = CARTESIAN_POINT ( 'NONE',  ( 0.000000000000000000, -50.32184154300224321, 0.000000000000000000 ) ) ;
#687 = ORIENTED_EDGE ( 'NONE', *, *, #224, .F. ) ;
#688 = EDGE_CURVE ( 'NONE', #1091, #773, #589, .T. ) ;
#689 = EDGE_CURVE ( 'NONE', #1153, #1072, #171, .T. ) ;
#690 = ORIENTED_EDGE ( 'NONE', *, *, #639, .T. ) ;
#691 = CYLINDRICAL_SURFACE ( 'NONE', #134, 16.25000000000000000 ) ;
#692 = DIRECTION ( 'NONE',  ( 0.000000000000000000, -1.000000000000000000, 0.000000000000000000 ) ) ;
#693 = ORIENTED_EDGE ( 'NONE', *, *, #133, .T. ) ;
#694 = CIRCLE ( 'NONE', #1082, 13.25000000000000178 ) ;
#695 = DIRECTION ( 'NONE',  ( -0.000000000000000000, -1.000000000000000000, -0.000000000000000000 ) ) ;
#696 = ORIENTED_EDGE ( 'NONE', *, *, #420, .F. ) ;
#697 = AXIS2_PLACEMENT_3D ( 'NONE', #556, #1098, #660 ) ;
#698 = ORIENTED_EDGE ( 'NONE', *, *, #871, .F. ) ;
#699 = DIRECTION ( 'NONE',  ( -0.000000000000000000, 1.000000000000000000, -0.000000000000000000 ) ) ;
#700 = ORIENTED_EDGE ( 'NONE', *, *, #769, .F. ) ;
#701 = CARTESIAN_POINT ( 'NONE',  ( 1.653273178848928444E-15, -27.99999999999999645, 13.50000000000001243 ) ) ;
#702 = LINE ( 'NONE', #1155, #108 ) ;
#703 = VERTEX_POINT ( 'NONE', #375 ) ;
#704 = AXIS2_PLACEMENT_3D ( 'NONE', #921, #989, #177 ) ;
#705 = AXIS2_PLACEMENT_3D ( 'NONE', #274, #287, #196 ) ;
#706 = EDGE_LOOP ( 'NONE', ( #1166, #158, #46, #808 ) ) ;
#707 = FACE_OUTER_BOUND ( 'NONE', #471, .T. ) ;
#708 = FACE_OUTER_BOUND ( 'NONE', #1138, .T. ) ;
#709 = ORIENTED_EDGE ( 'NONE', *, *, #579, .T. ) ;
#710 = EDGE_LOOP ( 'NONE', ( #786, #531, #643, #911 ) ) ;
#711 = LINE ( 'NONE', #879, #339 ) ;
#712 = AXIS2_PLACEMENT_3D ( 'NONE', #184, #81, #555 ) ;
#713 = CARTESIAN_POINT ( 'NONE',  ( 0.000000000000000000, -34.75000000000000711, 0.000000000000000000 ) ) ;
#714 = LINE ( 'NONE', #1069, #573 ) ;
#715 = EDGE_LOOP ( 'NONE', ( #416, #135, #709, #423 ) ) ;
#716 = EDGE_CURVE ( 'NONE', #236, #819, #318, .T. ) ;
#717 = VERTEX_POINT ( 'NONE', #722 ) ;
#718 = DIRECTION ( 'NONE',  ( 0.000000000000000000, -1.000000000000000000, 0.000000000000000000 ) ) ;
#719 = AXIS2_PLACEMENT_3D ( 'NONE', #432, #803, #1060 ) ;
#720 = DIRECTION ( 'NONE',  ( 0.000000000000000000, 0.000000000000000000, 1.000000000000000000 ) ) ;
#721 = EDGE_CURVE ( 'NONE', #649, #1160, #528, .T. ) ;
#722 = CARTESIAN_POINT ( 'NONE',  ( 1.653273178848926669E-15, -34.99999999999999289, 13.49999999999999822 ) ) ;
#723 = ORIENTED_EDGE ( 'NONE', *, *, #433, .F. ) ;
#724 = CIRCLE ( 'NONE', #854, 13.25000000000000178 ) ;
#725 = ORIENTED_EDGE ( 'NONE', *, *, #892, .T. ) ;
#726 = DIRECTION ( 'NONE',  ( 0.000000000000000000, -1.000000000000000000, 0.000000000000000000 ) ) ;
#727 = CYLINDRICAL_SURFACE ( 'NONE', #443, 11.05000000000000071 ) ;
#728 = ADVANCED_FACE ( 'NONE', ( #191 ), #999, .F. ) ;
#729 = CARTESIAN_POINT ( 'NONE',  ( 0.000000000000000000, 37.00000000000000000, 0.000000000000000000 ) ) ;
#730 = CARTESIAN_POINT ( 'NONE',  ( 0.000000000000000000, -28.25000000000001066, 0.000000000000000000 ) ) ;
#731 = ORIENTED_EDGE ( 'NONE', *, *, #433, .T. ) ;
#732 = FACE_OUTER_BOUND ( 'NONE', #1152, .T. ) ;
#733 = CARTESIAN_POINT ( 'NONE',  ( 1.990051048614449313E-15, 50.32184154300224321, -16.25000000000000000 ) ) ;
#734 = CIRCLE ( 'NONE', #302, 7.000000000000000888 ) ;
#735 = CIRCLE ( 'NONE', #1158, 13.49999999999999822 ) ;
#736 = LINE ( 'NONE', #93, #683 ) ;
#737 = ORIENTED_EDGE ( 'NONE', *, *, #633, .F. ) ;
#738 = ADVANCED_FACE ( 'NONE', ( #1006 ), #451, .T. ) ;
#739 = EDGE_LOOP ( 'NONE', ( #876, #1070 ) ) ;
#740 = LINE ( 'NONE', #1094, #857 ) ;
#741 = DIRECTION ( 'NONE',  ( -0.000000000000000000, 1.000000000000000000, -0.000000000000000000 ) ) ;
#742 = CARTESIAN_POINT ( 'NONE',  ( 1.990051048614449313E-15, 35.25000000000000711, -16.25000000000000000 ) ) ;
#743 = FACE_OUTER_BOUND ( 'NONE', #90, .T. ) ;
#744 = ADVANCED_FACE ( 'NONE', ( #910, #449 ), #540, .T. ) ;
#745 = VERTEX_POINT ( 'NONE', #823 ) ;
#746 = DIRECTION ( 'NONE',  ( -0.000000000000000000, 1.000000000000000000, -0.000000000000000000 ) ) ;
#747 = CARTESIAN_POINT ( 'NONE',  ( 1.974742963625107814E-15, -29.99999999999999289, -16.00000000000000711 ) ) ;
#748 = CARTESIAN_POINT ( 'NONE',  ( 0.000000000000000000, -27.74999999999998934, -13.25000000000000178 ) ) ;
#749 = ORIENTED_EDGE ( 'NONE', *, *, #492, .F. ) ;
#750 = VERTEX_POINT ( 'NONE', #917 ) ;
#751 = DIRECTION ( 'NONE',  ( 0.000000000000000000, 0.000000000000000000, -1.000000000000000000 ) ) ;
#752 = EDGE_CURVE ( 'NONE', #162, #557, #736, .T. ) ;
#753 = ADVANCED_FACE ( 'NONE', ( #659, #816 ), #1013, .T. ) ;
#754 = FILL_AREA_STYLE ('',( #121 ) ) ;
#755 = DIRECTION ( 'NONE',  ( 0.000000000000000000, 0.000000000000000000, 1.000000000000000000 ) ) ;
#756 = AXIS2_PLACEMENT_3D ( 'NONE', #682, #223, #131 ) ;
#757 = APPLICATION_CONTEXT ( 'automotive_design' ) ;
#758 = CARTESIAN_POINT ( 'NONE',  ( 0.000000000000000000, 30.00000000000000000, 11.05000000000000071 ) ) ;
#759 = ADVANCED_FACE ( 'NONE', ( #100 ), #141, .T. ) ;
#760 = CARTESIAN_POINT ( 'NONE',  ( 1.353234713057825478E-15, 30.00000000000000000, -11.05000000000000071 ) ) ;
#761 = AXIS2_PLACEMENT_3D ( 'NONE', #532, #1139, #259 ) ;
#762 = PRODUCT_CONTEXT ( 'NONE', #19, 'mechanical' ) ;
#763 = DIRECTION ( 'NONE',  ( 0.000000000000000000, -1.000000000000000000, 0.000000000000000000 ) ) ;
#764 = AXIS2_PLACEMENT_3D ( 'NONE', #909, #1170, #821 ) ;
#765 = CARTESIAN_POINT ( 'NONE',  ( 0.000000000000000000, 50.32184154300224321, 16.25000000000000000 ) ) ;
#766 = PLANE ( 'NONE',  #428 ) ;
#767 = AXIS2_PLACEMENT_3D ( 'NONE', #553, #176, #644 ) ;
#768 = FACE_OUTER_BOUND ( 'NONE', #1047, .T. ) ;
#769 = EDGE_CURVE ( 'NONE', #500, #1000, #1156, .T. ) ;
#770 = DIRECTION ( 'NONE',  ( 0.000000000000000000, 1.000000000000000000, 0.000000000000000000 ) ) ;
#771 = FACE_OUTER_BOUND ( 'NONE', #424, .T. ) ;
#772 = EDGE_CURVE ( 'NONE', #948, #703, #714, .T. ) ;
#773 = VERTEX_POINT ( 'NONE', #228 ) ;
#774 = CONICAL_SURFACE ( 'NONE', #41, 16.00000000000000711, 0.7853981633974482790 ) ;
#775 = EDGE_CURVE ( 'NONE', #913, #332, #513, .T. ) ;
#776 = EDGE_CURVE ( 'NONE', #247, #364, #117, .T. ) ;
#777 = VECTOR ( 'NONE', #355, 1000.000000000000114 ) ;
#778 = ORIENTED_EDGE ( 'NONE', *, *, #164, .F. ) ;
#779 = CARTESIAN_POINT ( 'NONE',  ( 0.000000000000000000, 50.32184154300224321, 0.000000000000000000 ) ) ;
#780 = DIRECTION ( 'NONE',  ( 0.000000000000000000, 0.000000000000000000, -1.000000000000000000 ) ) ;
#781 = ORIENTED_EDGE ( 'NONE', *, *, #1030, .T. ) ;
#782 = AXIS2_PLACEMENT_3D ( 'NONE', #168, #60, #159 ) ;
#783 = VERTEX_POINT ( 'NONE', #841 ) ;
#784 = DIRECTION ( 'NONE',  ( 0.000000000000000000, -1.000000000000000000, 0.000000000000000000 ) ) ;
#785 = AXIS2_PLACEMENT_3D ( 'NONE', #152, #520, #1136 ) ;
#786 = ORIENTED_EDGE ( 'NONE', *, *, #413, .F. ) ;
#787 = ORIENTED_EDGE ( 'NONE', *, *, #889, .T. ) ;
#788 = DIRECTION ( 'NONE',  ( -0.000000000000000000, 1.000000000000000000, -0.000000000000000000 ) ) ;
#789 = VECTOR ( 'NONE', #488, 1000.000000000000000 ) ;
#790 = CARTESIAN_POINT ( 'NONE',  ( 8.572527594031474176E-16, -30.00000000000000000, -7.000000000000000888 ) ) ;
#791 = ORIENTED_EDGE ( 'NONE', *, *, #257, .T. ) ;
#792 = EDGE_CURVE ( 'NONE', #1153, #1179, #497, .T. ) ;
#793 = AXIS2_PLACEMENT_3D ( 'NONE', #598, #13, #106 ) ;
#794 = CARTESIAN_POINT ( 'NONE',  ( 0.000000000000000000, -30.00000000000000000, 0.000000000000000000 ) ) ;
#795 = CARTESIAN_POINT ( 'NONE',  ( 0.000000000000000000, -34.99999999999999289, 0.000000000000000000 ) ) ;
#796 = ORIENTED_EDGE ( 'NONE', *, *, #214, .F. ) ;
#797 = CARTESIAN_POINT ( 'NONE',  ( 0.000000000000000000, -50.32184154300224321, 16.25000000000000000 ) ) ;
#798 = CARTESIAN_POINT ( 'NONE',  ( 0.000000000000000000, -36.75000000000000711, 0.000000000000000000 ) ) ;
#799 = ORIENTED_EDGE ( 'NONE', *, *, #938, .T. ) ;
#800 = CONICAL_SURFACE ( 'NONE', #438, 16.25000000000000000, 0.7853981633974482790 ) ;
#801 = ADVANCED_FACE ( 'NONE', ( #31, #676 ), #299, .F. ) ;
#802 = ORIENTED_EDGE ( 'NONE', *, *, #102, .F. ) ;
#803 = DIRECTION ( 'NONE',  ( -0.000000000000000000, 1.000000000000000000, -0.000000000000000000 ) ) ;
#804 = AXIS2_PLACEMENT_3D ( 'NONE', #454, #726, #575 ) ;
#805 = DIRECTION ( 'NONE',  ( 8.659560562354932858E-17, -0.7071067811865474617, 0.7071067811865474617 ) ) ;
#806 = CIRCLE ( 'NONE', #272, 16.25000000000000000 ) ;
#807 = ORIENTED_EDGE ( 'NONE', *, *, #959, .T. ) ;
#808 = ORIENTED_EDGE ( 'NONE', *, *, #776, .F. ) ;
#809 = CARTESIAN_POINT ( 'NONE',  ( 1.353234713057825478E-15, 37.00000000000000000, -11.05000000000000071 ) ) ;
#810 = VECTOR ( 'NONE', #205, 1000.000000000000000 ) ;
#811 = CARTESIAN_POINT ( 'NONE',  ( 0.000000000000000000, 30.00000000000000000, 0.000000000000000000 ) ) ;
#812 = DIRECTION ( 'NONE',  ( 0.000000000000000000, 1.000000000000000000, 0.000000000000000000 ) ) ;
#813 = ORIENTED_EDGE ( 'NONE', *, *, #792, .F. ) ;
#814 = ORIENTED_EDGE ( 'NONE', *, *, #329, .F. ) ;
#815 = CARTESIAN_POINT ( 'NONE',  ( 0.000000000000000000, 37.00000000000000000, 11.05000000000000071 ) ) ;
#816 = FACE_OUTER_BOUND ( 'NONE', #230, .T. ) ;
#817 = EDGE_LOOP ( 'NONE', ( #976, #530, #787, #265 ) ) ;
#818 = AXIS2_PLACEMENT_3D ( 'NONE', #1176, #998, #904 ) ;
#819 = VERTEX_POINT ( 'NONE', #665 ) ;
#820 = CARTESIAN_POINT ( 'NONE',  ( 0.000000000000000000, 35.25000000000000711, 0.000000000000000000 ) ) ;
#821 = DIRECTION ( 'NONE',  ( 0.000000000000000000, 0.000000000000000000, 1.000000000000000000 ) ) ;
#822 = ADVANCED_FACE ( 'NONE', ( #392 ), #394, .T. ) ;
#823 = CARTESIAN_POINT ( 'NONE',  ( 1.353234713057825478E-15, 30.00000000000000000, -11.05000000000000071 ) ) ;
#824 = ORIENTED_EDGE ( 'NONE', *, *, #476, .T. ) ;
#825 = MANIFOLD_SOLID_BREP ( 'alle möglichen Fasen', #994 ) ;
#826 = AXIS2_PLACEMENT_3D ( 'NONE', #403, #215, #597 ) ;
#827 = ORIENTED_EDGE ( 'NONE', *, *, #752, .F. ) ;
#828 = CARTESIAN_POINT ( 'NONE',  ( 1.622657008870243277E-15, -27.74999999999998934, 13.25000000000000178 ) ) ;
#829 = LINE ( 'NONE', #733, #675 ) ;
#830 = DIRECTION ( 'NONE',  ( 0.000000000000000000, 0.000000000000000000, 1.000000000000000000 ) ) ;
#831 = ORIENTED_EDGE ( 'NONE', *, *, #1133, .F. ) ;
#832 = DIRECTION ( 'NONE',  ( 0.000000000000000000, 0.000000000000000000, -1.000000000000000000 ) ) ;
#833 = CARTESIAN_POINT ( 'NONE',  ( 1.974742963625106631E-15, -34.99999999999999289, 15.99999999999999289 ) ) ;
#834 = PRESENTATION_STYLE_ASSIGNMENT (( #671 ) ) ;
#835 = ORIENTED_EDGE ( 'NONE', *, *, #978, .T. ) ;
#836 = PRODUCT_DEFINITION_SHAPE ( 'NONE', 'NONE',  #472 ) ;
#837 = EDGE_LOOP ( 'NONE', ( #110, #807, #157, #814 ) ) ;
#838 = CARTESIAN_POINT ( 'NONE',  ( 0.000000000000000000, -30.00000000000000000, 0.000000000000000000 ) ) ;
#839 = CARTESIAN_POINT ( 'NONE',  ( 1.990051048614449313E-15, -29.75000000000001421, -16.25000000000000000 ) ) ;
#840 = EDGE_CURVE ( 'NONE', #1072, #175, #473, .T. ) ;
#841 = CARTESIAN_POINT ( 'NONE',  ( 0.000000000000000000, -30.24999999999996447, -13.25000000000000178 ) ) ;
#842 = DIRECTION ( 'NONE',  ( 0.000000000000000000, 0.000000000000000000, -1.000000000000000000 ) ) ;
#843 = CIRCLE ( 'NONE', #487, 16.00000000000000711 ) ;
#844 = CARTESIAN_POINT ( 'NONE',  ( 0.000000000000000000, 0.000000000000000000, 0.000000000000000000 ) ) ;
#845 = CARTESIAN_POINT ( 'NONE',  ( 0.000000000000000000, 34.75000000000000000, 0.000000000000000000 ) ) ;
#846 = LINE ( 'NONE', #760, #622 ) ;
#847 = CIRCLE ( 'NONE', #239, 11.05000000000000071 ) ;
#848 = ADVANCED_FACE ( 'NONE', ( #396 ), #1127, .T. ) ;
#849 = DIRECTION ( 'NONE',  ( 0.000000000000000000, 0.000000000000000000, 1.000000000000000000 ) ) ;
#850 = CARTESIAN_POINT ( 'NONE',  ( 0.000000000000000000, -27.99999999999999645, 0.000000000000000000 ) ) ;
#851 = DIRECTION ( 'NONE',  ( -0.000000000000000000, 1.000000000000000000, -0.000000000000000000 ) ) ;
#852 = AXIS2_PLACEMENT_3D ( 'NONE', #794, #788, #537 ) ;
#853 = DIRECTION ( 'NONE',  ( 0.000000000000000000, 0.000000000000000000, -1.000000000000000000 ) ) ;
#854 = AXIS2_PLACEMENT_3D ( 'NONE', #338, #66, #240 ) ;
#855 = FACE_BOUND ( 'NONE', #596, .T. ) ;
#856 = CARTESIAN_POINT ( 'NONE',  ( 0.000000000000000000, 34.99999999999999289, 0.000000000000000000 ) ) ;
#857 = VECTOR ( 'NONE', #1080, 1000.000000000000000 ) ;
#858 = ORIENTED_EDGE ( 'NONE', *, *, #114, .F. ) ;
#859 = CONICAL_SURFACE ( 'NONE', #1015, 13.25000000000000178, 0.7853981633974691512 ) ;
#860 = APPLICATION_PROTOCOL_DEFINITION ( 'draft international standard', 'automotive_design', 1998, #19 ) ;
#861 = VERTEX_POINT ( 'NONE', #587 ) ;
#862 = DIRECTION ( 'NONE',  ( 0.000000000000000000, 0.000000000000000000, -1.000000000000000000 ) ) ;
#863 = CARTESIAN_POINT ( 'NONE',  ( 0.000000000000000000, 34.99999999999999289, 13.49999999999998401 ) ) ;
#864 = ORIENTED_EDGE ( 'NONE', *, *, #769, .T. ) ;
#865 = AXIS2_PLACEMENT_3D ( 'NONE', #42, #692, #325 ) ;
#866 = COLOUR_RGB ( '',0.7921568627450980005, 0.8196078431372548767, 0.9333333333333333481 ) ;
#867 = ORIENTED_EDGE ( 'NONE', *, *, #673, .T. ) ;
#868 = DIRECTION ( 'NONE',  ( 0.000000000000000000, 0.000000000000000000, 1.000000000000000000 ) ) ;
#869 = ORIENTED_EDGE ( 'NONE', *, *, #966, .F. ) ;
#870 = VECTOR ( 'NONE', #1162, 1000.000000000000000 ) ;
#871 = EDGE_CURVE ( 'NONE', #654, #1000, #427, .T. ) ;
#872 = ORIENTED_EDGE ( 'NONE', *, *, #772, .F. ) ;
#873 = DIRECTION ( 'NONE',  ( 0.000000000000000000, -1.000000000000000000, 0.000000000000000000 ) ) ;
#874 = DIRECTION ( 'NONE',  ( 0.000000000000000000, 1.000000000000000000, 0.000000000000000000 ) ) ;
#875 = ADVANCED_FACE ( 'NONE', ( #577 ), #120, .T. ) ;
#876 = ORIENTED_EDGE ( 'NONE', *, *, #721, .T. ) ;
#877 = ADVANCED_FACE ( 'NONE', ( #855, #35 ), #130, .T. ) ;
#878 = ORIENTED_EDGE ( 'NONE', *, *, #775, .T. ) ;
#879 = CARTESIAN_POINT ( 'NONE',  ( 1.622657008870243277E-15, 37.00000000000000000, 13.25000000000000178 ) ) ;
#880 = AXIS2_PLACEMENT_3D ( 'NONE', #34, #927, #391 ) ;
#881 = DIRECTION ( 'NONE',  ( 0.000000000000000000, 0.000000000000000000, 1.000000000000000000 ) ) ;
#882 = ORIENTED_EDGE ( 'NONE', *, *, #305, .F. ) ;
#883 = AXIS2_PLACEMENT_3D ( 'NONE', #929, #940, #1108 ) ;
#884 = CYLINDRICAL_SURFACE ( 'NONE', #782, 11.05000000000000071 ) ;
#885 = CARTESIAN_POINT ( 'NONE',  ( 0.000000000000000000, -37.00000000000000000, 0.000000000000000000 ) ) ;
#886 = VERTEX_POINT ( 'NONE', #685 ) ;
#887 = EDGE_LOOP ( 'NONE', ( #237, #907 ) ) ;
#888 = DIRECTION ( 'NONE',  ( 0.000000000000000000, 1.000000000000000000, 0.000000000000000000 ) ) ;
#889 = EDGE_CURVE ( 'NONE', #1072, #551, #386, .T. ) ;
#890 = DIRECTION ( 'NONE',  ( -0.000000000000000000, 1.000000000000000000, -0.000000000000000000 ) ) ;
#891 = ORIENTED_EDGE ( 'NONE', *, *, #689, .T. ) ;
#892 = EDGE_CURVE ( 'NONE', #243, #886, #83, .T. ) ;
#893 = AXIS2_PLACEMENT_3D ( 'NONE', #1088, #365, #379 ) ;
#894 = ORIENTED_EDGE ( 'NONE', *, *, #126, .F. ) ;
#895 = DIRECTION ( 'NONE',  ( -0.000000000000000000, 1.000000000000000000, -0.000000000000000000 ) ) ;
#896 = LINE ( 'NONE', #568, #174 ) ;
#897 = CONICAL_SURFACE ( 'NONE', #584, 16.25000000000000000, 0.7853981633974482790 ) ;
#898 = LINE ( 'NONE', #742, #1033 ) ;
#899 = ORIENTED_EDGE ( 'NONE', *, *, #303, .T. ) ;
#900 = EDGE_CURVE ( 'NONE', #162, #1102, #435, .T. ) ;
#901 = ORIENTED_EDGE ( 'NONE', *, *, #978, .F. ) ;
#902 = CARTESIAN_POINT ( 'NONE',  ( 1.653273178848924895E-15, 34.99999999999999289, -13.49999999999998401 ) ) ;
#903 = AXIS2_PLACEMENT_3D ( 'NONE', #1024, #1113, #493 ) ;
#904 = DIRECTION ( 'NONE',  ( 0.000000000000000000, 0.000000000000000000, -1.000000000000000000 ) ) ;
#905 = DIRECTION ( 'NONE',  ( -0.000000000000000000, 1.000000000000000000, -0.000000000000000000 ) ) ;
#906 = ORIENTED_EDGE ( 'NONE', *, *, #996, .F. ) ;
#907 = ORIENTED_EDGE ( 'NONE', *, *, #368, .T. ) ;
#908 = CARTESIAN_POINT ( 'NONE',  ( 0.000000000000000000, -29.75000000000001421, 0.000000000000000000 ) ) ;
#909 = CARTESIAN_POINT ( 'NONE',  ( 0.000000000000000000, 34.99999999999999289, 0.000000000000000000 ) ) ;
#910 = FACE_OUTER_BOUND ( 'NONE', #739, .T. ) ;
#911 = ORIENTED_EDGE ( 'NONE', *, *, #6, .T. ) ;
#912 = CONICAL_SURFACE ( 'NONE', #402, 13.25000000000000178, 0.7853981633974552734 ) ;
#913 = VERTEX_POINT ( 'NONE', #809 ) ;
#914 = DIRECTION ( 'NONE',  ( 0.000000000000000000, -1.000000000000000000, 0.000000000000000000 ) ) ;
#915 = CARTESIAN_POINT ( 'NONE',  ( 0.000000000000000000, -28.25000000000001066, 16.25000000000000000 ) ) ;
#916 = AXIS2_PLACEMENT_3D ( 'NONE', #838, #1073, #926 ) ;
#917 = CARTESIAN_POINT ( 'NONE',  ( 1.990051048614449313E-15, -29.75000000000001421, -16.25000000000000000 ) ) ;
#918 = DIRECTION ( 'NONE',  ( 0.000000000000000000, 0.000000000000000000, -1.000000000000000000 ) ) ;
#919 = ORIENTED_EDGE ( 'NONE', *, *, #164, .T. ) ;
#920 = DIRECTION ( 'NONE',  ( 0.000000000000000000, -1.000000000000000000, 0.000000000000000000 ) ) ;
#921 = CARTESIAN_POINT ( 'NONE',  ( 0.000000000000000000, -29.99999999999999289, 0.000000000000000000 ) ) ;
#922 = AXIS2_PLACEMENT_3D ( 'NONE', #686, #486, #755 ) ;
#923 = DIRECTION ( 'NONE',  ( 0.000000000000000000, 0.000000000000000000, -1.000000000000000000 ) ) ;
#924 = DIRECTION ( 'NONE',  ( 0.000000000000000000, 1.000000000000000000, 0.000000000000000000 ) ) ;
#925 = VERTEX_POINT ( 'NONE', #982 ) ;
#926 = DIRECTION ( 'NONE',  ( 0.000000000000000000, 0.000000000000000000, -1.000000000000000000 ) ) ;
#927 = DIRECTION ( 'NONE',  ( 0.000000000000000000, -1.000000000000000000, 0.000000000000000000 ) ) ;
#928 = EDGE_CURVE ( 'NONE', #962, #1153, #210, .T. ) ;
#929 = CARTESIAN_POINT ( 'NONE',  ( 0.000000000000000000, 37.00000000000000000, 0.000000000000000000 ) ) ;
#930 = PLANE ( 'NONE',  #25 ) ;
#931 = EDGE_CURVE ( 'NONE', #356, #45, #623, .T. ) ;
#932 = ORIENTED_EDGE ( 'NONE', *, *, #6, .F. ) ;
#933 = VECTOR ( 'NONE', #1041, 1000.000000000000000 ) ;
#934 = SHAPE_DEFINITION_REPRESENTATION ( #836, #165 ) ;
#935 = DIRECTION ( 'NONE',  ( 0.000000000000000000, 0.000000000000000000, -1.000000000000000000 ) ) ;
#936 = DIRECTION ( 'NONE',  ( 0.000000000000000000, 1.000000000000000000, 0.000000000000000000 ) ) ;
#937 = AXIS2_PLACEMENT_3D ( 'NONE', #324, #603, #138 ) ;
#938 = EDGE_CURVE ( 'NONE', #745, #925, #1004, .T. ) ;
#939 = LINE ( 'NONE', #758, #542 ) ;
#940 = DIRECTION ( 'NONE',  ( 0.000000000000000000, 1.000000000000000000, 0.000000000000000000 ) ) ;
#941 = CARTESIAN_POINT ( 'NONE',  ( 0.000000000000000000, 35.25000000000000711, 0.000000000000000000 ) ) ;
#942 = CIRCLE ( 'NONE', #279, 15.99999999999999289 ) ;
#943 = CARTESIAN_POINT ( 'NONE',  ( 0.000000000000000000, 36.75000000000000711, 16.25000000000000000 ) ) ;
#944 = ADVANCED_FACE ( 'NONE', ( #527 ), #884, .F. ) ;
#945 = DIRECTION ( 'NONE',  ( 0.000000000000000000, 0.000000000000000000, -1.000000000000000000 ) ) ;
#946 = FACE_OUTER_BOUND ( 'NONE', #987, .T. ) ;
#947 = VECTOR ( 'NONE', #1050, 1000.000000000000000 ) ;
#948 = VERTEX_POINT ( 'NONE', #419 ) ;
#949 = DIRECTION ( 'NONE',  ( -0.000000000000000000, -1.000000000000000000, -0.000000000000000000 ) ) ;
#950 = AXIS2_PLACEMENT_3D ( 'NONE', #969, #699, #619 ) ;
#951 =( LENGTH_UNIT ( ) NAMED_UNIT ( * ) SI_UNIT ( .MILLI., .METRE. ) );
#952 = DIRECTION ( 'NONE',  ( -0.000000000000000000, -1.000000000000000000, -0.000000000000000000 ) ) ;
#953 = EDGE_LOOP ( 'NONE', ( #1042, #38 ) ) ;
#954 = CONICAL_SURFACE ( 'NONE', #880, 13.25000000000000178, 0.7853981633974552734 ) ;
#955 = ORIENTED_EDGE ( 'NONE', *, *, #974, .T. ) ;
#956 = FACE_OUTER_BOUND ( 'NONE', #89, .T. ) ;
#957 = CARTESIAN_POINT ( 'NONE',  ( 0.000000000000000000, -29.99999999999999289, 16.00000000000000711 ) ) ;
#958 = ORIENTED_EDGE ( 'NONE', *, *, #633, .T. ) ;
#959 = EDGE_CURVE ( 'NONE', #1160, #557, #1154, .T. ) ;
#960 = CIRCLE ( 'NONE', #607, 11.05000000000000071 ) ;
#961 = VECTOR ( 'NONE', #652, 1000.000000000000000 ) ;
#962 = VERTEX_POINT ( 'NONE', #352 ) ;
#963 = DIRECTION ( 'NONE',  ( 0.000000000000000000, 0.000000000000000000, 1.000000000000000000 ) ) ;
#964 = DIRECTION ( 'NONE',  ( 0.000000000000000000, 0.000000000000000000, 1.000000000000000000 ) ) ;
#965 = ORIENTED_EDGE ( 'NONE', *, *, #49, .T. ) ;
#966 = EDGE_CURVE ( 'NONE', #208, #948, #147, .T. ) ;
#967 = EDGE_LOOP ( 'NONE', ( #986, #48, #271, #181 ) ) ;
#968 = DIRECTION ( 'NONE',  ( 0.000000000000000000, -0.000000000000000000, -1.000000000000000000 ) ) ;
#969 = CARTESIAN_POINT ( 'NONE',  ( 0.000000000000000000, 35.25000000000000711, 0.000000000000000000 ) ) ;
#970 = CARTESIAN_POINT ( 'NONE',  ( 0.000000000000000000, -27.99999999999999645, -15.99999999999999289 ) ) ;
#971 = CARTESIAN_POINT ( 'NONE',  ( 0.000000000000000000, 30.00000000000000000, 0.000000000000000000 ) ) ;
#972 = ORIENTED_EDGE ( 'NONE', *, *, #40, .F. ) ;
#973 = EDGE_CURVE ( 'NONE', #962, #175, #711, .T. ) ;
#974 = EDGE_CURVE ( 'NONE', #886, #243, #308, .T. ) ;
#975 = VECTOR ( 'NONE', #20, 1000.000000000000000 ) ;
#976 = ORIENTED_EDGE ( 'NONE', *, *, #1118, .F. ) ;
#977 = DIRECTION ( 'NONE',  ( 0.000000000000000000, 0.000000000000000000, 1.000000000000000000 ) ) ;
#978 = EDGE_CURVE ( 'NONE', #783, #436, #495, .T. ) ;
#979 = DIRECTION ( 'NONE',  ( 0.000000000000000000, 1.000000000000000000, 0.000000000000000000 ) ) ;
#980 = ORIENTED_EDGE ( 'NONE', *, *, #219, .F. ) ;
#981 = ORIENTED_EDGE ( 'NONE', *, *, #453, .T. ) ;
#982 = CARTESIAN_POINT ( 'NONE',  ( 0.000000000000000000, 30.00000000000000000, 11.05000000000000071 ) ) ;
#983 = CYLINDRICAL_SURFACE ( 'NONE', #1134, 16.25000000000000000 ) ;
#984 = DIRECTION ( 'NONE',  ( -0.000000000000000000, 1.000000000000000000, -0.000000000000000000 ) ) ;
#985 = CIRCLE ( 'NONE', #366, 13.49999999999998401 ) ;
#986 = ORIENTED_EDGE ( 'NONE', *, *, #478, .F. ) ;
#987 = EDGE_LOOP ( 'NONE', ( #653, #179, #1017, #1052 ) ) ;
#988 = FACE_OUTER_BOUND ( 'NONE', #376, .T. ) ;
#989 = DIRECTION ( 'NONE',  ( -0.000000000000000000, 1.000000000000000000, -0.000000000000000000 ) ) ;
#990 = AXIS2_PLACEMENT_3D ( 'NONE', #297, #664, #1019 ) ;
#991 = CARTESIAN_POINT ( 'NONE',  ( 1.974742963625107814E-15, -37.00000000000000000, -16.00000000000000711 ) ) ;
#992 = EDGE_LOOP ( 'NONE', ( #919, #965 ) ) ;
#993 = EDGE_LOOP ( 'NONE', ( #980, #143, #1157, #458 ) ) ;
#994 = CLOSED_SHELL ( 'NONE', ( #565, #510, #543, #1065, #1128, #738, #349, #169, #207, #759, #1001, #388, #944, #1099, #437, #28, #173, #550, #4, #728, #142, #744, #801, #261, #877, #601, #1016, #112, #564, #167, #753, #109, #1104, #1075, #347, #1107, #822, #444, #507, #848, #516, #875, #401, #322 ) ) ;
#995 = DIRECTION ( 'NONE',  ( -0.000000000000000000, 1.000000000000000000, -0.000000000000000000 ) ) ;
#996 = EDGE_CURVE ( 'NONE', #1146, #1173, #609, .T. ) ;
#997 = PRODUCT ( 'Roller', 'Roller', '', ( #762 ) ) ;
#998 = DIRECTION ( 'NONE',  ( 0.000000000000000000, -1.000000000000000000, 0.000000000000000000 ) ) ;
#999 = CYLINDRICAL_SURFACE ( 'NONE', #712, 7.000000000000000888 ) ;
#1000 = VERTEX_POINT ( 'NONE', #523 ) ;
#1001 = ADVANCED_FACE ( 'NONE', ( #1067 ), #337, .T. ) ;
#1002 = EDGE_LOOP ( 'NONE', ( #16, #358, #450, #827 ) ) ;
#1003 = CARTESIAN_POINT ( 'NONE',  ( 1.990051048614449313E-15, 36.75000000000000711, -16.25000000000000000 ) ) ;
#1004 = CIRCLE ( 'NONE', #363, 11.05000000000000071 ) ;
#1005 = CARTESIAN_POINT ( 'NONE',  ( 0.000000000000000000, 35.25000000000000711, 16.25000000000000000 ) ) ;
#1006 = FACE_OUTER_BOUND ( 'NONE', #383, .T. ) ;
#1007 = FACE_OUTER_BOUND ( 'NONE', #1049, .T. ) ;
#1008 = AXIS2_PLACEMENT_3D ( 'NONE', #1081, #360, #374 ) ;
#1009 = EDGE_LOOP ( 'NONE', ( #255, #899 ) ) ;
#1010 = LINE ( 'NONE', #828, #344 ) ;
#1011 = CARTESIAN_POINT ( 'NONE',  ( 1.990051048614449313E-15, -36.75000000000000711, -16.25000000000000000 ) ) ;
#1012 = CIRCLE ( 'NONE', #916, 7.000000000000000888 ) ;
#1013 = PLANE ( 'NONE',  #668 ) ;
#1014 = CARTESIAN_POINT ( 'NONE',  ( 1.622657008870243277E-15, -34.75000000000000711, 13.25000000000000178 ) ) ;
#1015 = AXIS2_PLACEMENT_3D ( 'NONE', #1031, #220, #105 ) ;
#1016 = ADVANCED_FACE ( 'NONE', ( #613, #343 ), #519, .T. ) ;
#1017 = ORIENTED_EDGE ( 'NONE', *, *, #209, .T. ) ;
#1018 = DIRECTION ( 'NONE',  ( -0.000000000000000000, 1.000000000000000000, -0.000000000000000000 ) ) ;
#1019 = DIRECTION ( 'NONE',  ( 0.000000000000000000, 0.000000000000000000, 1.000000000000000000 ) ) ;
#1020 = MECHANICAL_DESIGN_GEOMETRIC_PRESENTATION_REPRESENTATION (  '', ( #44 ), #278 ) ;
#1021 = ORIENTED_EDGE ( 'NONE', *, *, #269, .F. ) ;
#1022 = EDGE_LOOP ( 'NONE', ( #166, #291 ) ) ;
#1023 = CARTESIAN_POINT ( 'NONE',  ( 0.000000000000000000, -29.99999999999999289, 0.000000000000000000 ) ) ;
#1024 = CARTESIAN_POINT ( 'NONE',  ( 0.000000000000000000, -37.00000000000000000, 0.000000000000000000 ) ) ;
#1025 = DIRECTION ( 'NONE',  ( 0.000000000000000000, 0.000000000000000000, -1.000000000000000000 ) ) ;
#1026 = DIRECTION ( 'NONE',  ( -0.000000000000000000, 1.000000000000000000, -0.000000000000000000 ) ) ;
#1027 = DIRECTION ( 'NONE',  ( 0.000000000000000000, 0.000000000000000000, 1.000000000000000000 ) ) ;
#1028 = DIRECTION ( 'NONE',  ( -0.000000000000000000, -1.000000000000000000, -0.000000000000000000 ) ) ;
#1029 = CIRCLE ( 'NONE', #153, 13.25000000000000178 ) ;
#1030 = EDGE_CURVE ( 'NONE', #654, #819, #425, .T. ) ;
#1031 = CARTESIAN_POINT ( 'NONE',  ( 0.000000000000000000, -34.75000000000000711, 0.000000000000000000 ) ) ;
#1032 = LINE ( 'NONE', #863, #58 ) ;
#1033 = VECTOR ( 'NONE', #638, 1000.000000000000114 ) ;
#1034 = DIRECTION ( 'NONE',  ( 1.000000000000000000, 0.000000000000000000, 0.000000000000000000 ) ) ;
#1035 = VERTEX_POINT ( 'NONE', #701 ) ;
#1036 = CARTESIAN_POINT ( 'NONE',  ( 0.000000000000000000, -30.00000000000000000, 0.000000000000000000 ) ) ;
#1037 =( NAMED_UNIT ( * ) PLANE_ANGLE_UNIT ( ) SI_UNIT ( $, .RADIAN. ) );
#1038 = DIRECTION ( 'NONE',  ( 8.659560562354994488E-17, 0.7071067811865425767, -0.7071067811865525687 ) ) ;
#1039 = ORIENTED_EDGE ( 'NONE', *, *, #136, .T. ) ;
#1040 = CARTESIAN_POINT ( 'NONE',  ( 0.000000000000000000, -28.25000000000001066, 0.000000000000000000 ) ) ;
#1041 = DIRECTION ( 'NONE',  ( -0.000000000000000000, -1.000000000000000000, -0.000000000000000000 ) ) ;
#1042 = ORIENTED_EDGE ( 'NONE', *, *, #1085, .T. ) ;
#1043 = CONICAL_SURFACE ( 'NONE', #641, 16.25000000000000000, 0.7853981633974760346 ) ;
#1044 = ORIENTED_EDGE ( 'NONE', *, *, #1163, .F. ) ;
#1045 = DIRECTION ( 'NONE',  ( 0.000000000000000000, -1.000000000000000000, 0.000000000000000000 ) ) ;
#1046 = DIRECTION ( 'NONE',  ( 0.000000000000000000, 0.000000000000000000, -1.000000000000000000 ) ) ;
#1047 = EDGE_LOOP ( 'NONE', ( #796, #791, #82, #700 ) ) ;
#1048 = AXIS2_PLACEMENT_3D ( 'NONE', #311, #588, #1025 ) ;
#1049 = EDGE_LOOP ( 'NONE', ( #301, #390, #891, #580 ) ) ;
#1050 = DIRECTION ( 'NONE',  ( 0.000000000000000000, -0.7071067811865426878, -0.7071067811865524577 ) ) ;
#1051 = DIRECTION ( 'NONE',  ( 0.000000000000000000, 0.000000000000000000, 1.000000000000000000 ) ) ;
#1052 = ORIENTED_EDGE ( 'NONE', *, *, #43, .T. ) ;
#1053 = EDGE_LOOP ( 'NONE', ( #1079, #506 ) ) ;
#1054 = DIRECTION ( 'NONE',  ( -0.000000000000000000, -1.000000000000000000, -0.000000000000000000 ) ) ;
#1055 = DIRECTION ( 'NONE',  ( 8.659560562354814529E-17, -0.7071067811865573427, 0.7071067811865378028 ) ) ;
#1056 = EDGE_CURVE ( 'NONE', #1000, #654, #481, .T. ) ;
#1057 = EDGE_LOOP ( 'NONE', ( #148, #286 ) ) ;
#1058 = AXIS2_PLACEMENT_3D ( 'NONE', #627, #446, #248 ) ;
#1059 = ORIENTED_EDGE ( 'NONE', *, *, #889, .F. ) ;
#1060 = DIRECTION ( 'NONE',  ( 0.000000000000000000, 0.000000000000000000, 1.000000000000000000 ) ) ;
#1061 = DIRECTION ( 'NONE',  ( 0.000000000000000000, 0.000000000000000000, 1.000000000000000000 ) ) ;
#1062 = EDGE_LOOP ( 'NONE', ( #894, #858, #981, #541 ) ) ;
#1063 = CIRCLE ( 'NONE', #490, 16.25000000000000000 ) ;
#1064 = AXIS2_PLACEMENT_3D ( 'NONE', #729, #456, #631 ) ;
#1065 = ADVANCED_FACE ( 'NONE', ( #707 ), #502, .T. ) ;
#1066 = ORIENTED_EDGE ( 'NONE', *, *, #346, .F. ) ;
#1067 = FACE_OUTER_BOUND ( 'NONE', #706, .T. ) ;
#1068 = DIRECTION ( 'NONE',  ( 0.000000000000000000, -0.7071067811865474617, -0.7071067811865474617 ) ) ;
#1069 = CARTESIAN_POINT ( 'NONE',  ( 0.000000000000000000, -37.00000000000000711, 7.000000000000000888 ) ) ;
#1070 = ORIENTED_EDGE ( 'NONE', *, *, #1140, .T. ) ;
#1071 = AXIS2_PLACEMENT_3D ( 'NONE', #592, #1121, #945 ) ;
#1072 = VERTEX_POINT ( 'NONE', #91 ) ;
#1073 = DIRECTION ( 'NONE',  ( -0.000000000000000000, 1.000000000000000000, -0.000000000000000000 ) ) ;
#1074 = DIRECTION ( 'NONE',  ( 8.659560562354932858E-17, 0.7071067811865474617, -0.7071067811865474617 ) ) ;
#1075 = ADVANCED_FACE ( 'NONE', ( #461, #655 ), #281, .T. ) ;
#1076 = DIRECTION ( 'NONE',  ( 0.000000000000000000, -0.000000000000000000, 1.000000000000000000 ) ) ;
#1077 = AXIS2_PLACEMENT_3D ( 'NONE', #885, #434, #1051 ) ;
#1078 = ORIENTED_EDGE ( 'NONE', *, *, #227, .T. ) ;
#1079 = ORIENTED_EDGE ( 'NONE', *, *, #351, .T. ) ;
#1080 = DIRECTION ( 'NONE',  ( -0.000000000000000000, -1.000000000000000000, -0.000000000000000000 ) ) ;
#1081 = CARTESIAN_POINT ( 'NONE',  ( 0.000000000000000000, 36.75000000000000711, 0.000000000000000000 ) ) ;
#1082 = AXIS2_PLACEMENT_3D ( 'NONE', #845, #763, #862 ) ;
#1083 = CARTESIAN_POINT ( 'NONE',  ( 1.622657008870243277E-15, -34.75000000000000711, 13.25000000000000178 ) ) ;
#1084 = DIRECTION ( 'NONE',  ( 0.000000000000000000, -1.000000000000000000, 0.000000000000000000 ) ) ;
#1085 = EDGE_CURVE ( 'NONE', #948, #208, #1012, .T. ) ;
#1086 = ORIENTED_EDGE ( 'NONE', *, *, #569, .F. ) ;
#1087 = CIRCLE ( 'NONE', #756, 11.05000000000000071 ) ;
#1088 = CARTESIAN_POINT ( 'NONE',  ( 0.000000000000000000, 37.00000000000000000, 0.000000000000000000 ) ) ;
#1089 = DIRECTION ( 'NONE',  ( 0.000000000000000000, -1.000000000000000000, 0.000000000000000000 ) ) ;
#1090 = CARTESIAN_POINT ( 'NONE',  ( 0.000000000000000000, 37.00000000000000000, 0.000000000000000000 ) ) ;
#1091 = VERTEX_POINT ( 'NONE', #11 ) ;
#1092 = PRODUCT_DEFINITION_FORMATION_WITH_SPECIFIED_SOURCE ( 'ANY', '', #997, .NOT_KNOWN. ) ;
#1093 = ORIENTED_EDGE ( 'NONE', *, *, #974, .F. ) ;
#1094 = CARTESIAN_POINT ( 'NONE',  ( 1.622657008870243277E-15, 37.00000000000000000, 13.25000000000000178 ) ) ;
#1095 = VECTOR ( 'NONE', #145, 1000.000000000000000 ) ;
#1096 = LINE ( 'NONE', #1011, #267 ) ;
#1097 = CARTESIAN_POINT ( 'NONE',  ( 0.000000000000000000, -30.00000000000000000, 0.000000000000000000 ) ) ;
#1098 = DIRECTION ( 'NONE',  ( -0.000000000000000000, -1.000000000000000000, -0.000000000000000000 ) ) ;
#1099 = ADVANCED_FACE ( 'NONE', ( #86 ), #1175, .T. ) ;
#1100 = EDGE_CURVE ( 'NONE', #208, #430, #203, .T. ) ;
#1101 = CIRCLE ( 'NONE', #704, 13.49999999999997691 ) ;
#1102 = VERTEX_POINT ( 'NONE', #104 ) ;
#1103 = AXIS2_PLACEMENT_3D ( 'NONE', #1105, #914, #98 ) ;
#1104 = ADVANCED_FACE ( 'NONE', ( #17 ), #266, .T. ) ;
#1105 = CARTESIAN_POINT ( 'NONE',  ( 0.000000000000000000, -27.99999999999999645, 0.000000000000000000 ) ) ;
#1106 = CARTESIAN_POINT ( 'NONE',  ( 0.000000000000000000, -36.75000000000000711, 16.25000000000000000 ) ) ;
#1107 = ADVANCED_FACE ( 'NONE', ( #988 ), #132, .T. ) ;
#1108 = DIRECTION ( 'NONE',  ( 0.000000000000000000, 0.000000000000000000, 1.000000000000000000 ) ) ;
#1109 = ORIENTED_EDGE ( 'NONE', *, *, #256, .T. ) ;
#1110 = EDGE_LOOP ( 'NONE', ( #1143, #669, #326, #621 ) ) ;
#1111 = DIRECTION ( 'NONE',  ( 0.000000000000000000, -1.000000000000000000, 0.000000000000000000 ) ) ;
#1112 = AXIS2_PLACEMENT_3D ( 'NONE', #192, #648, #918 ) ;
#1113 = DIRECTION ( 'NONE',  ( 0.000000000000000000, 1.000000000000000000, 0.000000000000000000 ) ) ;
#1114 = FACE_OUTER_BOUND ( 'NONE', #837, .T. ) ;
#1115 = DIRECTION ( 'NONE',  ( 0.000000000000000000, 0.7071067811865474617, 0.7071067811865474617 ) ) ;
#1116 =( NAMED_UNIT ( * ) SI_UNIT ( $, .STERADIAN. ) SOLID_ANGLE_UNIT ( ) );
#1117 = DIRECTION ( 'NONE',  ( 0.000000000000000000, 0.000000000000000000, 1.000000000000000000 ) ) ;
#1118 = EDGE_CURVE ( 'NONE', #175, #1035, #1010, .T. ) ;
#1119 = CIRCLE ( 'NONE', #559, 15.99999999999999289 ) ;
#1120 = DIRECTION ( 'NONE',  ( 0.000000000000000000, 0.7071067811865279218, 0.7071067811865671127 ) ) ;
#1121 = DIRECTION ( 'NONE',  ( 0.000000000000000000, -1.000000000000000000, 0.000000000000000000 ) ) ;
#1122 = CARTESIAN_POINT ( 'NONE',  ( 0.000000000000000000, -27.99999999999999645, 13.25000000000000178 ) ) ;
#1123 = FACE_OUTER_BOUND ( 'NONE', #474, .T. ) ;
#1124 = DIRECTION ( 'NONE',  ( 0.000000000000000000, 0.000000000000000000, 1.000000000000000000 ) ) ;
#1125 = CIRCLE ( 'NONE', #865, 15.99999999999998579 ) ;
#1126 = CYLINDRICAL_SURFACE ( 'NONE', #922, 16.25000000000000000 ) ;
#1127 = CONICAL_SURFACE ( 'NONE', #97, 15.99999999999999289, 0.7853981633974346233 ) ;
#1128 = ADVANCED_FACE ( 'NONE', ( #732 ), #193, .T. ) ;
#1129 = ORIENTED_EDGE ( 'NONE', *, *, #1100, .T. ) ;
#1130 = DIRECTION ( 'NONE',  ( 0.000000000000000000, 0.000000000000000000, 1.000000000000000000 ) ) ;
#1131 = CARTESIAN_POINT ( 'NONE',  ( 0.000000000000000000, -34.99999999999999289, 0.000000000000000000 ) ) ;
#1132 = ORIENTED_EDGE ( 'NONE', *, *, #43, .F. ) ;
#1133 = EDGE_CURVE ( 'NONE', #551, #1035, #658, .T. ) ;
#1134 = AXIS2_PLACEMENT_3D ( 'NONE', #288, #92, #469 ) ;
#1135 = ORIENTED_EDGE ( 'NONE', *, *, #1056, .T. ) ;
#1136 = DIRECTION ( 'NONE',  ( 0.000000000000000000, 0.000000000000000000, 1.000000000000000000 ) ) ;
#1137 = VERTEX_POINT ( 'NONE', #468 ) ;
#1138 = EDGE_LOOP ( 'NONE', ( #869, #1129, #690, #872 ) ) ;
#1139 = DIRECTION ( 'NONE',  ( -0.000000000000000000, 1.000000000000000000, -0.000000000000000000 ) ) ;
#1140 = EDGE_CURVE ( 'NONE', #1160, #649, #127, .T. ) ;
#1141 = CARTESIAN_POINT ( 'NONE',  ( 0.000000000000000000, -29.75000000000001421, 16.25000000000000000 ) ) ;
#1142 = VERTEX_POINT ( 'NONE', #1003 ) ;
#1143 = ORIENTED_EDGE ( 'NONE', *, *, #959, .F. ) ;
#1144 = DIRECTION ( 'NONE',  ( 0.000000000000000000, -1.000000000000000000, 0.000000000000000000 ) ) ;
#1145 = DIRECTION ( 'NONE',  ( -0.000000000000000000, 1.000000000000000000, -0.000000000000000000 ) ) ;
#1146 = VERTEX_POINT ( 'NONE', #650 ) ;
#1147 = AXIS2_PLACEMENT_3D ( 'NONE', #252, #151, #65 ) ;
#1148 = ORIENTED_EDGE ( 'NONE', *, *, #233, .F. ) ;
#1149 = CARTESIAN_POINT ( 'NONE',  ( 0.000000000000000000, -30.24999999999996447, 0.000000000000000000 ) ) ;
#1150 = LINE ( 'NONE', #52, #327 ) ;
#1151 = CIRCLE ( 'NONE', #785, 7.000000000000000888 ) ;
#1152 = EDGE_LOOP ( 'NONE', ( #566, #341, #418, #906 ) ) ;
#1153 = VERTEX_POINT ( 'NONE', #295 ) ;
#1154 = LINE ( 'NONE', #618, #518 ) ;
#1155 = CARTESIAN_POINT ( 'NONE',  ( 1.959434878635764343E-15, -27.99999999999999645, 15.99999999999999289 ) ) ;
#1156 = LINE ( 'NONE', #1171, #777 ) ;
#1157 = ORIENTED_EDGE ( 'NONE', *, *, #227, .F. ) ;
#1158 = AXIS2_PLACEMENT_3D ( 'NONE', #1131, #1028, #32 ) ;
#1159 = AXIS2_PLACEMENT_3D ( 'NONE', #26, #310, #1027 ) ;
#1160 = VERTEX_POINT ( 'NONE', #663 ) ;
#1161 = EDGE_CURVE ( 'NONE', #436, #37, #740, .T. ) ;
#1162 = DIRECTION ( 'NONE',  ( 0.000000000000000000, -0.7071067811865328068, -0.7071067811865622277 ) ) ;
#1163 = EDGE_CURVE ( 'NONE', #382, #96, #389, .T. ) ;
#1164 = DIRECTION ( 'NONE',  ( -0.000000000000000000, 1.000000000000000000, -0.000000000000000000 ) ) ;
#1165 = CARTESIAN_POINT ( 'NONE',  ( 0.000000000000000000, -35.25000000000000000, 16.25000000000000000 ) ) ;
#1166 = ORIENTED_EDGE ( 'NONE', *, *, #605, .T. ) ;
#1167 = ORIENTED_EDGE ( 'NONE', *, *, #871, .T. ) ;
#1168 =( LENGTH_UNIT ( ) NAMED_UNIT ( * ) SI_UNIT ( .MILLI., .METRE. ) );
#1169 = EDGE_CURVE ( 'NONE', #436, #783, #538, .T. ) ;
#1170 = DIRECTION ( 'NONE',  ( -0.000000000000000000, 1.000000000000000000, -0.000000000000000000 ) ) ;
#1171 = CARTESIAN_POINT ( 'NONE',  ( 0.000000000000000000, -34.99999999999999289, -15.99999999999999289 ) ) ;
#1172 = CIRCLE ( 'NONE', #1008, 16.25000000000000000 ) ;
#1173 = VERTEX_POINT ( 'NONE', #545 ) ;
#1174 = EDGE_LOOP ( 'NONE', ( #1167, #635, #625, #251 ) ) ;
#1175 = CYLINDRICAL_SURFACE ( 'NONE', #250, 16.25000000000000000 ) ;
#1176 = CARTESIAN_POINT ( 'NONE',  ( 0.000000000000000000, -34.99999999999999289, 0.000000000000000000 ) ) ;
#1177 = AXIS2_PLACEMENT_3D ( 'NONE', #629, #1089, #5 ) ;
#1178 = CARTESIAN_POINT ( 'NONE',  ( 0.000000000000000000, -29.99999999999999289, 13.49999999999997691 ) ) ;
#1179 = VERTEX_POINT ( 'NONE', #902 ) ;
ENDSEC;
END-ISO-10303-21;
