ISO-10303-21;
HEADER;
FILE_DESCRIPTION (( 'STEP AP214' ),
    '1' );
FILE_NAME ('Tray.STEP',
    '2024-02-06T19:33:26',
    ( '' ),
    ( '' ),
    'SwSTEP 2.0',
    'SolidWorks 2023',
    '' );
FILE_SCHEMA (( 'AUTOMOTIVE_DESIGN' ));
ENDSEC;

DATA;
#1 = CARTESIAN_POINT ( 'NONE',  ( 68.00000000000001421, 10.00000000000000000, 120.0000000000000142 ) ) ;
#2 = VECTOR ( 'NONE', #619, 1000.000000000000000 ) ;
#3 = DIRECTION ( 'NONE',  ( 0.000000000000000000, 0.000000000000000000, 1.000000000000000000 ) ) ;
#4 = ORIENTED_EDGE ( 'NONE', *, *, #321, .T. ) ;
#5 = DIRECTION ( 'NONE',  ( 0.000000000000000000, 1.000000000000000000, 0.000000000000000000 ) ) ;
#6 = DIRECTION ( 'NONE',  ( 0.000000000000000000, 0.000000000000000000, 1.000000000000000000 ) ) ;
#7 = CIRCLE ( 'NONE', #602, 11.49999999999999645 ) ;
#8 = ORIENTED_EDGE ( 'NONE', *, *, #597, .T. ) ;
#9 = CARTESIAN_POINT ( 'NONE',  ( 79.49999999999997158, 11.50000000000000000, -119.9999999999999858 ) ) ;
#10 = DIRECTION ( 'NONE',  ( 1.734723475976807094E-16, -0.000000000000000000, 1.000000000000000000 ) ) ;
#11 = DIRECTION ( 'NONE',  ( 0.000000000000000000, 0.000000000000000000, 1.000000000000000000 ) ) ;
#12 = EDGE_CURVE ( 'NONE', #560, #361, #543, .T. ) ;
#13 = ORIENTED_EDGE ( 'NONE', *, *, #97, .T. ) ;
#14 = CARTESIAN_POINT ( 'NONE',  ( -81.50000000000000000, 10.00000000000000000, 118.0000000000000142 ) ) ;
#15 = LINE ( 'NONE', #80, #300 ) ;
#16 = ORIENTED_EDGE ( 'NONE', *, *, #127, .F. ) ;
#17 = ORIENTED_EDGE ( 'NONE', *, *, #549, .F. ) ;
#18 = EDGE_CURVE ( 'NONE', #206, #692, #622, .T. ) ;
#19 = AXIS2_PLACEMENT_3D ( 'NONE', #466, #226, #3 ) ;
#20 = LINE ( 'NONE', #651, #142 ) ;
#21 = DIRECTION ( 'NONE',  ( -1.000000000000000000, 0.000000000000000000, -0.000000000000000000 ) ) ;
#22 = ORIENTED_EDGE ( 'NONE', *, *, #640, .F. ) ;
#23 = VERTEX_POINT ( 'NONE', #222 ) ;
#24 = VECTOR ( 'NONE', #165, 1000.000000000000000 ) ;
#25 = PLANE ( 'NONE',  #693 ) ;
#26 = ORIENTED_EDGE ( 'NONE', *, *, #202, .T. ) ;
#27 = EDGE_LOOP ( 'NONE', ( #718, #8, #506, #146 ) ) ;
#28 = VECTOR ( 'NONE', #583, 1000.000000000000000 ) ;
#29 = ORIENTED_EDGE ( 'NONE', *, *, #349, .T. ) ;
#30 = DIRECTION ( 'NONE',  ( -1.734723475976807094E-16, -0.000000000000000000, -1.000000000000000000 ) ) ;
#31 = EDGE_LOOP ( 'NONE', ( #416, #4, #198, #47 ) ) ;
#32 = VECTOR ( 'NONE', #33, 1000.000000000000000 ) ;
#33 = DIRECTION ( 'NONE',  ( 0.000000000000000000, -1.000000000000000000, 0.000000000000000000 ) ) ;
#34 =( GEOMETRIC_REPRESENTATION_CONTEXT ( 3 ) GLOBAL_UNCERTAINTY_ASSIGNED_CONTEXT ( ( #265 ) ) GLOBAL_UNIT_ASSIGNED_CONTEXT ( ( #616, #444, #45 ) ) REPRESENTATION_CONTEXT ( 'NONE', 'WORKASPACE' ) );
#35 = ORIENTED_EDGE ( 'NONE', *, *, #691, .T. ) ;
#36 = FACE_OUTER_BOUND ( 'NONE', #352, .T. ) ;
#37 = CARTESIAN_POINT ( 'NONE',  ( 79.50000000000001421, 10.00000000000000000, 106.5000000000000000 ) ) ;
#38 = ORIENTED_EDGE ( 'NONE', *, *, #214, .T. ) ;
#39 = AXIS2_PLACEMENT_3D ( 'NONE', #524, #520, #406 ) ;
#40 = FACE_OUTER_BOUND ( 'NONE', #486, .T. ) ;
#41 = VERTEX_POINT ( 'NONE', #445 ) ;
#42 = LINE ( 'NONE', #606, #188 ) ;
#43 = APPLICATION_CONTEXT ( 'automotive_design' ) ;
#44 = LINE ( 'NONE', #728, #135 ) ;
#45 =( NAMED_UNIT ( * ) SI_UNIT ( $, .STERADIAN. ) SOLID_ANGLE_UNIT ( ) );
#46 = VECTOR ( 'NONE', #236, 1000.000000000000000 ) ;
#47 = ORIENTED_EDGE ( 'NONE', *, *, #650, .F. ) ;
#48 = AXIS2_PLACEMENT_3D ( 'NONE', #327, #671, #609 ) ;
#49 = FACE_OUTER_BOUND ( 'NONE', #145, .T. ) ;
#50 = CARTESIAN_POINT ( 'NONE',  ( 68.00000000000001421, 11.50000000000000000, 106.5000000000000000 ) ) ;
#51 = ADVANCED_FACE ( 'NONE', ( #213 ), #396, .T. ) ;
#52 = ADVANCED_FACE ( 'NONE', ( #626 ), #111, .T. ) ;
#53 = ORIENTED_EDGE ( 'NONE', *, *, #60, .F. ) ;
#54 = CARTESIAN_POINT ( 'NONE',  ( -71.50000000000001421, 2.000000000000000000, -117.9999999999999858 ) ) ;
#55 = DIRECTION ( 'NONE',  ( 0.000000000000000000, 0.000000000000000000, -1.000000000000000000 ) ) ;
#56 = VECTOR ( 'NONE', #62, 1000.000000000000000 ) ;
#57 = ORIENTED_EDGE ( 'NONE', *, *, #663, .T. ) ;
#58 = DIRECTION ( 'NONE',  ( 1.000000000000000000, 0.000000000000000000, -0.000000000000000000 ) ) ;
#59 = CLOSED_SHELL ( 'NONE', ( #285, #246, #69, #372, #237, #314, #191, #52, #412, #86, #584, #51, #107, #631, #307, #138, #147, #215, #442, #665, #531, #515, #735, #337, #707 ) ) ;
#60 = EDGE_CURVE ( 'NONE', #611, #85, #683, .T. ) ;
#61 = DIRECTION ( 'NONE',  ( 0.000000000000000000, 0.000000000000000000, 1.000000000000000000 ) ) ;
#62 = DIRECTION ( 'NONE',  ( -1.734723475976807094E-16, -0.000000000000000000, -1.000000000000000000 ) ) ;
#63 = CARTESIAN_POINT ( 'NONE',  ( -71.50000000000004263, 10.00000000000000000, -117.9999999999999858 ) ) ;
#64 = CIRCLE ( 'NONE', #351, 8.000000000000007105 ) ;
#65 = DIRECTION ( 'NONE',  ( 0.000000000000000000, 0.000000000000000000, 1.000000000000000000 ) ) ;
#66 = CARTESIAN_POINT ( 'NONE',  ( 68.00000000000001421, 10.00000000000000000, 106.5000000000000000 ) ) ;
#67 = ORIENTED_EDGE ( 'NONE', *, *, #701, .T. ) ;
#68 = FACE_OUTER_BOUND ( 'NONE', #269, .T. ) ;
#69 = ADVANCED_FACE ( 'NONE', ( #288 ), #176, .F. ) ;
#70 = VECTOR ( 'NONE', #475, 1000.000000000000000 ) ;
#71 = DIRECTION ( 'NONE',  ( 0.000000000000000000, -1.000000000000000000, 0.000000000000000000 ) ) ;
#72 = VECTOR ( 'NONE', #91, 1000.000000000000000 ) ;
#73 = VERTEX_POINT ( 'NONE', #341 ) ;
#74 =( GEOMETRIC_REPRESENTATION_CONTEXT ( 3 ) GLOBAL_UNCERTAINTY_ASSIGNED_CONTEXT ( ( #153 ) ) GLOBAL_UNIT_ASSIGNED_CONTEXT ( ( #641, #630, #368 ) ) REPRESENTATION_CONTEXT ( 'NONE', 'WORKASPACE' ) );
#75 = CARTESIAN_POINT ( 'NONE',  ( 71.50000000000002842, 10.00000000000000000, 106.5000000000000000 ) ) ;
#76 = PRODUCT_DEFINITION ( 'UNKNOWN', '', #110, #328 ) ;
#77 = ORIENTED_EDGE ( 'NONE', *, *, #403, .T. ) ;
#78 = EDGE_LOOP ( 'NONE', ( #22, #209, #711, #569 ) ) ;
#79 = CARTESIAN_POINT ( 'NONE',  ( 79.49999999999997158, 11.50000000000000000, -117.9999999999999858 ) ) ;
#80 = CARTESIAN_POINT ( 'NONE',  ( -71.50000000000001421, 2.000000000000000000, 0.000000000000000000 ) ) ;
#81 = ORIENTED_EDGE ( 'NONE', *, *, #684, .T. ) ;
#82 = ORIENTED_EDGE ( 'NONE', *, *, #456, .T. ) ;
#83 = CARTESIAN_POINT ( 'NONE',  ( -81.50000000000000000, 11.50000000000000000, 120.0000000000000142 ) ) ;
#84 = VECTOR ( 'NONE', #71, 1000.000000000000000 ) ;
#85 = VERTEX_POINT ( 'NONE', #112 ) ;
#86 = ADVANCED_FACE ( 'NONE', ( #122 ), #689, .T. ) ;
#87 = DIRECTION ( 'NONE',  ( -0.000000000000000000, -0.000000000000000000, -1.000000000000000000 ) ) ;
#88 = ORIENTED_EDGE ( 'NONE', *, *, #151, .T. ) ;
#89 = DIRECTION ( 'NONE',  ( -1.156482317317871478E-16, 0.000000000000000000, -1.000000000000000000 ) ) ;
#90 = EDGE_LOOP ( 'NONE', ( #705, #106, #298, #103 ) ) ;
#91 = DIRECTION ( 'NONE',  ( 0.000000000000000000, 1.000000000000000000, 0.000000000000000000 ) ) ;
#92 = EDGE_CURVE ( 'NONE', #194, #469, #248, .T. ) ;
#93 = ORIENTED_EDGE ( 'NONE', *, *, #610, .F. ) ;
#94 = CARTESIAN_POINT ( 'NONE',  ( 68.00000000000001421, 11.50000000000000000, 106.5000000000000000 ) ) ;
#95 = AXIS2_PLACEMENT_3D ( 'NONE', #63, #346, #343 ) ;
#96 = CARTESIAN_POINT ( 'NONE',  ( -79.50000000000002842, 11.50000000000000000, -119.9999999999999858 ) ) ;
#97 = EDGE_CURVE ( 'NONE', #447, #206, #585, .T. ) ;
#98 = ORIENTED_EDGE ( 'NONE', *, *, #259, .F. ) ;
#99 = DIRECTION ( 'NONE',  ( 0.000000000000000000, 1.000000000000000000, 0.000000000000000000 ) ) ;
#100 = LINE ( 'NONE', #148, #514 ) ;
#101 = VECTOR ( 'NONE', #738, 1000.000000000000000 ) ;
#102 = DIRECTION ( 'NONE',  ( 0.000000000000000000, 0.000000000000000000, -1.000000000000000000 ) ) ;
#103 = ORIENTED_EDGE ( 'NONE', *, *, #373, .T. ) ;
#104 = LINE ( 'NONE', #384, #485 ) ;
#105 = TOROIDAL_SURFACE ( 'NONE', #495, 3.499999999999999556, 8.000000000000000000 ) ;
#106 = ORIENTED_EDGE ( 'NONE', *, *, #449, .T. ) ;
#107 = ADVANCED_FACE ( 'NONE', ( #119 ), #152, .T. ) ;
#108 = VECTOR ( 'NONE', #128, 1000.000000000000000 ) ;
#109 = CARTESIAN_POINT ( 'NONE',  ( -68.00000000000000000, 11.50000000000000000, 106.5000000000000142 ) ) ;
#110 = PRODUCT_DEFINITION_FORMATION_WITH_SPECIFIED_SOURCE ( 'ANY', '', #195, .NOT_KNOWN. ) ;
#111 = CYLINDRICAL_SURFACE ( 'NONE', #649, 10.00000000000000178 ) ;
#112 = CARTESIAN_POINT ( 'NONE',  ( -71.50000000000004263, 0.000000000000000000, -119.9999999999999858 ) ) ;
#113 = DIRECTION ( 'NONE',  ( -1.000000000000000000, 0.000000000000000000, 0.000000000000000000 ) ) ;
#114 = DIRECTION ( 'NONE',  ( -1.000000000000000000, -0.000000000000000000, -0.000000000000000000 ) ) ;
#115 = CARTESIAN_POINT ( 'NONE',  ( -68.00000000000000000, 11.50000000000000000, 106.5000000000000142 ) ) ;
#116 = LINE ( 'NONE', #9, #164 ) ;
#117 = CARTESIAN_POINT ( 'NONE',  ( 68.00000000000001421, 0.000000000000000000, 106.5000000000000000 ) ) ;
#118 = CARTESIAN_POINT ( 'NONE',  ( -81.50000000000002842, 10.00000000000000000, -119.9999999999999858 ) ) ;
#119 = FACE_OUTER_BOUND ( 'NONE', #154, .T. ) ;
#120 = VERTEX_POINT ( 'NONE', #54 ) ;
#121 = LINE ( 'NONE', #232, #417 ) ;
#122 = FACE_OUTER_BOUND ( 'NONE', #371, .T. ) ;
#123 = PLANE ( 'NONE',  #203 ) ;
#124 = LINE ( 'NONE', #536, #84 ) ;
#125 = ORIENTED_EDGE ( 'NONE', *, *, #549, .T. ) ;
#126 = EDGE_CURVE ( 'NONE', #653, #162, #476, .T. ) ;
#127 = EDGE_CURVE ( 'NONE', #582, #599, #702, .T. ) ;
#128 = DIRECTION ( 'NONE',  ( 0.000000000000000000, -1.000000000000000000, 0.000000000000000000 ) ) ;
#129 = CARTESIAN_POINT ( 'NONE',  ( 0.000000000000000000, 0.000000000000000000, 110.0000000000000142 ) ) ;
#130 = AXIS2_PLACEMENT_3D ( 'NONE', #694, #408, #348 ) ;
#131 = ORIENTED_EDGE ( 'NONE', *, *, #18, .F. ) ;
#132 = CARTESIAN_POINT ( 'NONE',  ( 71.49999999999998579, 10.00000000000000000, -119.9999999999999858 ) ) ;
#133 = LINE ( 'NONE', #129, #659 ) ;
#134 = ORIENTED_EDGE ( 'NONE', *, *, #436, .T. ) ;
#135 = VECTOR ( 'NONE', #389, 1000.000000000000000 ) ;
#136 = FACE_OUTER_BOUND ( 'NONE', #90, .T. ) ;
#137 = COLOUR_RGB ( '',0.7921568627450980005, 0.8196078431372548767, 0.9333333333333333481 ) ;
#138 = ADVANCED_FACE ( 'NONE', ( #296 ), #172, .T. ) ;
#139 = ORIENTED_EDGE ( 'NONE', *, *, #608, .F. ) ;
#140 = CARTESIAN_POINT ( 'NONE',  ( 0.000000000000000000, 0.000000000000000000, 0.000000000000000000 ) ) ;
#141 = CIRCLE ( 'NONE', #430, 13.49999999999999822 ) ;
#142 = VECTOR ( 'NONE', #479, 1000.000000000000000 ) ;
#143 = ORIENTED_EDGE ( 'NONE', *, *, #319, .F. ) ;
#144 = CYLINDRICAL_SURFACE ( 'NONE', #720, 11.49999999999999645 ) ;
#145 = EDGE_LOOP ( 'NONE', ( #481, #334, #554, #472 ) ) ;
#146 = ORIENTED_EDGE ( 'NONE', *, *, #92, .T. ) ;
#147 = ADVANCED_FACE ( 'NONE', ( #577 ), #292, .T. ) ;
#148 = CARTESIAN_POINT ( 'NONE',  ( -68.00000000000000000, 11.50000000000000000, 120.0000000000000142 ) ) ;
#149 = EDGE_LOOP ( 'NONE', ( #538, #177, #545, #427, #714, #204 ) ) ;
#150 = CARTESIAN_POINT ( 'NONE',  ( -79.50000000000000000, 11.50000000000000000, 106.5000000000000000 ) ) ;
#151 = EDGE_CURVE ( 'NONE', #253, #557, #633, .T. ) ;
#152 = TOROIDAL_SURFACE ( 'NONE', #19, 3.499999999999999556, 10.00000000000000000 ) ;
#153 = UNCERTAINTY_MEASURE_WITH_UNIT (LENGTH_MEASURE( 1.000000000000000082E-05 ), #641, 'distance_accuracy_value', 'NONE');
#154 = EDGE_LOOP ( 'NONE', ( #98, #35, #279, #503 ) ) ;
#155 = DIRECTION ( 'NONE',  ( -1.734723475976807094E-16, 0.000000000000000000, -1.000000000000000000 ) ) ;
#156 = VECTOR ( 'NONE', #114, 1000.000000000000000 ) ;
#157 = PLANE ( 'NONE',  #48 ) ;
#158 = DIRECTION ( 'NONE',  ( 0.000000000000000000, 0.000000000000000000, -1.000000000000000000 ) ) ;
#159 = ORIENTED_EDGE ( 'NONE', *, *, #319, .T. ) ;
#160 = AXIS2_PLACEMENT_3D ( 'NONE', #333, #446, #562 ) ;
#161 = CYLINDRICAL_SURFACE ( 'NONE', #160, 8.000000000000007105 ) ;
#162 = VERTEX_POINT ( 'NONE', #574 ) ;
#163 = DIRECTION ( 'NONE',  ( 1.000000000000000000, -0.000000000000000000, 0.000000000000000000 ) ) ;
#164 = VECTOR ( 'NONE', #178, 1000.000000000000000 ) ;
#165 = DIRECTION ( 'NONE',  ( -1.000000000000000000, -0.000000000000000000, -0.000000000000000000 ) ) ;
#166 = CIRCLE ( 'NONE', #624, 10.00000000000000178 ) ;
#167 = MANIFOLD_SOLID_BREP ( 'Basisteil-Das kann was werden-1', #59 ) ;
#168 = CARTESIAN_POINT ( 'NONE',  ( 0.000000000000000000, 2.000000000000000000, 110.0000000000000142 ) ) ;
#169 = CARTESIAN_POINT ( 'NONE',  ( -81.50000000000002842, 0.000000000000000000, -119.9999999999999858 ) ) ;
#170 = DIRECTION ( 'NONE',  ( -0.000000000000000000, -0.000000000000000000, -1.000000000000000000 ) ) ;
#171 = STYLED_ITEM ( 'NONE', ( #230 ), #167 ) ;
#172 = PLANE ( 'NONE',  #500 ) ;
#173 = DIRECTION ( 'NONE',  ( 1.000000000000000000, 0.000000000000000000, 0.000000000000000000 ) ) ;
#174 = LINE ( 'NONE', #295, #260 ) ;
#175 = AXIS2_PLACEMENT_3D ( 'NONE', #532, #359, #180 ) ;
#176 = PLANE ( 'NONE',  #740 ) ;
#177 = ORIENTED_EDGE ( 'NONE', *, *, #716, .F. ) ;
#178 = DIRECTION ( 'NONE',  ( -1.734723475976807094E-16, 0.000000000000000000, -1.000000000000000000 ) ) ;
#179 = CARTESIAN_POINT ( 'NONE',  ( -68.00000000000000000, 10.00000000000000000, 106.5000000000000142 ) ) ;
#180 = DIRECTION ( 'NONE',  ( 0.000000000000000000, 0.000000000000000000, 1.000000000000000000 ) ) ;
#181 = ORIENTED_EDGE ( 'NONE', *, *, #182, .T. ) ;
#182 = EDGE_CURVE ( 'NONE', #656, #599, #432, .T. ) ;
#183 = DIRECTION ( 'NONE',  ( -1.156482317317871478E-16, 0.000000000000000000, -1.000000000000000000 ) ) ;
#184 = CARTESIAN_POINT ( 'NONE',  ( -81.50000000000000000, 11.50000000000000000, 118.0000000000000142 ) ) ;
#185 = ORIENTED_EDGE ( 'NONE', *, *, #726, .T. ) ;
#186 = DIRECTION ( 'NONE',  ( 0.000000000000000000, 0.000000000000000000, 1.000000000000000000 ) ) ;
#187 = CARTESIAN_POINT ( 'NONE',  ( 68.00000000000001421, 10.00000000000000000, 110.0000000000000142 ) ) ;
#188 = VECTOR ( 'NONE', #30, 1000.000000000000000 ) ;
#189 = ORIENTED_EDGE ( 'NONE', *, *, #280, .F. ) ;
#190 = ORIENTED_EDGE ( 'NONE', *, *, #349, .F. ) ;
#191 = ADVANCED_FACE ( 'NONE', ( #483 ), #703, .T. ) ;
#192 = CARTESIAN_POINT ( 'NONE',  ( -68.00000000000000000, 0.000000000000000000, 106.5000000000000142 ) ) ;
#193 = DIRECTION ( 'NONE',  ( 0.000000000000000000, 0.000000000000000000, -1.000000000000000000 ) ) ;
#194 = VERTEX_POINT ( 'NONE', #642 ) ;
#195 = PRODUCT ( 'Tray', 'Tray', '', ( #293 ) ) ;
#196 = AXIS2_PLACEMENT_3D ( 'NONE', #210, #212, #102 ) ;
#197 = DIRECTION ( 'NONE',  ( 1.000000000000000000, 0.000000000000000000, 0.000000000000000000 ) ) ;
#198 = ORIENTED_EDGE ( 'NONE', *, *, #640, .T. ) ;
#199 = ORIENTED_EDGE ( 'NONE', *, *, #533, .F. ) ;
#200 = DIRECTION ( 'NONE',  ( 0.000000000000000000, -0.000000000000000000, 1.000000000000000000 ) ) ;
#201 = CIRCLE ( 'NONE', #623, 13.49999999999999822 ) ;
#202 = EDGE_CURVE ( 'NONE', #560, #85, #487, .T. ) ;
#203 = AXIS2_PLACEMENT_3D ( 'NONE', #409, #603, #535 ) ;
#204 = ORIENTED_EDGE ( 'NONE', *, *, #677, .F. ) ;
#205 = FACE_OUTER_BOUND ( 'NONE', #614, .T. ) ;
#206 = VERTEX_POINT ( 'NONE', #600 ) ;
#207 = EDGE_CURVE ( 'NONE', #378, #611, #465, .T. ) ;
#208 = DIRECTION ( 'NONE',  ( 0.000000000000000000, -1.000000000000000000, 0.000000000000000000 ) ) ;
#209 = ORIENTED_EDGE ( 'NONE', *, *, #259, .T. ) ;
#210 = CARTESIAN_POINT ( 'NONE',  ( -68.00000000000000000, 10.00000000000000000, 110.0000000000000142 ) ) ;
#211 = CARTESIAN_POINT ( 'NONE',  ( -68.00000000000000000, 2.000000000000000000, 106.5000000000000142 ) ) ;
#212 = DIRECTION ( 'NONE',  ( 1.000000000000000000, 0.000000000000000000, -0.000000000000000000 ) ) ;
#213 = FACE_OUTER_BOUND ( 'NONE', #607, .T. ) ;
#214 = EDGE_CURVE ( 'NONE', #253, #653, #645, .T. ) ;
#215 = ADVANCED_FACE ( 'NONE', ( #310 ), #123, .T. ) ;
#216 = LINE ( 'NONE', #439, #690 ) ;
#217 = VERTEX_POINT ( 'NONE', #317 ) ;
#218 = CARTESIAN_POINT ( 'NONE',  ( 68.00000000000001421, 10.00000000000000000, 106.5000000000000000 ) ) ;
#219 = VERTEX_POINT ( 'NONE', #423 ) ;
#220 = LINE ( 'NONE', #682, #521 ) ;
#221 = AXIS2_PLACEMENT_3D ( 'NONE', #441, #666, #668 ) ;
#222 = CARTESIAN_POINT ( 'NONE',  ( -81.50000000000000000, 11.50000000000000000, 106.5000000000000000 ) ) ;
#223 = SURFACE_STYLE_USAGE ( .BOTH. , #695 ) ;
#224 = LINE ( 'NONE', #741, #558 ) ;
#225 = EDGE_CURVE ( 'NONE', #582, #421, #305, .T. ) ;
#226 = DIRECTION ( 'NONE',  ( 0.000000000000000000, 1.000000000000000000, 0.000000000000000000 ) ) ;
#227 = AXIS2_PLACEMENT_3D ( 'NONE', #109, #99, #339 ) ;
#228 = CARTESIAN_POINT ( 'NONE',  ( -81.50000000000002842, 2.000000000000000000, -117.9999999999999858 ) ) ;
#229 = MECHANICAL_DESIGN_GEOMETRIC_PRESENTATION_REPRESENTATION (  '', ( #171 ), #74 ) ;
#230 = PRESENTATION_STYLE_ASSIGNMENT (( #223 ) ) ;
#231 = EDGE_LOOP ( 'NONE', ( #308, #550, #644, #542 ) ) ;
#232 = CARTESIAN_POINT ( 'NONE',  ( 68.00000000000001421, 11.50000000000000000, 118.0000000000000142 ) ) ;
#233 = VECTOR ( 'NONE', #596, 1000.000000000000000 ) ;
#234 = CARTESIAN_POINT ( 'NONE',  ( -81.50000000000002842, 11.50000000000000000, -117.9999999999999858 ) ) ;
#235 = CIRCLE ( 'NONE', #357, 3.500000000000003109 ) ;
#236 = DIRECTION ( 'NONE',  ( 1.000000000000000000, -0.000000000000000000, 0.000000000000000000 ) ) ;
#237 = ADVANCED_FACE ( 'NONE', ( #136 ), #654, .F. ) ;
#238 = ORIENTED_EDGE ( 'NONE', *, *, #716, .T. ) ;
#239 = DIRECTION ( 'NONE',  ( 1.156482317317871478E-16, -0.000000000000000000, 1.000000000000000000 ) ) ;
#240 = CARTESIAN_POINT ( 'NONE',  ( -71.50000000000004263, 10.00000000000000000, -119.9999999999999858 ) ) ;
#241 = CARTESIAN_POINT ( 'NONE',  ( -81.50000000000002842, 11.50000000000000000, -119.9999999999999858 ) ) ;
#242 = EDGE_LOOP ( 'NONE', ( #673, #309, #700, #190 ) ) ;
#243 = CARTESIAN_POINT ( 'NONE',  ( 71.50000000000000000, 0.000000000000000000, -1.240327285323416915E-14 ) ) ;
#244 = LINE ( 'NONE', #250, #70 ) ;
#245 = VERTEX_POINT ( 'NONE', #355 ) ;
#246 = ADVANCED_FACE ( 'NONE', ( #715 ), #358, .F. ) ;
#247 = ORIENTED_EDGE ( 'NONE', *, *, #684, .F. ) ;
#248 = CIRCLE ( 'NONE', #345, 9.999999999999994671 ) ;
#249 = CARTESIAN_POINT ( 'NONE',  ( 71.50000000000001421, 0.000000000000000000, 106.5000000000000000 ) ) ;
#250 = CARTESIAN_POINT ( 'NONE',  ( -81.50000000000002842, 11.50000000000000000, -119.9999999999999858 ) ) ;
#251 = ORIENTED_EDGE ( 'NONE', *, *, #397, .F. ) ;
#252 = DIRECTION ( 'NONE',  ( 1.734723475976807094E-16, 0.000000000000000000, 1.000000000000000000 ) ) ;
#253 = VERTEX_POINT ( 'NONE', #315 ) ;
#254 = ORIENTED_EDGE ( 'NONE', *, *, #650, .T. ) ;
#255 = VECTOR ( 'NONE', #239, 1000.000000000000000 ) ;
#256 = ORIENTED_EDGE ( 'NONE', *, *, #575, .T. ) ;
#257 = EDGE_LOOP ( 'NONE', ( #407, #26, #53, #344, #589, #547 ) ) ;
#258 = FACE_OUTER_BOUND ( 'NONE', #537, .T. ) ;
#259 = EDGE_CURVE ( 'NONE', #494, #277, #166, .T. ) ;
#260 = VECTOR ( 'NONE', #519, 1000.000000000000000 ) ;
#261 = EDGE_CURVE ( 'NONE', #611, #277, #301, .T. ) ;
#262 = VECTOR ( 'NONE', #10, 1000.000000000000000 ) ;
#263 = EDGE_LOOP ( 'NONE', ( #731, #387, #435, #77 ) ) ;
#264 = DIRECTION ( 'NONE',  ( 0.000000000000000000, 0.000000000000000000, 1.000000000000000000 ) ) ;
#265 = UNCERTAINTY_MEASURE_WITH_UNIT (LENGTH_MEASURE( 1.000000000000000082E-05 ), #616, 'distance_accuracy_value', 'NONE');
#266 = ORIENTED_EDGE ( 'NONE', *, *, #342, .T. ) ;
#267 = DIRECTION ( 'NONE',  ( 1.156482317317871478E-16, -0.000000000000000000, 1.000000000000000000 ) ) ;
#268 = DIRECTION ( 'NONE',  ( 1.156482317317871478E-16, -0.000000000000000000, 1.000000000000000000 ) ) ;
#269 = EDGE_LOOP ( 'NONE', ( #81, #134, #256, #710 ) ) ;
#270 = CARTESIAN_POINT ( 'NONE',  ( 79.50000000000001421, 11.50000000000000000, 106.5000000000000000 ) ) ;
#271 = DIRECTION ( 'NONE',  ( 0.000000000000000000, 1.000000000000000000, 0.000000000000000000 ) ) ;
#272 = EDGE_CURVE ( 'NONE', #560, #245, #681, .T. ) ;
#273 = ORIENTED_EDGE ( 'NONE', *, *, #342, .F. ) ;
#274 = AXIS2_PLACEMENT_3D ( 'NONE', #725, #386, #505 ) ;
#275 = DIRECTION ( 'NONE',  ( 0.000000000000000000, 0.000000000000000000, 1.000000000000000000 ) ) ;
#276 = AXIS2_PLACEMENT_3D ( 'NONE', #192, #474, #186 ) ;
#277 = VERTEX_POINT ( 'NONE', #249 ) ;
#278 = DIRECTION ( 'NONE',  ( -1.000000000000000000, -0.000000000000000000, 0.000000000000000000 ) ) ;
#279 = ORIENTED_EDGE ( 'NONE', *, *, #92, .F. ) ;
#280 = EDGE_CURVE ( 'NONE', #534, #322, #20, .T. ) ;
#281 = CARTESIAN_POINT ( 'NONE',  ( -79.50000000000001421, 10.00000000000000178, 106.5000000000000000 ) ) ;
#282 = DIRECTION ( 'NONE',  ( -0.000000000000000000, -0.000000000000000000, -1.000000000000000000 ) ) ;
#283 = DIRECTION ( 'NONE',  ( 1.000000000000000000, 0.000000000000000000, 0.000000000000000000 ) ) ;
#284 = AXIS2_PLACEMENT_3D ( 'NONE', #402, #457, #283 ) ;
#285 = ADVANCED_FACE ( 'NONE', ( #708 ), #25, .F. ) ;
#286 = LINE ( 'NONE', #516, #28 ) ;
#287 = CIRCLE ( 'NONE', #95, 8.000000000000007105 ) ;
#288 = FACE_OUTER_BOUND ( 'NONE', #662, .T. ) ;
#289 = DIRECTION ( 'NONE',  ( -1.000000000000000000, 0.000000000000000000, 0.000000000000000000 ) ) ;
#290 = APPLICATION_PROTOCOL_DEFINITION ( 'draft international standard', 'automotive_design', 1998, #43 ) ;
#291 = CARTESIAN_POINT ( 'NONE',  ( -81.50000000000000000, 10.00000000000000000, 110.0000000000000142 ) ) ;
#292 = PLANE ( 'NONE',  #39 ) ;
#293 = PRODUCT_CONTEXT ( 'NONE', #401, 'mechanical' ) ;
#294 = VECTOR ( 'NONE', #113, 1000.000000000000000 ) ;
#295 = CARTESIAN_POINT ( 'NONE',  ( 68.00000000000001421, 11.50000000000000000, 120.0000000000000142 ) ) ;
#296 = FACE_OUTER_BOUND ( 'NONE', #664, .T. ) ;
#297 = CARTESIAN_POINT ( 'NONE',  ( 67.99999999999995737, 11.50000000000000000, 118.0000000000000142 ) ) ;
#298 = ORIENTED_EDGE ( 'NONE', *, *, #456, .F. ) ;
#299 = LINE ( 'NONE', #527, #255 ) ;
#300 = VECTOR ( 'NONE', #480, 1000.000000000000000 ) ;
#301 = LINE ( 'NONE', #243, #262 ) ;
#302 = AXIS2_PLACEMENT_3D ( 'NONE', #83, #546, #530 ) ;
#303 = FACE_OUTER_BOUND ( 'NONE', #376, .T. ) ;
#304 = ORIENTED_EDGE ( 'NONE', *, *, #449, .F. ) ;
#305 = LINE ( 'NONE', #14, #493 ) ;
#306 = CARTESIAN_POINT ( 'NONE',  ( 71.49999999999998579, 10.00000000000000000, -119.9999999999999858 ) ) ;
#307 = ADVANCED_FACE ( 'NONE', ( #205 ), #323, .T. ) ;
#308 = ORIENTED_EDGE ( 'NONE', *, *, #473, .T. ) ;
#309 = ORIENTED_EDGE ( 'NONE', *, *, #663, .F. ) ;
#310 = FACE_OUTER_BOUND ( 'NONE', #438, .T. ) ;
#311 = DIRECTION ( 'NONE',  ( -1.000000000000000000, 0.000000000000000000, -0.000000000000000000 ) ) ;
#312 = ORIENTED_EDGE ( 'NONE', *, *, #597, .F. ) ;
#313 = ORIENTED_EDGE ( 'NONE', *, *, #321, .F. ) ;
#314 = ADVANCED_FACE ( 'NONE', ( #551, #258 ), #157, .T. ) ;
#315 = CARTESIAN_POINT ( 'NONE',  ( 79.49999999999997158, 11.50000000000000000, -117.9999999999999858 ) ) ;
#316 = ORIENTED_EDGE ( 'NONE', *, *, #272, .T. ) ;
#317 = CARTESIAN_POINT ( 'NONE',  ( -79.50000000000000000, 11.50000000000000000, 106.5000000000000000 ) ) ;
#318 = VERTEX_POINT ( 'NONE', #613 ) ;
#319 = EDGE_CURVE ( 'NONE', #656, #365, #235, .T. ) ;
#320 = CARTESIAN_POINT ( 'NONE',  ( 68.00000000000001421, 11.50000000000000000, 106.5000000000000000 ) ) ;
#321 = EDGE_CURVE ( 'NONE', #447, #494, #385, .T. ) ;
#322 = VERTEX_POINT ( 'NONE', #37 ) ;
#323 = PLANE ( 'NONE',  #370 ) ;
#324 = AXIS2_PLACEMENT_3D ( 'NONE', #573, #282, #390 ) ;
#325 = EDGE_LOOP ( 'NONE', ( #181, #16, #383, #143 ) ) ;
#326 = DIRECTION ( 'NONE',  ( 0.000000000000000000, 0.000000000000000000, 1.000000000000000000 ) ) ;
#327 = CARTESIAN_POINT ( 'NONE',  ( 0.000000000000000000, 11.50000000000000000, 0.000000000000000000 ) ) ;
#328 = PRODUCT_DEFINITION_CONTEXT ( 'detailed design', #43, 'design' ) ;
#329 = ORIENTED_EDGE ( 'NONE', *, *, #214, .F. ) ;
#330 = CARTESIAN_POINT ( 'NONE',  ( -68.00000000000000000, 11.50000000000000000, 106.5000000000000142 ) ) ;
#331 = DIRECTION ( 'NONE',  ( 0.000000000000000000, -1.000000000000000000, 0.000000000000000000 ) ) ;
#332 = AXIS2_PLACEMENT_3D ( 'NONE', #450, #498, #275 ) ;
#333 = CARTESIAN_POINT ( 'NONE',  ( -81.50000000000000000, 10.00000000000000000, 110.0000000000000142 ) ) ;
#334 = ORIENTED_EDGE ( 'NONE', *, *, #726, .F. ) ;
#335 = CIRCLE ( 'NONE', #719, 11.49999999999999645 ) ;
#336 = CARTESIAN_POINT ( 'NONE',  ( -68.00000000000000000, 11.50000000000000000, 118.0000000000000142 ) ) ;
#337 = ADVANCED_FACE ( 'NONE', ( #661 ), #144, .F. ) ;
#338 = EDGE_LOOP ( 'NONE', ( #724, #601, #541, #697 ) ) ;
#339 = DIRECTION ( 'NONE',  ( 0.000000000000000000, 0.000000000000000000, 1.000000000000000000 ) ) ;
#340 = CARTESIAN_POINT ( 'NONE',  ( 71.49999999999998579, 10.00000000000000000, -119.9999999999999858 ) ) ;
#341 = CARTESIAN_POINT ( 'NONE',  ( -68.00000000000000000, 11.50000000000000000, 120.0000000000000142 ) ) ;
#342 = EDGE_CURVE ( 'NONE', #322, #41, #552, .T. ) ;
#343 = DIRECTION ( 'NONE',  ( 1.000000000000000000, 0.000000000000000000, 0.000000000000000000 ) ) ;
#344 = ORIENTED_EDGE ( 'NONE', *, *, #261, .T. ) ;
#345 = AXIS2_PLACEMENT_3D ( 'NONE', #354, #289, #6 ) ;
#346 = DIRECTION ( 'NONE',  ( -0.000000000000000000, -0.000000000000000000, -1.000000000000000000 ) ) ;
#347 = FILL_AREA_STYLE_COLOUR ( '', #137 ) ;
#348 = DIRECTION ( 'NONE',  ( 0.000000000000000000, 0.000000000000000000, 1.000000000000000000 ) ) ;
#349 = EDGE_CURVE ( 'NONE', #599, #217, #721, .T. ) ;
#350 = SURFACE_STYLE_FILL_AREA ( #636 ) ;
#351 = AXIS2_PLACEMENT_3D ( 'NONE', #568, #163, #158 ) ;
#352 = EDGE_LOOP ( 'NONE', ( #159, #595, #125, #676, #489, #247 ) ) ;
#353 = DIRECTION ( 'NONE',  ( 1.000000000000000000, 0.000000000000000000, 0.000000000000000000 ) ) ;
#354 = CARTESIAN_POINT ( 'NONE',  ( 68.00000000000001421, 10.00000000000000000, 110.0000000000000142 ) ) ;
#355 = CARTESIAN_POINT ( 'NONE',  ( -68.00000000000000000, 0.000000000000000000, 110.0000000000000142 ) ) ;
#356 = ORIENTED_EDGE ( 'NONE', *, *, #207, .T. ) ;
#357 = AXIS2_PLACEMENT_3D ( 'NONE', #211, #374, #264 ) ;
#358 = PLANE ( 'NONE',  #591 ) ;
#359 = DIRECTION ( 'NONE',  ( 0.000000000000000000, 1.000000000000000000, 0.000000000000000000 ) ) ;
#360 = ORIENTED_EDGE ( 'NONE', *, *, #397, .T. ) ;
#361 = VERTEX_POINT ( 'NONE', #490 ) ;
#362 = DIRECTION ( 'NONE',  ( -1.156482317317871478E-16, 0.000000000000000000, -1.000000000000000000 ) ) ;
#363 = DIRECTION ( 'NONE',  ( -1.000000000000000000, 0.000000000000000000, 0.000000000000000000 ) ) ;
#364 = EDGE_CURVE ( 'NONE', #557, #217, #496, .T. ) ;
#365 = VERTEX_POINT ( 'NONE', #501 ) ;
#366 = AXIS2_PLACEMENT_3D ( 'NONE', #686, #170, #675 ) ;
#367 = VERTEX_POINT ( 'NONE', #617 ) ;
#368 =( NAMED_UNIT ( * ) SI_UNIT ( $, .STERADIAN. ) SOLID_ANGLE_UNIT ( ) );
#369 = DIRECTION ( 'NONE',  ( 0.000000000000000000, 1.000000000000000000, 0.000000000000000000 ) ) ;
#370 = AXIS2_PLACEMENT_3D ( 'NONE', #380, #556, #723 ) ;
#371 = EDGE_LOOP ( 'NONE', ( #563, #199, #251, #658 ) ) ;
#372 = ADVANCED_FACE ( 'NONE', ( #727 ), #429, .F. ) ;
#373 = EDGE_CURVE ( 'NONE', #73, #729, #100, .T. ) ;
#374 = DIRECTION ( 'NONE',  ( 0.000000000000000000, 1.000000000000000000, 0.000000000000000000 ) ) ;
#375 = ORIENTED_EDGE ( 'NONE', *, *, #499, .F. ) ;
#376 = EDGE_LOOP ( 'NONE', ( #512, #411, #488, #273 ) ) ;
#377 = CARTESIAN_POINT ( 'NONE',  ( 81.50000000000001421, 11.50000000000000000, 106.5000000000000000 ) ) ;
#378 = VERTEX_POINT ( 'NONE', #561 ) ;
#379 = AXIS2_PLACEMENT_3D ( 'NONE', #179, #687, #461 ) ;
#380 = CARTESIAN_POINT ( 'NONE',  ( 79.49999999999997158, 11.50000000000000000, -119.9999999999999858 ) ) ;
#381 = EDGE_CURVE ( 'NONE', #322, #653, #42, .T. ) ;
#382 = CIRCLE ( 'NONE', #452, 3.500000000000003109 ) ;
#383 = ORIENTED_EDGE ( 'NONE', *, *, #508, .T. ) ;
#384 = CARTESIAN_POINT ( 'NONE',  ( -81.50000000000000000, 11.50000000000000000, 106.5000000000000000 ) ) ;
#385 = LINE ( 'NONE', #377, #32 ) ;
#386 = DIRECTION ( 'NONE',  ( 0.000000000000000000, 1.000000000000000000, 0.000000000000000000 ) ) ;
#387 = ORIENTED_EDGE ( 'NONE', *, *, #280, .T. ) ;
#388 = AXIS2_PLACEMENT_3D ( 'NONE', #330, #621, #443 ) ;
#389 = DIRECTION ( 'NONE',  ( 1.000000000000000000, -0.000000000000000000, 0.000000000000000000 ) ) ;
#390 = DIRECTION ( 'NONE',  ( -1.000000000000000000, 0.000000000000000000, 0.000000000000000000 ) ) ;
#391 = CIRCLE ( 'NONE', #175, 11.49999999999999645 ) ;
#392 = AXIS2_PLACEMENT_3D ( 'NONE', #434, #548, #89 ) ;
#393 = DIRECTION ( 'NONE',  ( -0.000000000000000000, 1.000000000000000000, -0.000000000000000000 ) ) ;
#394 = VECTOR ( 'NONE', #362, 1000.000000000000000 ) ;
#395 = EDGE_CURVE ( 'NONE', #194, #277, #382, .T. ) ;
#396 = CYLINDRICAL_SURFACE ( 'NONE', #478, 13.49999999999999822 ) ;
#397 = EDGE_CURVE ( 'NONE', #729, #361, #648, .T. ) ;
#398 = DIRECTION ( 'NONE',  ( -0.000000000000000000, -1.000000000000000000, -0.000000000000000000 ) ) ;
#399 = DIRECTION ( 'NONE',  ( -1.734723475976807094E-16, 0.000000000000000000, -1.000000000000000000 ) ) ;
#400 = CYLINDRICAL_SURFACE ( 'NONE', #492, 9.999999999999994671 ) ;
#401 = APPLICATION_CONTEXT ( 'automotive_design' ) ;
#402 = CARTESIAN_POINT ( 'NONE',  ( 71.49999999999998579, 10.00000000000000000, -117.9999999999999858 ) ) ;
#403 = EDGE_CURVE ( 'NONE', #421, #713, #121, .T. ) ;
#404 = APPLICATION_PROTOCOL_DEFINITION ( 'draft international standard', 'automotive_design', 1998, #401 ) ;
#405 = DIRECTION ( 'NONE',  ( 0.000000000000000000, 1.000000000000000000, 0.000000000000000000 ) ) ;
#406 = DIRECTION ( 'NONE',  ( -1.156482317317871478E-16, 0.000000000000000000, -1.000000000000000000 ) ) ;
#407 = ORIENTED_EDGE ( 'NONE', *, *, #272, .F. ) ;
#408 = DIRECTION ( 'NONE',  ( -0.000000000000000000, -1.000000000000000000, -0.000000000000000000 ) ) ;
#409 = CARTESIAN_POINT ( 'NONE',  ( -81.50000000000000000, 11.50000000000000000, 118.0000000000000142 ) ) ;
#410 = DIRECTION ( 'NONE',  ( 0.000000000000000000, 1.000000000000000000, 0.000000000000000000 ) ) ;
#411 = ORIENTED_EDGE ( 'NONE', *, *, #126, .T. ) ;
#412 = ADVANCED_FACE ( 'NONE', ( #635 ), #400, .T. ) ;
#413 = CARTESIAN_POINT ( 'NONE',  ( -71.50000000000001421, 10.00000000000000000, 106.5000000000000000 ) ) ;
#414 = CYLINDRICAL_SURFACE ( 'NONE', #528, 8.000000000000007105 ) ;
#415 = EDGE_LOOP ( 'NONE', ( #238, #620, #567, #29 ) ) ;
#416 = ORIENTED_EDGE ( 'NONE', *, *, #97, .F. ) ;
#417 = VECTOR ( 'NONE', #405, 1000.000000000000000 ) ;
#418 = PRODUCT_RELATED_PRODUCT_CATEGORY ( 'part', '', ( #195 ) ) ;
#419 = CARTESIAN_POINT ( 'NONE',  ( -71.50000000000002842, 0.000000000000000000, 8.268848568822784165E-15 ) ) ;
#420 = FACE_OUTER_BOUND ( 'NONE', #325, .T. ) ;
#421 = VERTEX_POINT ( 'NONE', #576 ) ;
#422 = ORIENTED_EDGE ( 'NONE', *, *, #610, .T. ) ;
#423 = CARTESIAN_POINT ( 'NONE',  ( -79.50000000000002842, 10.00000000000000000, -117.9999999999999858 ) ) ;
#424 = CARTESIAN_POINT ( 'NONE',  ( -68.00000000000000000, 10.00000000000000000, 120.0000000000000142 ) ) ;
#425 = CIRCLE ( 'NONE', #196, 9.999999999999994671 ) ;
#426 = DIRECTION ( 'NONE',  ( 1.000000000000000000, 0.000000000000000000, 0.000000000000000000 ) ) ;
#427 = ORIENTED_EDGE ( 'NONE', *, *, #151, .F. ) ;
#428 = ORIENTED_EDGE ( 'NONE', *, *, #484, .F. ) ;
#429 = PLANE ( 'NONE',  #392 ) ;
#430 = AXIS2_PLACEMENT_3D ( 'NONE', #652, #696, #11 ) ;
#431 = PRODUCT_DEFINITION_SHAPE ( 'NONE', 'NONE',  #76 ) ;
#432 = CIRCLE ( 'NONE', #565, 8.000000000000007105 ) ;
#433 = EDGE_LOOP ( 'NONE', ( #266, #17, #185, #139 ) ) ;
#434 = CARTESIAN_POINT ( 'NONE',  ( -81.50000000000002842, 11.50000000000000000, -119.9999999999999858 ) ) ;
#435 = ORIENTED_EDGE ( 'NONE', *, *, #608, .T. ) ;
#436 = EDGE_CURVE ( 'NONE', #120, #219, #287, .T. ) ;
#437 = DIRECTION ( 'NONE',  ( 0.000000000000000000, 0.000000000000000000, -1.000000000000000000 ) ) ;
#438 = EDGE_LOOP ( 'NONE', ( #526, #497, #722, #679 ) ) ;
#439 = CARTESIAN_POINT ( 'NONE',  ( 81.49999999999997158, 10.00000000000000000, -119.9999999999999858 ) ) ;
#440 = AXIS2_PLACEMENT_3D ( 'NONE', #115, #627, #685 ) ;
#441 = CARTESIAN_POINT ( 'NONE',  ( 71.50000000000002842, 10.00000000000000000, 106.5000000000000000 ) ) ;
#442 = ADVANCED_FACE ( 'NONE', ( #68 ), #578, .F. ) ;
#443 = DIRECTION ( 'NONE',  ( 0.000000000000000000, 0.000000000000000000, -1.000000000000000000 ) ) ;
#444 =( NAMED_UNIT ( * ) PLANE_ANGLE_UNIT ( ) SI_UNIT ( $, .RADIAN. ) );
#445 = CARTESIAN_POINT ( 'NONE',  ( 71.50000000000001421, 2.000000000000000000, 106.5000000000000000 ) ) ;
#446 = DIRECTION ( 'NONE',  ( 1.000000000000000000, -0.000000000000000000, 0.000000000000000000 ) ) ;
#447 = VERTEX_POINT ( 'NONE', #632 ) ;
#448 = EDGE_CURVE ( 'NONE', #534, #253, #116, .T. ) ;
#449 = EDGE_CURVE ( 'NONE', #469, #367, #174, .T. ) ;
#450 = CARTESIAN_POINT ( 'NONE',  ( -68.00000000000000000, 10.00000000000000000, 106.5000000000000142 ) ) ;
#451 = DIRECTION ( 'NONE',  ( 0.000000000000000000, 0.000000000000000000, -1.000000000000000000 ) ) ;
#452 = AXIS2_PLACEMENT_3D ( 'NONE', #117, #5, #61 ) ;
#453 = FACE_OUTER_BOUND ( 'NONE', #415, .T. ) ;
#454 = DIRECTION ( 'NONE',  ( -1.000000000000000000, 0.000000000000000000, 0.000000000000000000 ) ) ;
#455 = DIRECTION ( 'NONE',  ( 1.156482317317871478E-16, -0.000000000000000000, 1.000000000000000000 ) ) ;
#456 = EDGE_CURVE ( 'NONE', #73, #367, #572, .T. ) ;
#457 = DIRECTION ( 'NONE',  ( -0.000000000000000000, -0.000000000000000000, -1.000000000000000000 ) ) ;
#458 = CIRCLE ( 'NONE', #580, 3.500000000000003109 ) ;
#459 = PRESENTATION_LAYER_ASSIGNMENT (  '', '', ( #171 ) ) ;
#460 = CARTESIAN_POINT ( 'NONE',  ( 81.50000000000001421, 10.00000000000000000, 106.5000000000000000 ) ) ;
#461 = DIRECTION ( 'NONE',  ( 0.000000000000000000, 0.000000000000000000, 1.000000000000000000 ) ) ;
#462 = VERTEX_POINT ( 'NONE', #118 ) ;
#463 = DIRECTION ( 'NONE',  ( 1.000000000000000000, -0.000000000000000000, 0.000000000000000000 ) ) ;
#464 = CIRCLE ( 'NONE', #564, 8.000000000000007105 ) ;
#465 = CIRCLE ( 'NONE', #660, 9.999999999999994671 ) ;
#466 = CARTESIAN_POINT ( 'NONE',  ( 68.00000000000001421, 10.00000000000000000, 106.5000000000000000 ) ) ;
#467 = CARTESIAN_POINT ( 'NONE',  ( -68.00000000000000000, 10.00000000000000000, 106.5000000000000142 ) ) ;
#468 = EDGE_CURVE ( 'NONE', #162, #41, #286, .T. ) ;
#469 = VERTEX_POINT ( 'NONE', #1 ) ;
#470 = DIRECTION ( 'NONE',  ( 1.156482317317871478E-16, -0.000000000000000000, 1.000000000000000000 ) ) ;
#471 = DIRECTION ( 'NONE',  ( 0.000000000000000000, 0.000000000000000000, 1.000000000000000000 ) ) ;
#472 = ORIENTED_EDGE ( 'NONE', *, *, #508, .F. ) ;
#473 = EDGE_CURVE ( 'NONE', #462, #361, #299, .T. ) ;
#474 = DIRECTION ( 'NONE',  ( 0.000000000000000000, 1.000000000000000000, 0.000000000000000000 ) ) ;
#475 = DIRECTION ( 'NONE',  ( 1.156482317317871478E-16, 0.000000000000000000, 1.000000000000000000 ) ) ;
#476 = CIRCLE ( 'NONE', #284, 8.000000000000007105 ) ;
#477 = ORIENTED_EDGE ( 'NONE', *, *, #436, .F. ) ;
#478 = AXIS2_PLACEMENT_3D ( 'NONE', #50, #510, #451 ) ;
#479 = DIRECTION ( 'NONE',  ( -0.000000000000000000, -1.000000000000000000, 0.000000000000000000 ) ) ;
#480 = DIRECTION ( 'NONE',  ( -0.000000000000000000, 0.000000000000000000, -1.000000000000000000 ) ) ;
#481 = ORIENTED_EDGE ( 'NONE', *, *, #225, .T. ) ;
#482 = ADVANCED_BREP_SHAPE_REPRESENTATION ( 'Tray', ( #167, #594 ), #34 ) ;
#483 = FACE_OUTER_BOUND ( 'NONE', #338, .T. ) ;
#484 = EDGE_CURVE ( 'NONE', #162, #120, #688, .T. ) ;
#485 = VECTOR ( 'NONE', #393, 1000.000000000000000 ) ;
#486 = EDGE_LOOP ( 'NONE', ( #629, #316, #312, #360 ) ) ;
#487 = LINE ( 'NONE', #419, #394 ) ;
#488 = ORIENTED_EDGE ( 'NONE', *, *, #468, .T. ) ;
#489 = ORIENTED_EDGE ( 'NONE', *, *, #484, .T. ) ;
#490 = CARTESIAN_POINT ( 'NONE',  ( -81.50000000000000000, 10.00000000000000000, 106.5000000000000000 ) ) ;
#491 = TOROIDAL_SURFACE ( 'NONE', #504, 3.499999999999999556, 8.000000000000000000 ) ;
#492 = AXIS2_PLACEMENT_3D ( 'NONE', #291, #463, #55 ) ;
#493 = VECTOR ( 'NONE', #657, 1000.000000000000000 ) ;
#494 = VERTEX_POINT ( 'NONE', #460 ) ;
#495 = AXIS2_PLACEMENT_3D ( 'NONE', #467, #271, #522 ) ;
#496 = LINE ( 'NONE', #96, #739 ) ;
#497 = ORIENTED_EDGE ( 'NONE', *, *, #586, .F. ) ;
#498 = DIRECTION ( 'NONE',  ( 0.000000000000000000, 1.000000000000000000, 0.000000000000000000 ) ) ;
#499 = EDGE_CURVE ( 'NONE', #692, #462, #224, .T. ) ;
#500 = AXIS2_PLACEMENT_3D ( 'NONE', #579, #65, #513 ) ;
#501 = CARTESIAN_POINT ( 'NONE',  ( -68.00000000000000000, 2.000000000000000000, 110.0000000000000142 ) ) ;
#502 = CARTESIAN_POINT ( 'NONE',  ( 68.00000000000001421, 2.000000000000000000, 106.5000000000000000 ) ) ;
#503 = ORIENTED_EDGE ( 'NONE', *, *, #395, .T. ) ;
#504 = AXIS2_PLACEMENT_3D ( 'NONE', #66, #410, #471 ) ;
#505 = DIRECTION ( 'NONE',  ( 0.000000000000000000, -0.000000000000000000, 1.000000000000000000 ) ) ;
#506 = ORIENTED_EDGE ( 'NONE', *, *, #734, .F. ) ;
#507 = EDGE_CURVE ( 'NONE', #85, #462, #712, .T. ) ;
#508 = EDGE_CURVE ( 'NONE', #582, #365, #64, .T. ) ;
#509 = DIRECTION ( 'NONE',  ( 0.000000000000000000, 1.000000000000000000, 0.000000000000000000 ) ) ;
#510 = DIRECTION ( 'NONE',  ( 0.000000000000000000, -1.000000000000000000, 0.000000000000000000 ) ) ;
#511 = LINE ( 'NONE', #336, #2 ) ;
#512 = ORIENTED_EDGE ( 'NONE', *, *, #381, .T. ) ;
#513 = DIRECTION ( 'NONE',  ( 1.000000000000000000, 0.000000000000000000, -0.000000000000000000 ) ) ;
#514 = VECTOR ( 'NONE', #331, 1000.000000000000000 ) ;
#515 = ADVANCED_FACE ( 'NONE', ( #453 ), #670, .F. ) ;
#516 = CARTESIAN_POINT ( 'NONE',  ( 71.50000000000000000, 2.000000000000000000, 0.000000000000000000 ) ) ;
#517 = VERTEX_POINT ( 'NONE', #566 ) ;
#518 = CARTESIAN_POINT ( 'NONE',  ( -81.50000000000002842, 11.50000000000000000, -119.9999999999999858 ) ) ;
#519 = DIRECTION ( 'NONE',  ( -0.000000000000000000, 1.000000000000000000, -0.000000000000000000 ) ) ;
#520 = DIRECTION ( 'NONE',  ( 1.000000000000000000, 0.000000000000000000, -1.156482317317871478E-16 ) ) ;
#521 = VECTOR ( 'NONE', #267, 1000.000000000000000 ) ;
#522 = DIRECTION ( 'NONE',  ( 0.000000000000000000, 0.000000000000000000, 1.000000000000000000 ) ) ;
#523 = CARTESIAN_POINT ( 'NONE',  ( -81.50000000000000000, 11.50000000000000000, 120.0000000000000142 ) ) ;
#524 = CARTESIAN_POINT ( 'NONE',  ( -79.50000000000002842, 11.50000000000000000, -119.9999999999999858 ) ) ;
#525 = CARTESIAN_POINT ( 'NONE',  ( -68.00000000000000000, 11.50000000000000000, 106.5000000000000142 ) ) ;
#526 = ORIENTED_EDGE ( 'NONE', *, *, #225, .F. ) ;
#527 = CARTESIAN_POINT ( 'NONE',  ( -81.50000000000002842, 10.00000000000000000, -119.9999999999999858 ) ) ;
#528 = AXIS2_PLACEMENT_3D ( 'NONE', #306, #646, #363 ) ;
#529 = AXIS2_PLACEMENT_3D ( 'NONE', #240, #470, #698 ) ;
#530 = DIRECTION ( 'NONE',  ( -1.000000000000000000, 0.000000000000000000, -0.000000000000000000 ) ) ;
#531 = ADVANCED_FACE ( 'NONE', ( #49 ), #161, .F. ) ;
#532 = CARTESIAN_POINT ( 'NONE',  ( 68.00000000000001421, 11.50000000000000000, 106.5000000000000000 ) ) ;
#533 = EDGE_CURVE ( 'NONE', #361, #23, #104, .T. ) ;
#534 = VERTEX_POINT ( 'NONE', #270 ) ;
#535 = DIRECTION ( 'NONE',  ( -1.000000000000000000, 0.000000000000000000, -0.000000000000000000 ) ) ;
#536 = CARTESIAN_POINT ( 'NONE',  ( -79.50000000000002842, 11.50000000000000000, -117.9999999999999858 ) ) ;
#537 = EDGE_LOOP ( 'NONE', ( #82, #422, #13, #638, #67, #604 ) ) ;
#538 = ORIENTED_EDGE ( 'NONE', *, *, #717, .F. ) ;
#539 = DIRECTION ( 'NONE',  ( -1.000000000000000000, 0.000000000000000000, 0.000000000000000000 ) ) ;
#540 = CARTESIAN_POINT ( 'NONE',  ( 79.49999999999997158, 10.00000000000000000, -117.9999999999999858 ) ) ;
#541 = ORIENTED_EDGE ( 'NONE', *, *, #473, .F. ) ;
#542 = ORIENTED_EDGE ( 'NONE', *, *, #499, .T. ) ;
#543 = CIRCLE ( 'NONE', #324, 9.999999999999994671 ) ;
#544 = DIRECTION ( 'NONE',  ( 0.000000000000000000, 0.000000000000000000, -1.000000000000000000 ) ) ;
#545 = ORIENTED_EDGE ( 'NONE', *, *, #364, .F. ) ;
#546 = DIRECTION ( 'NONE',  ( 0.000000000000000000, 0.000000000000000000, -1.000000000000000000 ) ) ;
#547 = ORIENTED_EDGE ( 'NONE', *, *, #734, .T. ) ;
#548 = DIRECTION ( 'NONE',  ( 1.000000000000000000, 0.000000000000000000, -1.156482317317871478E-16 ) ) ;
#549 = EDGE_CURVE ( 'NONE', #318, #41, #458, .T. ) ;
#550 = ORIENTED_EDGE ( 'NONE', *, *, #533, .T. ) ;
#551 = FACE_BOUND ( 'NONE', #149, .T. ) ;
#552 = CIRCLE ( 'NONE', #221, 7.999999999999992895 ) ;
#553 = EDGE_CURVE ( 'NONE', #729, #469, #44, .T. ) ;
#554 = ORIENTED_EDGE ( 'NONE', *, *, #605, .T. ) ;
#555 = CARTESIAN_POINT ( 'NONE',  ( 71.50000000000000000, 0.000000000000000000, -119.9999999999999858 ) ) ;
#556 = DIRECTION ( 'NONE',  ( -1.000000000000000000, 0.000000000000000000, 1.734723475976807094E-16 ) ) ;
#557 = VERTEX_POINT ( 'NONE', #732 ) ;
#558 = VECTOR ( 'NONE', #398, 1000.000000000000000 ) ;
#559 = CARTESIAN_POINT ( 'NONE',  ( -68.00000000000000000, 10.00000000000000000, 118.0000000000000142 ) ) ;
#560 = VERTEX_POINT ( 'NONE', #615 ) ;
#561 = CARTESIAN_POINT ( 'NONE',  ( 81.49999999999997158, 10.00000000000000000, -119.9999999999999858 ) ) ;
#562 = DIRECTION ( 'NONE',  ( 0.000000000000000000, 0.000000000000000000, -1.000000000000000000 ) ) ;
#563 = ORIENTED_EDGE ( 'NONE', *, *, #571, .F. ) ;
#564 = AXIS2_PLACEMENT_3D ( 'NONE', #187, #21, #193 ) ;
#565 = AXIS2_PLACEMENT_3D ( 'NONE', #413, #183, #197 ) ;
#566 = CARTESIAN_POINT ( 'NONE',  ( -68.00000000000000000, 11.50000000000000000, 118.0000000000000142 ) ) ;
#567 = ORIENTED_EDGE ( 'NONE', *, *, #127, .T. ) ;
#568 = CARTESIAN_POINT ( 'NONE',  ( -68.00000000000000000, 10.00000000000000000, 110.0000000000000142 ) ) ;
#569 = ORIENTED_EDGE ( 'NONE', *, *, #207, .F. ) ;
#570 = CARTESIAN_POINT ( 'NONE',  ( 81.49999999999997158, 11.50000000000000000, -119.9999999999999858 ) ) ;
#571 = EDGE_CURVE ( 'NONE', #23, #73, #674, .T. ) ;
#572 = LINE ( 'NONE', #523, #680 ) ;
#573 = CARTESIAN_POINT ( 'NONE',  ( -71.50000000000001421, 10.00000000000000000, 106.5000000000000142 ) ) ;
#574 = CARTESIAN_POINT ( 'NONE',  ( 71.50000000000000000, 2.000000000000000000, -117.9999999999999858 ) ) ;
#575 = EDGE_CURVE ( 'NONE', #219, #599, #220, .T. ) ;
#576 = CARTESIAN_POINT ( 'NONE',  ( 68.00000000000001421, 10.00000000000000178, 118.0000000000000284 ) ) ;
#577 = FACE_OUTER_BOUND ( 'NONE', #242, .T. ) ;
#578 = CYLINDRICAL_SURFACE ( 'NONE', #590, 8.000000000000007105 ) ;
#579 = CARTESIAN_POINT ( 'NONE',  ( -81.50000000000002842, 11.50000000000000000, -117.9999999999999858 ) ) ;
#580 = AXIS2_PLACEMENT_3D ( 'NONE', #502, #625, #736 ) ;
#581 = CARTESIAN_POINT ( 'NONE',  ( 81.49999999999997158, 11.50000000000000000, -119.9999999999999858 ) ) ;
#582 = VERTEX_POINT ( 'NONE', #559 ) ;
#583 = DIRECTION ( 'NONE',  ( 0.000000000000000000, -0.000000000000000000, 1.000000000000000000 ) ) ;
#584 = ADVANCED_FACE ( 'NONE', ( #40 ), #655, .T. ) ;
#585 = LINE ( 'NONE', #570, #56 ) ;
#586 = EDGE_CURVE ( 'NONE', #517, #582, #511, .T. ) ;
#587 = CARTESIAN_POINT ( 'NONE',  ( 81.49999999999997158, 11.50000000000000000, -119.9999999999999858 ) ) ;
#588 = LINE ( 'NONE', #184, #46 ) ;
#589 = ORIENTED_EDGE ( 'NONE', *, *, #395, .F. ) ;
#590 = AXIS2_PLACEMENT_3D ( 'NONE', #639, #455, #353 ) ;
#591 = AXIS2_PLACEMENT_3D ( 'NONE', #587, #592, #252 ) ;
#592 = DIRECTION ( 'NONE',  ( -1.000000000000000000, 0.000000000000000000, 1.734723475976807094E-16 ) ) ;
#593 = LINE ( 'NONE', #581, #233 ) ;
#594 = AXIS2_PLACEMENT_3D ( 'NONE', #743, #637, #173 ) ;
#595 = ORIENTED_EDGE ( 'NONE', *, *, #605, .F. ) ;
#596 = DIRECTION ( 'NONE',  ( -0.000000000000000000, -1.000000000000000000, -0.000000000000000000 ) ) ;
#597 = EDGE_CURVE ( 'NONE', #729, #245, #425, .T. ) ;
#598 = ORIENTED_EDGE ( 'NONE', *, *, #381, .F. ) ;
#599 = VERTEX_POINT ( 'NONE', #281 ) ;
#600 = CARTESIAN_POINT ( 'NONE',  ( 81.49999999999997158, 11.50000000000000000, -119.9999999999999858 ) ) ;
#601 = ORIENTED_EDGE ( 'NONE', *, *, #12, .T. ) ;
#602 = AXIS2_PLACEMENT_3D ( 'NONE', #525, #709, #699 ) ;
#603 = DIRECTION ( 'NONE',  ( 0.000000000000000000, 0.000000000000000000, -1.000000000000000000 ) ) ;
#604 = ORIENTED_EDGE ( 'NONE', *, *, #571, .T. ) ;
#605 = EDGE_CURVE ( 'NONE', #318, #365, #730, .T. ) ;
#606 = CARTESIAN_POINT ( 'NONE',  ( 79.49999999999997158, 10.00000000000000000, -119.9999999999999858 ) ) ;
#607 = EDGE_LOOP ( 'NONE', ( #93, #304, #647, #313 ) ) ;
#608 = EDGE_CURVE ( 'NONE', #322, #421, #335, .T. ) ;
#609 = DIRECTION ( 'NONE',  ( 0.000000000000000000, -0.000000000000000000, 1.000000000000000000 ) ) ;
#610 = EDGE_CURVE ( 'NONE', #367, #447, #201, .T. ) ;
#611 = VERTEX_POINT ( 'NONE', #555 ) ;
#612 = DIRECTION ( 'NONE',  ( 0.000000000000000000, 0.000000000000000000, 1.000000000000000000 ) ) ;
#613 = CARTESIAN_POINT ( 'NONE',  ( 68.00000000000001421, 2.000000000000000000, 110.0000000000000142 ) ) ;
#614 = EDGE_LOOP ( 'NONE', ( #667, #38, #598, #189 ) ) ;
#615 = CARTESIAN_POINT ( 'NONE',  ( -71.50000000000001421, 0.000000000000000000, 106.5000000000000142 ) ) ;
#616 =( LENGTH_UNIT ( ) NAMED_UNIT ( * ) SI_UNIT ( .MILLI., .METRE. ) );
#617 = CARTESIAN_POINT ( 'NONE',  ( 67.99999999999995737, 11.50000000000000000, 120.0000000000000142 ) ) ;
#618 = VECTOR ( 'NONE', #278, 1000.000000000000000 ) ;
#619 = DIRECTION ( 'NONE',  ( -0.000000000000000000, -1.000000000000000000, -0.000000000000000000 ) ) ;
#620 = ORIENTED_EDGE ( 'NONE', *, *, #586, .T. ) ;
#621 = DIRECTION ( 'NONE',  ( 0.000000000000000000, -1.000000000000000000, 0.000000000000000000 ) ) ;
#622 = LINE ( 'NONE', #737, #24 ) ;
#623 = AXIS2_PLACEMENT_3D ( 'NONE', #94, #509, #326 ) ;
#624 = AXIS2_PLACEMENT_3D ( 'NONE', #75, #544, #539 ) ;
#625 = DIRECTION ( 'NONE',  ( 0.000000000000000000, 1.000000000000000000, 0.000000000000000000 ) ) ;
#626 = FACE_OUTER_BOUND ( 'NONE', #78, .T. ) ;
#627 = DIRECTION ( 'NONE',  ( 0.000000000000000000, -1.000000000000000000, 0.000000000000000000 ) ) ;
#628 = DIRECTION ( 'NONE',  ( 1.000000000000000000, 0.000000000000000000, 0.000000000000000000 ) ) ;
#629 = ORIENTED_EDGE ( 'NONE', *, *, #12, .F. ) ;
#630 =( NAMED_UNIT ( * ) PLANE_ANGLE_UNIT ( ) SI_UNIT ( $, .RADIAN. ) );
#631 = ADVANCED_FACE ( 'NONE', ( #36 ), #672, .T. ) ;
#632 = CARTESIAN_POINT ( 'NONE',  ( 81.50000000000001421, 11.50000000000000000, 106.5000000000000000 ) ) ;
#633 = LINE ( 'NONE', #234, #101 ) ;
#634 = SHAPE_DEFINITION_REPRESENTATION ( #431, #482 ) ;
#635 = FACE_OUTER_BOUND ( 'NONE', #27, .T. ) ;
#636 = FILL_AREA_STYLE ('',( #347 ) ) ;
#637 = DIRECTION ( 'NONE',  ( 0.000000000000000000, 0.000000000000000000, 1.000000000000000000 ) ) ;
#638 = ORIENTED_EDGE ( 'NONE', *, *, #18, .T. ) ;
#639 = CARTESIAN_POINT ( 'NONE',  ( -71.50000000000004263, 10.00000000000000000, -119.9999999999999858 ) ) ;
#640 = EDGE_CURVE ( 'NONE', #494, #378, #216, .T. ) ;
#641 =( LENGTH_UNIT ( ) NAMED_UNIT ( * ) SI_UNIT ( .MILLI., .METRE. ) );
#642 = CARTESIAN_POINT ( 'NONE',  ( 68.00000000000001421, 0.000000000000000000, 110.0000000000000142 ) ) ;
#643 = FACE_OUTER_BOUND ( 'NONE', #433, .T. ) ;
#644 = ORIENTED_EDGE ( 'NONE', *, *, #701, .F. ) ;
#645 = LINE ( 'NONE', #79, #108 ) ;
#646 = DIRECTION ( 'NONE',  ( -1.734723475976807094E-16, 0.000000000000000000, -1.000000000000000000 ) ) ;
#647 = ORIENTED_EDGE ( 'NONE', *, *, #691, .F. ) ;
#648 = CIRCLE ( 'NONE', #130, 13.49999999999999822 ) ;
#649 = AXIS2_PLACEMENT_3D ( 'NONE', #340, #399, #454 ) ;
#650 = EDGE_CURVE ( 'NONE', #206, #378, #593, .T. ) ;
#651 = CARTESIAN_POINT ( 'NONE',  ( 79.50000000000001421, 11.50000000000000000, 106.5000000000000000 ) ) ;
#652 = CARTESIAN_POINT ( 'NONE',  ( 68.00000000000001421, 10.00000000000000000, 106.5000000000000000 ) ) ;
#653 = VERTEX_POINT ( 'NONE', #540 ) ;
#654 = PLANE ( 'NONE',  #302 ) ;
#655 = TOROIDAL_SURFACE ( 'NONE', #332, 3.499999999999999556, 10.00000000000000000 ) ;
#656 = VERTEX_POINT ( 'NONE', #704 ) ;
#657 = DIRECTION ( 'NONE',  ( 1.000000000000000000, -0.000000000000000000, 0.000000000000000000 ) ) ;
#658 = ORIENTED_EDGE ( 'NONE', *, *, #373, .F. ) ;
#659 = VECTOR ( 'NONE', #311, 1000.000000000000000 ) ;
#660 = AXIS2_PLACEMENT_3D ( 'NONE', #132, #87, #426 ) ;
#661 = FACE_OUTER_BOUND ( 'NONE', #263, .T. ) ;
#662 = EDGE_LOOP ( 'NONE', ( #254, #356, #706, #669, #375, #131 ) ) ;
#663 = EDGE_CURVE ( 'NONE', #557, #219, #124, .T. ) ;
#664 = EDGE_LOOP ( 'NONE', ( #329, #88, #57, #477, #428, #733 ) ) ;
#665 = ADVANCED_FACE ( 'NONE', ( #303 ), #414, .F. ) ;
#666 = DIRECTION ( 'NONE',  ( -1.734723475976807094E-16, 0.000000000000000000, -1.000000000000000000 ) ) ;
#667 = ORIENTED_EDGE ( 'NONE', *, *, #448, .T. ) ;
#668 = DIRECTION ( 'NONE',  ( -1.000000000000000000, 0.000000000000000000, 0.000000000000000000 ) ) ;
#669 = ORIENTED_EDGE ( 'NONE', *, *, #507, .T. ) ;
#670 = CYLINDRICAL_SURFACE ( 'NONE', #388, 11.49999999999999645 ) ;
#671 = DIRECTION ( 'NONE',  ( 0.000000000000000000, 1.000000000000000000, 0.000000000000000000 ) ) ;
#672 = PLANE ( 'NONE',  #274 ) ;
#673 = ORIENTED_EDGE ( 'NONE', *, *, #575, .F. ) ;
#674 = CIRCLE ( 'NONE', #227, 13.49999999999999822 ) ;
#675 = DIRECTION ( 'NONE',  ( 1.000000000000000000, 0.000000000000000000, 0.000000000000000000 ) ) ;
#676 = ORIENTED_EDGE ( 'NONE', *, *, #468, .F. ) ;
#677 = EDGE_CURVE ( 'NONE', #713, #534, #391, .T. ) ;
#678 = DIRECTION ( 'NONE',  ( -0.000000000000000000, -1.000000000000000000, -0.000000000000000000 ) ) ;
#679 = ORIENTED_EDGE ( 'NONE', *, *, #403, .F. ) ;
#680 = VECTOR ( 'NONE', #628, 1000.000000000000000 ) ;
#681 = CIRCLE ( 'NONE', #276, 3.500000000000003109 ) ;
#682 = CARTESIAN_POINT ( 'NONE',  ( -79.50000000000002842, 10.00000000000000000, -119.9999999999999858 ) ) ;
#683 = LINE ( 'NONE', #169, #156 ) ;
#684 = EDGE_CURVE ( 'NONE', #656, #120, #15, .T. ) ;
#685 = DIRECTION ( 'NONE',  ( 0.000000000000000000, 0.000000000000000000, -1.000000000000000000 ) ) ;
#686 = CARTESIAN_POINT ( 'NONE',  ( -71.50000000000004263, 10.00000000000000000, -119.9999999999999858 ) ) ;
#687 = DIRECTION ( 'NONE',  ( -0.000000000000000000, -1.000000000000000000, -0.000000000000000000 ) ) ;
#688 = LINE ( 'NONE', #228, #294 ) ;
#689 = CYLINDRICAL_SURFACE ( 'NONE', #440, 13.49999999999999822 ) ;
#690 = VECTOR ( 'NONE', #155, 1000.000000000000000 ) ;
#691 = EDGE_CURVE ( 'NONE', #494, #469, #141, .T. ) ;
#692 = VERTEX_POINT ( 'NONE', #241 ) ;
#693 = AXIS2_PLACEMENT_3D ( 'NONE', #140, #369, #200 ) ;
#694 = CARTESIAN_POINT ( 'NONE',  ( -68.00000000000000000, 10.00000000000000000, 106.5000000000000142 ) ) ;
#695 = SURFACE_SIDE_STYLE ('',( #350 ) ) ;
#696 = DIRECTION ( 'NONE',  ( -0.000000000000000000, -1.000000000000000000, -0.000000000000000000 ) ) ;
#697 = ORIENTED_EDGE ( 'NONE', *, *, #507, .F. ) ;
#698 = DIRECTION ( 'NONE',  ( 1.000000000000000000, 0.000000000000000000, 0.000000000000000000 ) ) ;
#699 = DIRECTION ( 'NONE',  ( 0.000000000000000000, 0.000000000000000000, 1.000000000000000000 ) ) ;
#700 = ORIENTED_EDGE ( 'NONE', *, *, #364, .T. ) ;
#701 = EDGE_CURVE ( 'NONE', #692, #23, #244, .T. ) ;
#702 = CIRCLE ( 'NONE', #379, 11.49999999999999645 ) ;
#703 = CYLINDRICAL_SURFACE ( 'NONE', #529, 10.00000000000000178 ) ;
#704 = CARTESIAN_POINT ( 'NONE',  ( -71.50000000000001421, 2.000000000000000000, 106.5000000000000142 ) ) ;
#705 = ORIENTED_EDGE ( 'NONE', *, *, #553, .T. ) ;
#706 = ORIENTED_EDGE ( 'NONE', *, *, #60, .T. ) ;
#707 = ADVANCED_FACE ( 'NONE', ( #643 ), #491, .F. ) ;
#708 = FACE_OUTER_BOUND ( 'NONE', #257, .T. ) ;
#709 = DIRECTION ( 'NONE',  ( 0.000000000000000000, 1.000000000000000000, 0.000000000000000000 ) ) ;
#710 = ORIENTED_EDGE ( 'NONE', *, *, #182, .F. ) ;
#711 = ORIENTED_EDGE ( 'NONE', *, *, #261, .F. ) ;
#712 = CIRCLE ( 'NONE', #366, 10.00000000000000178 ) ;
#713 = VERTEX_POINT ( 'NONE', #297 ) ;
#714 = ORIENTED_EDGE ( 'NONE', *, *, #448, .F. ) ;
#715 = FACE_OUTER_BOUND ( 'NONE', #31, .T. ) ;
#716 = EDGE_CURVE ( 'NONE', #217, #517, #7, .T. ) ;
#717 = EDGE_CURVE ( 'NONE', #517, #713, #588, .T. ) ;
#718 = ORIENTED_EDGE ( 'NONE', *, *, #553, .F. ) ;
#719 = AXIS2_PLACEMENT_3D ( 'NONE', #218, #678, #612 ) ;
#720 = AXIS2_PLACEMENT_3D ( 'NONE', #320, #208, #437 ) ;
#721 = LINE ( 'NONE', #150, #72 ) ;
#722 = ORIENTED_EDGE ( 'NONE', *, *, #717, .T. ) ;
#723 = DIRECTION ( 'NONE',  ( 1.734723475976807094E-16, 0.000000000000000000, 1.000000000000000000 ) ) ;
#724 = ORIENTED_EDGE ( 'NONE', *, *, #202, .F. ) ;
#725 = CARTESIAN_POINT ( 'NONE',  ( 0.000000000000000000, 2.000000000000000000, 0.000000000000000000 ) ) ;
#726 = EDGE_CURVE ( 'NONE', #318, #421, #464, .T. ) ;
#727 = FACE_OUTER_BOUND ( 'NONE', #231, .T. ) ;
#728 = CARTESIAN_POINT ( 'NONE',  ( -81.50000000000000000, 10.00000000000000000, 120.0000000000000142 ) ) ;
#729 = VERTEX_POINT ( 'NONE', #424 ) ;
#730 = LINE ( 'NONE', #168, #618 ) ;
#731 = ORIENTED_EDGE ( 'NONE', *, *, #677, .T. ) ;
#732 = CARTESIAN_POINT ( 'NONE',  ( -79.50000000000002842, 11.50000000000000000, -117.9999999999999858 ) ) ;
#733 = ORIENTED_EDGE ( 'NONE', *, *, #126, .F. ) ;
#734 = EDGE_CURVE ( 'NONE', #194, #245, #133, .T. ) ;
#735 = ADVANCED_FACE ( 'NONE', ( #420 ), #105, .F. ) ;
#736 = DIRECTION ( 'NONE',  ( 0.000000000000000000, 0.000000000000000000, 1.000000000000000000 ) ) ;
#737 = CARTESIAN_POINT ( 'NONE',  ( -81.50000000000002842, 11.50000000000000000, -119.9999999999999858 ) ) ;
#738 = DIRECTION ( 'NONE',  ( -1.000000000000000000, 0.000000000000000000, 0.000000000000000000 ) ) ;
#739 = VECTOR ( 'NONE', #268, 1000.000000000000000 ) ;
#740 = AXIS2_PLACEMENT_3D ( 'NONE', #518, #742, #58 ) ;
#741 = CARTESIAN_POINT ( 'NONE',  ( -81.50000000000002842, 11.50000000000000000, -119.9999999999999858 ) ) ;
#742 = DIRECTION ( 'NONE',  ( 0.000000000000000000, 0.000000000000000000, 1.000000000000000000 ) ) ;
#743 = CARTESIAN_POINT ( 'NONE',  ( 0.000000000000000000, 0.000000000000000000, 0.000000000000000000 ) ) ;
ENDSEC;
END-ISO-10303-21;
